G04 #@! TF.GenerationSoftware,KiCad,Pcbnew,(5.0.0-3-g5ebb6b6)*
G04 #@! TF.CreationDate,2020-01-23T02:23:46-08:00*
G04 #@! TF.ProjectId,Ethernet_Zero,45746865726E65745F5A65726F2E6B69,rev?*
G04 #@! TF.SameCoordinates,Original*
G04 #@! TF.FileFunction,Soldermask,Top*
G04 #@! TF.FilePolarity,Negative*
%FSLAX46Y46*%
G04 Gerber Fmt 4.6, Leading zero omitted, Abs format (unit mm)*
G04 Created by KiCad (PCBNEW (5.0.0-3-g5ebb6b6)) date Thursday, 23 January 2020 at 02:23:46*
%MOMM*%
%LPD*%
G01*
G04 APERTURE LIST*
%ADD10C,0.100000*%
%ADD11C,1.550000*%
%ADD12R,2.100000X2.100000*%
%ADD13O,2.100000X2.100000*%
%ADD14C,1.900000*%
%ADD15C,1.846000*%
%ADD16C,1.930000*%
%ADD17C,2.755000*%
%ADD18C,2.025000*%
%ADD19R,2.150000X0.850000*%
G04 APERTURE END LIST*
D10*
G04 #@! TO.C,R9*
G36*
X153830071Y-56914623D02*
X153862781Y-56919475D01*
X153894857Y-56927509D01*
X153925991Y-56938649D01*
X153955884Y-56952787D01*
X153984247Y-56969787D01*
X154010807Y-56989485D01*
X154035308Y-57011692D01*
X154057515Y-57036193D01*
X154077213Y-57062753D01*
X154094213Y-57091116D01*
X154108351Y-57121009D01*
X154119491Y-57152143D01*
X154127525Y-57184219D01*
X154132377Y-57216929D01*
X154134000Y-57249956D01*
X154134000Y-58376044D01*
X154132377Y-58409071D01*
X154127525Y-58441781D01*
X154119491Y-58473857D01*
X154108351Y-58504991D01*
X154094213Y-58534884D01*
X154077213Y-58563247D01*
X154057515Y-58589807D01*
X154035308Y-58614308D01*
X154010807Y-58636515D01*
X153984247Y-58656213D01*
X153955884Y-58673213D01*
X153925991Y-58687351D01*
X153894857Y-58698491D01*
X153862781Y-58706525D01*
X153830071Y-58711377D01*
X153797044Y-58713000D01*
X152920956Y-58713000D01*
X152887929Y-58711377D01*
X152855219Y-58706525D01*
X152823143Y-58698491D01*
X152792009Y-58687351D01*
X152762116Y-58673213D01*
X152733753Y-58656213D01*
X152707193Y-58636515D01*
X152682692Y-58614308D01*
X152660485Y-58589807D01*
X152640787Y-58563247D01*
X152623787Y-58534884D01*
X152609649Y-58504991D01*
X152598509Y-58473857D01*
X152590475Y-58441781D01*
X152585623Y-58409071D01*
X152584000Y-58376044D01*
X152584000Y-57249956D01*
X152585623Y-57216929D01*
X152590475Y-57184219D01*
X152598509Y-57152143D01*
X152609649Y-57121009D01*
X152623787Y-57091116D01*
X152640787Y-57062753D01*
X152660485Y-57036193D01*
X152682692Y-57011692D01*
X152707193Y-56989485D01*
X152733753Y-56969787D01*
X152762116Y-56952787D01*
X152792009Y-56938649D01*
X152823143Y-56927509D01*
X152855219Y-56919475D01*
X152887929Y-56914623D01*
X152920956Y-56913000D01*
X153797044Y-56913000D01*
X153830071Y-56914623D01*
X153830071Y-56914623D01*
G37*
D11*
X153359000Y-57813000D03*
D10*
G36*
X155880071Y-56914623D02*
X155912781Y-56919475D01*
X155944857Y-56927509D01*
X155975991Y-56938649D01*
X156005884Y-56952787D01*
X156034247Y-56969787D01*
X156060807Y-56989485D01*
X156085308Y-57011692D01*
X156107515Y-57036193D01*
X156127213Y-57062753D01*
X156144213Y-57091116D01*
X156158351Y-57121009D01*
X156169491Y-57152143D01*
X156177525Y-57184219D01*
X156182377Y-57216929D01*
X156184000Y-57249956D01*
X156184000Y-58376044D01*
X156182377Y-58409071D01*
X156177525Y-58441781D01*
X156169491Y-58473857D01*
X156158351Y-58504991D01*
X156144213Y-58534884D01*
X156127213Y-58563247D01*
X156107515Y-58589807D01*
X156085308Y-58614308D01*
X156060807Y-58636515D01*
X156034247Y-58656213D01*
X156005884Y-58673213D01*
X155975991Y-58687351D01*
X155944857Y-58698491D01*
X155912781Y-58706525D01*
X155880071Y-58711377D01*
X155847044Y-58713000D01*
X154970956Y-58713000D01*
X154937929Y-58711377D01*
X154905219Y-58706525D01*
X154873143Y-58698491D01*
X154842009Y-58687351D01*
X154812116Y-58673213D01*
X154783753Y-58656213D01*
X154757193Y-58636515D01*
X154732692Y-58614308D01*
X154710485Y-58589807D01*
X154690787Y-58563247D01*
X154673787Y-58534884D01*
X154659649Y-58504991D01*
X154648509Y-58473857D01*
X154640475Y-58441781D01*
X154635623Y-58409071D01*
X154634000Y-58376044D01*
X154634000Y-57249956D01*
X154635623Y-57216929D01*
X154640475Y-57184219D01*
X154648509Y-57152143D01*
X154659649Y-57121009D01*
X154673787Y-57091116D01*
X154690787Y-57062753D01*
X154710485Y-57036193D01*
X154732692Y-57011692D01*
X154757193Y-56989485D01*
X154783753Y-56969787D01*
X154812116Y-56952787D01*
X154842009Y-56938649D01*
X154873143Y-56927509D01*
X154905219Y-56919475D01*
X154937929Y-56914623D01*
X154970956Y-56913000D01*
X155847044Y-56913000D01*
X155880071Y-56914623D01*
X155880071Y-56914623D01*
G37*
D11*
X155409000Y-57813000D03*
G04 #@! TD*
D12*
G04 #@! TO.C,J9*
X150574000Y-49558000D03*
D13*
X153114000Y-49558000D03*
X155654000Y-49558000D03*
X158194000Y-49558000D03*
G04 #@! TD*
G04 #@! TO.C,J8*
X158194000Y-53368000D03*
X155654000Y-53368000D03*
X153114000Y-53368000D03*
D12*
X150574000Y-53368000D03*
G04 #@! TD*
G04 #@! TO.C,J7*
X137239000Y-49558000D03*
D13*
X139779000Y-49558000D03*
X142319000Y-49558000D03*
X144859000Y-49558000D03*
G04 #@! TD*
D12*
G04 #@! TO.C,J1*
X141564000Y-40588000D03*
D13*
X141564000Y-38048000D03*
X144104000Y-40588000D03*
X144104000Y-38048000D03*
X146644000Y-40588000D03*
X146644000Y-38048000D03*
X149184000Y-40588000D03*
X149184000Y-38048000D03*
X151724000Y-40588000D03*
X151724000Y-38048000D03*
X154264000Y-40588000D03*
X154264000Y-38048000D03*
X156804000Y-40588000D03*
X156804000Y-38048000D03*
X159344000Y-40588000D03*
X159344000Y-38048000D03*
X161884000Y-40588000D03*
X161884000Y-38048000D03*
X164424000Y-40588000D03*
X164424000Y-38048000D03*
X166964000Y-40588000D03*
X166964000Y-38048000D03*
X169504000Y-40588000D03*
X169504000Y-38048000D03*
X172044000Y-40588000D03*
X172044000Y-38048000D03*
X174584000Y-40588000D03*
X174584000Y-38048000D03*
X177124000Y-40588000D03*
X177124000Y-38048000D03*
X179664000Y-40588000D03*
X179664000Y-38048000D03*
X182204000Y-40588000D03*
X182204000Y-38048000D03*
X184744000Y-40588000D03*
X184744000Y-38048000D03*
X187284000Y-40588000D03*
X187284000Y-38048000D03*
X189824000Y-40588000D03*
X189824000Y-38048000D03*
G04 #@! TD*
D14*
G04 #@! TO.C,Y1*
X170513000Y-46637000D03*
X166713000Y-46637000D03*
G04 #@! TD*
D15*
G04 #@! TO.C,J5*
X195024000Y-47272000D03*
X192484000Y-48542000D03*
X195024000Y-49812000D03*
X192484000Y-51082000D03*
X195024000Y-52352000D03*
X192484000Y-53622000D03*
X195024000Y-54892000D03*
X192484000Y-56162000D03*
X195024000Y-57432000D03*
X192484000Y-58702000D03*
D16*
X203924000Y-59787000D03*
X205954000Y-59787000D03*
X203924000Y-46187000D03*
X205954000Y-46187000D03*
D17*
X198324000Y-60862000D03*
X198324000Y-45112000D03*
D18*
X201374000Y-58702000D03*
X201374000Y-47272000D03*
G04 #@! TD*
D19*
G04 #@! TO.C,U1*
X184102000Y-56827000D03*
X184102000Y-56177000D03*
X184102000Y-55527000D03*
X184102000Y-54877000D03*
X184102000Y-54227000D03*
X184102000Y-53577000D03*
X184102000Y-52927000D03*
X184102000Y-52277000D03*
X184102000Y-51627000D03*
X184102000Y-50977000D03*
X184102000Y-50327000D03*
X184102000Y-49677000D03*
X184102000Y-49027000D03*
X184102000Y-48377000D03*
X176902000Y-48377000D03*
X176902000Y-49027000D03*
X176902000Y-49677000D03*
X176902000Y-50327000D03*
X176902000Y-50977000D03*
X176902000Y-51627000D03*
X176902000Y-52277000D03*
X176902000Y-52927000D03*
X176902000Y-53577000D03*
X176902000Y-54227000D03*
X176902000Y-54877000D03*
X176902000Y-55527000D03*
X176902000Y-56177000D03*
X176902000Y-56827000D03*
G04 #@! TD*
D10*
G04 #@! TO.C,L1*
G36*
X203605071Y-36594623D02*
X203637781Y-36599475D01*
X203669857Y-36607509D01*
X203700991Y-36618649D01*
X203730884Y-36632787D01*
X203759247Y-36649787D01*
X203785807Y-36669485D01*
X203810308Y-36691692D01*
X203832515Y-36716193D01*
X203852213Y-36742753D01*
X203869213Y-36771116D01*
X203883351Y-36801009D01*
X203894491Y-36832143D01*
X203902525Y-36864219D01*
X203907377Y-36896929D01*
X203909000Y-36929956D01*
X203909000Y-38056044D01*
X203907377Y-38089071D01*
X203902525Y-38121781D01*
X203894491Y-38153857D01*
X203883351Y-38184991D01*
X203869213Y-38214884D01*
X203852213Y-38243247D01*
X203832515Y-38269807D01*
X203810308Y-38294308D01*
X203785807Y-38316515D01*
X203759247Y-38336213D01*
X203730884Y-38353213D01*
X203700991Y-38367351D01*
X203669857Y-38378491D01*
X203637781Y-38386525D01*
X203605071Y-38391377D01*
X203572044Y-38393000D01*
X202695956Y-38393000D01*
X202662929Y-38391377D01*
X202630219Y-38386525D01*
X202598143Y-38378491D01*
X202567009Y-38367351D01*
X202537116Y-38353213D01*
X202508753Y-38336213D01*
X202482193Y-38316515D01*
X202457692Y-38294308D01*
X202435485Y-38269807D01*
X202415787Y-38243247D01*
X202398787Y-38214884D01*
X202384649Y-38184991D01*
X202373509Y-38153857D01*
X202365475Y-38121781D01*
X202360623Y-38089071D01*
X202359000Y-38056044D01*
X202359000Y-36929956D01*
X202360623Y-36896929D01*
X202365475Y-36864219D01*
X202373509Y-36832143D01*
X202384649Y-36801009D01*
X202398787Y-36771116D01*
X202415787Y-36742753D01*
X202435485Y-36716193D01*
X202457692Y-36691692D01*
X202482193Y-36669485D01*
X202508753Y-36649787D01*
X202537116Y-36632787D01*
X202567009Y-36618649D01*
X202598143Y-36607509D01*
X202630219Y-36599475D01*
X202662929Y-36594623D01*
X202695956Y-36593000D01*
X203572044Y-36593000D01*
X203605071Y-36594623D01*
X203605071Y-36594623D01*
G37*
D11*
X203134000Y-37493000D03*
D10*
G36*
X205655071Y-36594623D02*
X205687781Y-36599475D01*
X205719857Y-36607509D01*
X205750991Y-36618649D01*
X205780884Y-36632787D01*
X205809247Y-36649787D01*
X205835807Y-36669485D01*
X205860308Y-36691692D01*
X205882515Y-36716193D01*
X205902213Y-36742753D01*
X205919213Y-36771116D01*
X205933351Y-36801009D01*
X205944491Y-36832143D01*
X205952525Y-36864219D01*
X205957377Y-36896929D01*
X205959000Y-36929956D01*
X205959000Y-38056044D01*
X205957377Y-38089071D01*
X205952525Y-38121781D01*
X205944491Y-38153857D01*
X205933351Y-38184991D01*
X205919213Y-38214884D01*
X205902213Y-38243247D01*
X205882515Y-38269807D01*
X205860308Y-38294308D01*
X205835807Y-38316515D01*
X205809247Y-38336213D01*
X205780884Y-38353213D01*
X205750991Y-38367351D01*
X205719857Y-38378491D01*
X205687781Y-38386525D01*
X205655071Y-38391377D01*
X205622044Y-38393000D01*
X204745956Y-38393000D01*
X204712929Y-38391377D01*
X204680219Y-38386525D01*
X204648143Y-38378491D01*
X204617009Y-38367351D01*
X204587116Y-38353213D01*
X204558753Y-38336213D01*
X204532193Y-38316515D01*
X204507692Y-38294308D01*
X204485485Y-38269807D01*
X204465787Y-38243247D01*
X204448787Y-38214884D01*
X204434649Y-38184991D01*
X204423509Y-38153857D01*
X204415475Y-38121781D01*
X204410623Y-38089071D01*
X204409000Y-38056044D01*
X204409000Y-36929956D01*
X204410623Y-36896929D01*
X204415475Y-36864219D01*
X204423509Y-36832143D01*
X204434649Y-36801009D01*
X204448787Y-36771116D01*
X204465787Y-36742753D01*
X204485485Y-36716193D01*
X204507692Y-36691692D01*
X204532193Y-36669485D01*
X204558753Y-36649787D01*
X204587116Y-36632787D01*
X204617009Y-36618649D01*
X204648143Y-36607509D01*
X204680219Y-36599475D01*
X204712929Y-36594623D01*
X204745956Y-36593000D01*
X205622044Y-36593000D01*
X205655071Y-36594623D01*
X205655071Y-36594623D01*
G37*
D11*
X205184000Y-37493000D03*
G04 #@! TD*
D10*
G04 #@! TO.C,R5*
G36*
X198160071Y-37844623D02*
X198192781Y-37849475D01*
X198224857Y-37857509D01*
X198255991Y-37868649D01*
X198285884Y-37882787D01*
X198314247Y-37899787D01*
X198340807Y-37919485D01*
X198365308Y-37941692D01*
X198387515Y-37966193D01*
X198407213Y-37992753D01*
X198424213Y-38021116D01*
X198438351Y-38051009D01*
X198449491Y-38082143D01*
X198457525Y-38114219D01*
X198462377Y-38146929D01*
X198464000Y-38179956D01*
X198464000Y-39056044D01*
X198462377Y-39089071D01*
X198457525Y-39121781D01*
X198449491Y-39153857D01*
X198438351Y-39184991D01*
X198424213Y-39214884D01*
X198407213Y-39243247D01*
X198387515Y-39269807D01*
X198365308Y-39294308D01*
X198340807Y-39316515D01*
X198314247Y-39336213D01*
X198285884Y-39353213D01*
X198255991Y-39367351D01*
X198224857Y-39378491D01*
X198192781Y-39386525D01*
X198160071Y-39391377D01*
X198127044Y-39393000D01*
X197000956Y-39393000D01*
X196967929Y-39391377D01*
X196935219Y-39386525D01*
X196903143Y-39378491D01*
X196872009Y-39367351D01*
X196842116Y-39353213D01*
X196813753Y-39336213D01*
X196787193Y-39316515D01*
X196762692Y-39294308D01*
X196740485Y-39269807D01*
X196720787Y-39243247D01*
X196703787Y-39214884D01*
X196689649Y-39184991D01*
X196678509Y-39153857D01*
X196670475Y-39121781D01*
X196665623Y-39089071D01*
X196664000Y-39056044D01*
X196664000Y-38179956D01*
X196665623Y-38146929D01*
X196670475Y-38114219D01*
X196678509Y-38082143D01*
X196689649Y-38051009D01*
X196703787Y-38021116D01*
X196720787Y-37992753D01*
X196740485Y-37966193D01*
X196762692Y-37941692D01*
X196787193Y-37919485D01*
X196813753Y-37899787D01*
X196842116Y-37882787D01*
X196872009Y-37868649D01*
X196903143Y-37857509D01*
X196935219Y-37849475D01*
X196967929Y-37844623D01*
X197000956Y-37843000D01*
X198127044Y-37843000D01*
X198160071Y-37844623D01*
X198160071Y-37844623D01*
G37*
D11*
X197564000Y-38618000D03*
D10*
G36*
X198160071Y-39894623D02*
X198192781Y-39899475D01*
X198224857Y-39907509D01*
X198255991Y-39918649D01*
X198285884Y-39932787D01*
X198314247Y-39949787D01*
X198340807Y-39969485D01*
X198365308Y-39991692D01*
X198387515Y-40016193D01*
X198407213Y-40042753D01*
X198424213Y-40071116D01*
X198438351Y-40101009D01*
X198449491Y-40132143D01*
X198457525Y-40164219D01*
X198462377Y-40196929D01*
X198464000Y-40229956D01*
X198464000Y-41106044D01*
X198462377Y-41139071D01*
X198457525Y-41171781D01*
X198449491Y-41203857D01*
X198438351Y-41234991D01*
X198424213Y-41264884D01*
X198407213Y-41293247D01*
X198387515Y-41319807D01*
X198365308Y-41344308D01*
X198340807Y-41366515D01*
X198314247Y-41386213D01*
X198285884Y-41403213D01*
X198255991Y-41417351D01*
X198224857Y-41428491D01*
X198192781Y-41436525D01*
X198160071Y-41441377D01*
X198127044Y-41443000D01*
X197000956Y-41443000D01*
X196967929Y-41441377D01*
X196935219Y-41436525D01*
X196903143Y-41428491D01*
X196872009Y-41417351D01*
X196842116Y-41403213D01*
X196813753Y-41386213D01*
X196787193Y-41366515D01*
X196762692Y-41344308D01*
X196740485Y-41319807D01*
X196720787Y-41293247D01*
X196703787Y-41264884D01*
X196689649Y-41234991D01*
X196678509Y-41203857D01*
X196670475Y-41171781D01*
X196665623Y-41139071D01*
X196664000Y-41106044D01*
X196664000Y-40229956D01*
X196665623Y-40196929D01*
X196670475Y-40164219D01*
X196678509Y-40132143D01*
X196689649Y-40101009D01*
X196703787Y-40071116D01*
X196720787Y-40042753D01*
X196740485Y-40016193D01*
X196762692Y-39991692D01*
X196787193Y-39969485D01*
X196813753Y-39949787D01*
X196842116Y-39932787D01*
X196872009Y-39918649D01*
X196903143Y-39907509D01*
X196935219Y-39899475D01*
X196967929Y-39894623D01*
X197000956Y-39893000D01*
X198127044Y-39893000D01*
X198160071Y-39894623D01*
X198160071Y-39894623D01*
G37*
D11*
X197564000Y-40668000D03*
G04 #@! TD*
D10*
G04 #@! TO.C,R6*
G36*
X200700071Y-39894623D02*
X200732781Y-39899475D01*
X200764857Y-39907509D01*
X200795991Y-39918649D01*
X200825884Y-39932787D01*
X200854247Y-39949787D01*
X200880807Y-39969485D01*
X200905308Y-39991692D01*
X200927515Y-40016193D01*
X200947213Y-40042753D01*
X200964213Y-40071116D01*
X200978351Y-40101009D01*
X200989491Y-40132143D01*
X200997525Y-40164219D01*
X201002377Y-40196929D01*
X201004000Y-40229956D01*
X201004000Y-41106044D01*
X201002377Y-41139071D01*
X200997525Y-41171781D01*
X200989491Y-41203857D01*
X200978351Y-41234991D01*
X200964213Y-41264884D01*
X200947213Y-41293247D01*
X200927515Y-41319807D01*
X200905308Y-41344308D01*
X200880807Y-41366515D01*
X200854247Y-41386213D01*
X200825884Y-41403213D01*
X200795991Y-41417351D01*
X200764857Y-41428491D01*
X200732781Y-41436525D01*
X200700071Y-41441377D01*
X200667044Y-41443000D01*
X199540956Y-41443000D01*
X199507929Y-41441377D01*
X199475219Y-41436525D01*
X199443143Y-41428491D01*
X199412009Y-41417351D01*
X199382116Y-41403213D01*
X199353753Y-41386213D01*
X199327193Y-41366515D01*
X199302692Y-41344308D01*
X199280485Y-41319807D01*
X199260787Y-41293247D01*
X199243787Y-41264884D01*
X199229649Y-41234991D01*
X199218509Y-41203857D01*
X199210475Y-41171781D01*
X199205623Y-41139071D01*
X199204000Y-41106044D01*
X199204000Y-40229956D01*
X199205623Y-40196929D01*
X199210475Y-40164219D01*
X199218509Y-40132143D01*
X199229649Y-40101009D01*
X199243787Y-40071116D01*
X199260787Y-40042753D01*
X199280485Y-40016193D01*
X199302692Y-39991692D01*
X199327193Y-39969485D01*
X199353753Y-39949787D01*
X199382116Y-39932787D01*
X199412009Y-39918649D01*
X199443143Y-39907509D01*
X199475219Y-39899475D01*
X199507929Y-39894623D01*
X199540956Y-39893000D01*
X200667044Y-39893000D01*
X200700071Y-39894623D01*
X200700071Y-39894623D01*
G37*
D11*
X200104000Y-40668000D03*
D10*
G36*
X200700071Y-37844623D02*
X200732781Y-37849475D01*
X200764857Y-37857509D01*
X200795991Y-37868649D01*
X200825884Y-37882787D01*
X200854247Y-37899787D01*
X200880807Y-37919485D01*
X200905308Y-37941692D01*
X200927515Y-37966193D01*
X200947213Y-37992753D01*
X200964213Y-38021116D01*
X200978351Y-38051009D01*
X200989491Y-38082143D01*
X200997525Y-38114219D01*
X201002377Y-38146929D01*
X201004000Y-38179956D01*
X201004000Y-39056044D01*
X201002377Y-39089071D01*
X200997525Y-39121781D01*
X200989491Y-39153857D01*
X200978351Y-39184991D01*
X200964213Y-39214884D01*
X200947213Y-39243247D01*
X200927515Y-39269807D01*
X200905308Y-39294308D01*
X200880807Y-39316515D01*
X200854247Y-39336213D01*
X200825884Y-39353213D01*
X200795991Y-39367351D01*
X200764857Y-39378491D01*
X200732781Y-39386525D01*
X200700071Y-39391377D01*
X200667044Y-39393000D01*
X199540956Y-39393000D01*
X199507929Y-39391377D01*
X199475219Y-39386525D01*
X199443143Y-39378491D01*
X199412009Y-39367351D01*
X199382116Y-39353213D01*
X199353753Y-39336213D01*
X199327193Y-39316515D01*
X199302692Y-39294308D01*
X199280485Y-39269807D01*
X199260787Y-39243247D01*
X199243787Y-39214884D01*
X199229649Y-39184991D01*
X199218509Y-39153857D01*
X199210475Y-39121781D01*
X199205623Y-39089071D01*
X199204000Y-39056044D01*
X199204000Y-38179956D01*
X199205623Y-38146929D01*
X199210475Y-38114219D01*
X199218509Y-38082143D01*
X199229649Y-38051009D01*
X199243787Y-38021116D01*
X199260787Y-37992753D01*
X199280485Y-37966193D01*
X199302692Y-37941692D01*
X199327193Y-37919485D01*
X199353753Y-37899787D01*
X199382116Y-37882787D01*
X199412009Y-37868649D01*
X199443143Y-37857509D01*
X199475219Y-37849475D01*
X199507929Y-37844623D01*
X199540956Y-37843000D01*
X200667044Y-37843000D01*
X200700071Y-37844623D01*
X200700071Y-37844623D01*
G37*
D11*
X200104000Y-38618000D03*
G04 #@! TD*
D10*
G04 #@! TO.C,R7*
G36*
X205780071Y-40674623D02*
X205812781Y-40679475D01*
X205844857Y-40687509D01*
X205875991Y-40698649D01*
X205905884Y-40712787D01*
X205934247Y-40729787D01*
X205960807Y-40749485D01*
X205985308Y-40771692D01*
X206007515Y-40796193D01*
X206027213Y-40822753D01*
X206044213Y-40851116D01*
X206058351Y-40881009D01*
X206069491Y-40912143D01*
X206077525Y-40944219D01*
X206082377Y-40976929D01*
X206084000Y-41009956D01*
X206084000Y-41886044D01*
X206082377Y-41919071D01*
X206077525Y-41951781D01*
X206069491Y-41983857D01*
X206058351Y-42014991D01*
X206044213Y-42044884D01*
X206027213Y-42073247D01*
X206007515Y-42099807D01*
X205985308Y-42124308D01*
X205960807Y-42146515D01*
X205934247Y-42166213D01*
X205905884Y-42183213D01*
X205875991Y-42197351D01*
X205844857Y-42208491D01*
X205812781Y-42216525D01*
X205780071Y-42221377D01*
X205747044Y-42223000D01*
X204620956Y-42223000D01*
X204587929Y-42221377D01*
X204555219Y-42216525D01*
X204523143Y-42208491D01*
X204492009Y-42197351D01*
X204462116Y-42183213D01*
X204433753Y-42166213D01*
X204407193Y-42146515D01*
X204382692Y-42124308D01*
X204360485Y-42099807D01*
X204340787Y-42073247D01*
X204323787Y-42044884D01*
X204309649Y-42014991D01*
X204298509Y-41983857D01*
X204290475Y-41951781D01*
X204285623Y-41919071D01*
X204284000Y-41886044D01*
X204284000Y-41009956D01*
X204285623Y-40976929D01*
X204290475Y-40944219D01*
X204298509Y-40912143D01*
X204309649Y-40881009D01*
X204323787Y-40851116D01*
X204340787Y-40822753D01*
X204360485Y-40796193D01*
X204382692Y-40771692D01*
X204407193Y-40749485D01*
X204433753Y-40729787D01*
X204462116Y-40712787D01*
X204492009Y-40698649D01*
X204523143Y-40687509D01*
X204555219Y-40679475D01*
X204587929Y-40674623D01*
X204620956Y-40673000D01*
X205747044Y-40673000D01*
X205780071Y-40674623D01*
X205780071Y-40674623D01*
G37*
D11*
X205184000Y-41448000D03*
D10*
G36*
X205780071Y-38624623D02*
X205812781Y-38629475D01*
X205844857Y-38637509D01*
X205875991Y-38648649D01*
X205905884Y-38662787D01*
X205934247Y-38679787D01*
X205960807Y-38699485D01*
X205985308Y-38721692D01*
X206007515Y-38746193D01*
X206027213Y-38772753D01*
X206044213Y-38801116D01*
X206058351Y-38831009D01*
X206069491Y-38862143D01*
X206077525Y-38894219D01*
X206082377Y-38926929D01*
X206084000Y-38959956D01*
X206084000Y-39836044D01*
X206082377Y-39869071D01*
X206077525Y-39901781D01*
X206069491Y-39933857D01*
X206058351Y-39964991D01*
X206044213Y-39994884D01*
X206027213Y-40023247D01*
X206007515Y-40049807D01*
X205985308Y-40074308D01*
X205960807Y-40096515D01*
X205934247Y-40116213D01*
X205905884Y-40133213D01*
X205875991Y-40147351D01*
X205844857Y-40158491D01*
X205812781Y-40166525D01*
X205780071Y-40171377D01*
X205747044Y-40173000D01*
X204620956Y-40173000D01*
X204587929Y-40171377D01*
X204555219Y-40166525D01*
X204523143Y-40158491D01*
X204492009Y-40147351D01*
X204462116Y-40133213D01*
X204433753Y-40116213D01*
X204407193Y-40096515D01*
X204382692Y-40074308D01*
X204360485Y-40049807D01*
X204340787Y-40023247D01*
X204323787Y-39994884D01*
X204309649Y-39964991D01*
X204298509Y-39933857D01*
X204290475Y-39901781D01*
X204285623Y-39869071D01*
X204284000Y-39836044D01*
X204284000Y-38959956D01*
X204285623Y-38926929D01*
X204290475Y-38894219D01*
X204298509Y-38862143D01*
X204309649Y-38831009D01*
X204323787Y-38801116D01*
X204340787Y-38772753D01*
X204360485Y-38746193D01*
X204382692Y-38721692D01*
X204407193Y-38699485D01*
X204433753Y-38679787D01*
X204462116Y-38662787D01*
X204492009Y-38648649D01*
X204523143Y-38637509D01*
X204555219Y-38629475D01*
X204587929Y-38624623D01*
X204620956Y-38623000D01*
X205747044Y-38623000D01*
X205780071Y-38624623D01*
X205780071Y-38624623D01*
G37*
D11*
X205184000Y-39398000D03*
G04 #@! TD*
D10*
G04 #@! TO.C,R8*
G36*
X203240071Y-38624623D02*
X203272781Y-38629475D01*
X203304857Y-38637509D01*
X203335991Y-38648649D01*
X203365884Y-38662787D01*
X203394247Y-38679787D01*
X203420807Y-38699485D01*
X203445308Y-38721692D01*
X203467515Y-38746193D01*
X203487213Y-38772753D01*
X203504213Y-38801116D01*
X203518351Y-38831009D01*
X203529491Y-38862143D01*
X203537525Y-38894219D01*
X203542377Y-38926929D01*
X203544000Y-38959956D01*
X203544000Y-39836044D01*
X203542377Y-39869071D01*
X203537525Y-39901781D01*
X203529491Y-39933857D01*
X203518351Y-39964991D01*
X203504213Y-39994884D01*
X203487213Y-40023247D01*
X203467515Y-40049807D01*
X203445308Y-40074308D01*
X203420807Y-40096515D01*
X203394247Y-40116213D01*
X203365884Y-40133213D01*
X203335991Y-40147351D01*
X203304857Y-40158491D01*
X203272781Y-40166525D01*
X203240071Y-40171377D01*
X203207044Y-40173000D01*
X202080956Y-40173000D01*
X202047929Y-40171377D01*
X202015219Y-40166525D01*
X201983143Y-40158491D01*
X201952009Y-40147351D01*
X201922116Y-40133213D01*
X201893753Y-40116213D01*
X201867193Y-40096515D01*
X201842692Y-40074308D01*
X201820485Y-40049807D01*
X201800787Y-40023247D01*
X201783787Y-39994884D01*
X201769649Y-39964991D01*
X201758509Y-39933857D01*
X201750475Y-39901781D01*
X201745623Y-39869071D01*
X201744000Y-39836044D01*
X201744000Y-38959956D01*
X201745623Y-38926929D01*
X201750475Y-38894219D01*
X201758509Y-38862143D01*
X201769649Y-38831009D01*
X201783787Y-38801116D01*
X201800787Y-38772753D01*
X201820485Y-38746193D01*
X201842692Y-38721692D01*
X201867193Y-38699485D01*
X201893753Y-38679787D01*
X201922116Y-38662787D01*
X201952009Y-38648649D01*
X201983143Y-38637509D01*
X202015219Y-38629475D01*
X202047929Y-38624623D01*
X202080956Y-38623000D01*
X203207044Y-38623000D01*
X203240071Y-38624623D01*
X203240071Y-38624623D01*
G37*
D11*
X202644000Y-39398000D03*
D10*
G36*
X203240071Y-40674623D02*
X203272781Y-40679475D01*
X203304857Y-40687509D01*
X203335991Y-40698649D01*
X203365884Y-40712787D01*
X203394247Y-40729787D01*
X203420807Y-40749485D01*
X203445308Y-40771692D01*
X203467515Y-40796193D01*
X203487213Y-40822753D01*
X203504213Y-40851116D01*
X203518351Y-40881009D01*
X203529491Y-40912143D01*
X203537525Y-40944219D01*
X203542377Y-40976929D01*
X203544000Y-41009956D01*
X203544000Y-41886044D01*
X203542377Y-41919071D01*
X203537525Y-41951781D01*
X203529491Y-41983857D01*
X203518351Y-42014991D01*
X203504213Y-42044884D01*
X203487213Y-42073247D01*
X203467515Y-42099807D01*
X203445308Y-42124308D01*
X203420807Y-42146515D01*
X203394247Y-42166213D01*
X203365884Y-42183213D01*
X203335991Y-42197351D01*
X203304857Y-42208491D01*
X203272781Y-42216525D01*
X203240071Y-42221377D01*
X203207044Y-42223000D01*
X202080956Y-42223000D01*
X202047929Y-42221377D01*
X202015219Y-42216525D01*
X201983143Y-42208491D01*
X201952009Y-42197351D01*
X201922116Y-42183213D01*
X201893753Y-42166213D01*
X201867193Y-42146515D01*
X201842692Y-42124308D01*
X201820485Y-42099807D01*
X201800787Y-42073247D01*
X201783787Y-42044884D01*
X201769649Y-42014991D01*
X201758509Y-41983857D01*
X201750475Y-41951781D01*
X201745623Y-41919071D01*
X201744000Y-41886044D01*
X201744000Y-41009956D01*
X201745623Y-40976929D01*
X201750475Y-40944219D01*
X201758509Y-40912143D01*
X201769649Y-40881009D01*
X201783787Y-40851116D01*
X201800787Y-40822753D01*
X201820485Y-40796193D01*
X201842692Y-40771692D01*
X201867193Y-40749485D01*
X201893753Y-40729787D01*
X201922116Y-40712787D01*
X201952009Y-40698649D01*
X201983143Y-40687509D01*
X202015219Y-40679475D01*
X202047929Y-40674623D01*
X202080956Y-40673000D01*
X203207044Y-40673000D01*
X203240071Y-40674623D01*
X203240071Y-40674623D01*
G37*
D11*
X202644000Y-41448000D03*
G04 #@! TD*
D10*
G04 #@! TO.C,C1*
G36*
X175175071Y-58184623D02*
X175207781Y-58189475D01*
X175239857Y-58197509D01*
X175270991Y-58208649D01*
X175300884Y-58222787D01*
X175329247Y-58239787D01*
X175355807Y-58259485D01*
X175380308Y-58281692D01*
X175402515Y-58306193D01*
X175422213Y-58332753D01*
X175439213Y-58361116D01*
X175453351Y-58391009D01*
X175464491Y-58422143D01*
X175472525Y-58454219D01*
X175477377Y-58486929D01*
X175479000Y-58519956D01*
X175479000Y-59646044D01*
X175477377Y-59679071D01*
X175472525Y-59711781D01*
X175464491Y-59743857D01*
X175453351Y-59774991D01*
X175439213Y-59804884D01*
X175422213Y-59833247D01*
X175402515Y-59859807D01*
X175380308Y-59884308D01*
X175355807Y-59906515D01*
X175329247Y-59926213D01*
X175300884Y-59943213D01*
X175270991Y-59957351D01*
X175239857Y-59968491D01*
X175207781Y-59976525D01*
X175175071Y-59981377D01*
X175142044Y-59983000D01*
X174265956Y-59983000D01*
X174232929Y-59981377D01*
X174200219Y-59976525D01*
X174168143Y-59968491D01*
X174137009Y-59957351D01*
X174107116Y-59943213D01*
X174078753Y-59926213D01*
X174052193Y-59906515D01*
X174027692Y-59884308D01*
X174005485Y-59859807D01*
X173985787Y-59833247D01*
X173968787Y-59804884D01*
X173954649Y-59774991D01*
X173943509Y-59743857D01*
X173935475Y-59711781D01*
X173930623Y-59679071D01*
X173929000Y-59646044D01*
X173929000Y-58519956D01*
X173930623Y-58486929D01*
X173935475Y-58454219D01*
X173943509Y-58422143D01*
X173954649Y-58391009D01*
X173968787Y-58361116D01*
X173985787Y-58332753D01*
X174005485Y-58306193D01*
X174027692Y-58281692D01*
X174052193Y-58259485D01*
X174078753Y-58239787D01*
X174107116Y-58222787D01*
X174137009Y-58208649D01*
X174168143Y-58197509D01*
X174200219Y-58189475D01*
X174232929Y-58184623D01*
X174265956Y-58183000D01*
X175142044Y-58183000D01*
X175175071Y-58184623D01*
X175175071Y-58184623D01*
G37*
D11*
X174704000Y-59083000D03*
D10*
G36*
X173125071Y-58184623D02*
X173157781Y-58189475D01*
X173189857Y-58197509D01*
X173220991Y-58208649D01*
X173250884Y-58222787D01*
X173279247Y-58239787D01*
X173305807Y-58259485D01*
X173330308Y-58281692D01*
X173352515Y-58306193D01*
X173372213Y-58332753D01*
X173389213Y-58361116D01*
X173403351Y-58391009D01*
X173414491Y-58422143D01*
X173422525Y-58454219D01*
X173427377Y-58486929D01*
X173429000Y-58519956D01*
X173429000Y-59646044D01*
X173427377Y-59679071D01*
X173422525Y-59711781D01*
X173414491Y-59743857D01*
X173403351Y-59774991D01*
X173389213Y-59804884D01*
X173372213Y-59833247D01*
X173352515Y-59859807D01*
X173330308Y-59884308D01*
X173305807Y-59906515D01*
X173279247Y-59926213D01*
X173250884Y-59943213D01*
X173220991Y-59957351D01*
X173189857Y-59968491D01*
X173157781Y-59976525D01*
X173125071Y-59981377D01*
X173092044Y-59983000D01*
X172215956Y-59983000D01*
X172182929Y-59981377D01*
X172150219Y-59976525D01*
X172118143Y-59968491D01*
X172087009Y-59957351D01*
X172057116Y-59943213D01*
X172028753Y-59926213D01*
X172002193Y-59906515D01*
X171977692Y-59884308D01*
X171955485Y-59859807D01*
X171935787Y-59833247D01*
X171918787Y-59804884D01*
X171904649Y-59774991D01*
X171893509Y-59743857D01*
X171885475Y-59711781D01*
X171880623Y-59679071D01*
X171879000Y-59646044D01*
X171879000Y-58519956D01*
X171880623Y-58486929D01*
X171885475Y-58454219D01*
X171893509Y-58422143D01*
X171904649Y-58391009D01*
X171918787Y-58361116D01*
X171935787Y-58332753D01*
X171955485Y-58306193D01*
X171977692Y-58281692D01*
X172002193Y-58259485D01*
X172028753Y-58239787D01*
X172057116Y-58222787D01*
X172087009Y-58208649D01*
X172118143Y-58197509D01*
X172150219Y-58189475D01*
X172182929Y-58184623D01*
X172215956Y-58183000D01*
X173092044Y-58183000D01*
X173125071Y-58184623D01*
X173125071Y-58184623D01*
G37*
D11*
X172654000Y-59083000D03*
G04 #@! TD*
D10*
G04 #@! TO.C,C2*
G36*
X168462071Y-42436623D02*
X168494781Y-42441475D01*
X168526857Y-42449509D01*
X168557991Y-42460649D01*
X168587884Y-42474787D01*
X168616247Y-42491787D01*
X168642807Y-42511485D01*
X168667308Y-42533692D01*
X168689515Y-42558193D01*
X168709213Y-42584753D01*
X168726213Y-42613116D01*
X168740351Y-42643009D01*
X168751491Y-42674143D01*
X168759525Y-42706219D01*
X168764377Y-42738929D01*
X168766000Y-42771956D01*
X168766000Y-43898044D01*
X168764377Y-43931071D01*
X168759525Y-43963781D01*
X168751491Y-43995857D01*
X168740351Y-44026991D01*
X168726213Y-44056884D01*
X168709213Y-44085247D01*
X168689515Y-44111807D01*
X168667308Y-44136308D01*
X168642807Y-44158515D01*
X168616247Y-44178213D01*
X168587884Y-44195213D01*
X168557991Y-44209351D01*
X168526857Y-44220491D01*
X168494781Y-44228525D01*
X168462071Y-44233377D01*
X168429044Y-44235000D01*
X167552956Y-44235000D01*
X167519929Y-44233377D01*
X167487219Y-44228525D01*
X167455143Y-44220491D01*
X167424009Y-44209351D01*
X167394116Y-44195213D01*
X167365753Y-44178213D01*
X167339193Y-44158515D01*
X167314692Y-44136308D01*
X167292485Y-44111807D01*
X167272787Y-44085247D01*
X167255787Y-44056884D01*
X167241649Y-44026991D01*
X167230509Y-43995857D01*
X167222475Y-43963781D01*
X167217623Y-43931071D01*
X167216000Y-43898044D01*
X167216000Y-42771956D01*
X167217623Y-42738929D01*
X167222475Y-42706219D01*
X167230509Y-42674143D01*
X167241649Y-42643009D01*
X167255787Y-42613116D01*
X167272787Y-42584753D01*
X167292485Y-42558193D01*
X167314692Y-42533692D01*
X167339193Y-42511485D01*
X167365753Y-42491787D01*
X167394116Y-42474787D01*
X167424009Y-42460649D01*
X167455143Y-42449509D01*
X167487219Y-42441475D01*
X167519929Y-42436623D01*
X167552956Y-42435000D01*
X168429044Y-42435000D01*
X168462071Y-42436623D01*
X168462071Y-42436623D01*
G37*
D11*
X167991000Y-43335000D03*
D10*
G36*
X166412071Y-42436623D02*
X166444781Y-42441475D01*
X166476857Y-42449509D01*
X166507991Y-42460649D01*
X166537884Y-42474787D01*
X166566247Y-42491787D01*
X166592807Y-42511485D01*
X166617308Y-42533692D01*
X166639515Y-42558193D01*
X166659213Y-42584753D01*
X166676213Y-42613116D01*
X166690351Y-42643009D01*
X166701491Y-42674143D01*
X166709525Y-42706219D01*
X166714377Y-42738929D01*
X166716000Y-42771956D01*
X166716000Y-43898044D01*
X166714377Y-43931071D01*
X166709525Y-43963781D01*
X166701491Y-43995857D01*
X166690351Y-44026991D01*
X166676213Y-44056884D01*
X166659213Y-44085247D01*
X166639515Y-44111807D01*
X166617308Y-44136308D01*
X166592807Y-44158515D01*
X166566247Y-44178213D01*
X166537884Y-44195213D01*
X166507991Y-44209351D01*
X166476857Y-44220491D01*
X166444781Y-44228525D01*
X166412071Y-44233377D01*
X166379044Y-44235000D01*
X165502956Y-44235000D01*
X165469929Y-44233377D01*
X165437219Y-44228525D01*
X165405143Y-44220491D01*
X165374009Y-44209351D01*
X165344116Y-44195213D01*
X165315753Y-44178213D01*
X165289193Y-44158515D01*
X165264692Y-44136308D01*
X165242485Y-44111807D01*
X165222787Y-44085247D01*
X165205787Y-44056884D01*
X165191649Y-44026991D01*
X165180509Y-43995857D01*
X165172475Y-43963781D01*
X165167623Y-43931071D01*
X165166000Y-43898044D01*
X165166000Y-42771956D01*
X165167623Y-42738929D01*
X165172475Y-42706219D01*
X165180509Y-42674143D01*
X165191649Y-42643009D01*
X165205787Y-42613116D01*
X165222787Y-42584753D01*
X165242485Y-42558193D01*
X165264692Y-42533692D01*
X165289193Y-42511485D01*
X165315753Y-42491787D01*
X165344116Y-42474787D01*
X165374009Y-42460649D01*
X165405143Y-42449509D01*
X165437219Y-42441475D01*
X165469929Y-42436623D01*
X165502956Y-42435000D01*
X166379044Y-42435000D01*
X166412071Y-42436623D01*
X166412071Y-42436623D01*
G37*
D11*
X165941000Y-43335000D03*
G04 #@! TD*
D10*
G04 #@! TO.C,C3*
G36*
X168061071Y-51215623D02*
X168093781Y-51220475D01*
X168125857Y-51228509D01*
X168156991Y-51239649D01*
X168186884Y-51253787D01*
X168215247Y-51270787D01*
X168241807Y-51290485D01*
X168266308Y-51312692D01*
X168288515Y-51337193D01*
X168308213Y-51363753D01*
X168325213Y-51392116D01*
X168339351Y-51422009D01*
X168350491Y-51453143D01*
X168358525Y-51485219D01*
X168363377Y-51517929D01*
X168365000Y-51550956D01*
X168365000Y-52427044D01*
X168363377Y-52460071D01*
X168358525Y-52492781D01*
X168350491Y-52524857D01*
X168339351Y-52555991D01*
X168325213Y-52585884D01*
X168308213Y-52614247D01*
X168288515Y-52640807D01*
X168266308Y-52665308D01*
X168241807Y-52687515D01*
X168215247Y-52707213D01*
X168186884Y-52724213D01*
X168156991Y-52738351D01*
X168125857Y-52749491D01*
X168093781Y-52757525D01*
X168061071Y-52762377D01*
X168028044Y-52764000D01*
X166901956Y-52764000D01*
X166868929Y-52762377D01*
X166836219Y-52757525D01*
X166804143Y-52749491D01*
X166773009Y-52738351D01*
X166743116Y-52724213D01*
X166714753Y-52707213D01*
X166688193Y-52687515D01*
X166663692Y-52665308D01*
X166641485Y-52640807D01*
X166621787Y-52614247D01*
X166604787Y-52585884D01*
X166590649Y-52555991D01*
X166579509Y-52524857D01*
X166571475Y-52492781D01*
X166566623Y-52460071D01*
X166565000Y-52427044D01*
X166565000Y-51550956D01*
X166566623Y-51517929D01*
X166571475Y-51485219D01*
X166579509Y-51453143D01*
X166590649Y-51422009D01*
X166604787Y-51392116D01*
X166621787Y-51363753D01*
X166641485Y-51337193D01*
X166663692Y-51312692D01*
X166688193Y-51290485D01*
X166714753Y-51270787D01*
X166743116Y-51253787D01*
X166773009Y-51239649D01*
X166804143Y-51228509D01*
X166836219Y-51220475D01*
X166868929Y-51215623D01*
X166901956Y-51214000D01*
X168028044Y-51214000D01*
X168061071Y-51215623D01*
X168061071Y-51215623D01*
G37*
D11*
X167465000Y-51989000D03*
D10*
G36*
X168061071Y-49165623D02*
X168093781Y-49170475D01*
X168125857Y-49178509D01*
X168156991Y-49189649D01*
X168186884Y-49203787D01*
X168215247Y-49220787D01*
X168241807Y-49240485D01*
X168266308Y-49262692D01*
X168288515Y-49287193D01*
X168308213Y-49313753D01*
X168325213Y-49342116D01*
X168339351Y-49372009D01*
X168350491Y-49403143D01*
X168358525Y-49435219D01*
X168363377Y-49467929D01*
X168365000Y-49500956D01*
X168365000Y-50377044D01*
X168363377Y-50410071D01*
X168358525Y-50442781D01*
X168350491Y-50474857D01*
X168339351Y-50505991D01*
X168325213Y-50535884D01*
X168308213Y-50564247D01*
X168288515Y-50590807D01*
X168266308Y-50615308D01*
X168241807Y-50637515D01*
X168215247Y-50657213D01*
X168186884Y-50674213D01*
X168156991Y-50688351D01*
X168125857Y-50699491D01*
X168093781Y-50707525D01*
X168061071Y-50712377D01*
X168028044Y-50714000D01*
X166901956Y-50714000D01*
X166868929Y-50712377D01*
X166836219Y-50707525D01*
X166804143Y-50699491D01*
X166773009Y-50688351D01*
X166743116Y-50674213D01*
X166714753Y-50657213D01*
X166688193Y-50637515D01*
X166663692Y-50615308D01*
X166641485Y-50590807D01*
X166621787Y-50564247D01*
X166604787Y-50535884D01*
X166590649Y-50505991D01*
X166579509Y-50474857D01*
X166571475Y-50442781D01*
X166566623Y-50410071D01*
X166565000Y-50377044D01*
X166565000Y-49500956D01*
X166566623Y-49467929D01*
X166571475Y-49435219D01*
X166579509Y-49403143D01*
X166590649Y-49372009D01*
X166604787Y-49342116D01*
X166621787Y-49313753D01*
X166641485Y-49287193D01*
X166663692Y-49262692D01*
X166688193Y-49240485D01*
X166714753Y-49220787D01*
X166743116Y-49203787D01*
X166773009Y-49189649D01*
X166804143Y-49178509D01*
X166836219Y-49170475D01*
X166868929Y-49165623D01*
X166901956Y-49164000D01*
X168028044Y-49164000D01*
X168061071Y-49165623D01*
X168061071Y-49165623D01*
G37*
D11*
X167465000Y-49939000D03*
G04 #@! TD*
D10*
G04 #@! TO.C,C5*
G36*
X181035071Y-58819623D02*
X181067781Y-58824475D01*
X181099857Y-58832509D01*
X181130991Y-58843649D01*
X181160884Y-58857787D01*
X181189247Y-58874787D01*
X181215807Y-58894485D01*
X181240308Y-58916692D01*
X181262515Y-58941193D01*
X181282213Y-58967753D01*
X181299213Y-58996116D01*
X181313351Y-59026009D01*
X181324491Y-59057143D01*
X181332525Y-59089219D01*
X181337377Y-59121929D01*
X181339000Y-59154956D01*
X181339000Y-60281044D01*
X181337377Y-60314071D01*
X181332525Y-60346781D01*
X181324491Y-60378857D01*
X181313351Y-60409991D01*
X181299213Y-60439884D01*
X181282213Y-60468247D01*
X181262515Y-60494807D01*
X181240308Y-60519308D01*
X181215807Y-60541515D01*
X181189247Y-60561213D01*
X181160884Y-60578213D01*
X181130991Y-60592351D01*
X181099857Y-60603491D01*
X181067781Y-60611525D01*
X181035071Y-60616377D01*
X181002044Y-60618000D01*
X180125956Y-60618000D01*
X180092929Y-60616377D01*
X180060219Y-60611525D01*
X180028143Y-60603491D01*
X179997009Y-60592351D01*
X179967116Y-60578213D01*
X179938753Y-60561213D01*
X179912193Y-60541515D01*
X179887692Y-60519308D01*
X179865485Y-60494807D01*
X179845787Y-60468247D01*
X179828787Y-60439884D01*
X179814649Y-60409991D01*
X179803509Y-60378857D01*
X179795475Y-60346781D01*
X179790623Y-60314071D01*
X179789000Y-60281044D01*
X179789000Y-59154956D01*
X179790623Y-59121929D01*
X179795475Y-59089219D01*
X179803509Y-59057143D01*
X179814649Y-59026009D01*
X179828787Y-58996116D01*
X179845787Y-58967753D01*
X179865485Y-58941193D01*
X179887692Y-58916692D01*
X179912193Y-58894485D01*
X179938753Y-58874787D01*
X179967116Y-58857787D01*
X179997009Y-58843649D01*
X180028143Y-58832509D01*
X180060219Y-58824475D01*
X180092929Y-58819623D01*
X180125956Y-58818000D01*
X181002044Y-58818000D01*
X181035071Y-58819623D01*
X181035071Y-58819623D01*
G37*
D11*
X180564000Y-59718000D03*
D10*
G36*
X178985071Y-58819623D02*
X179017781Y-58824475D01*
X179049857Y-58832509D01*
X179080991Y-58843649D01*
X179110884Y-58857787D01*
X179139247Y-58874787D01*
X179165807Y-58894485D01*
X179190308Y-58916692D01*
X179212515Y-58941193D01*
X179232213Y-58967753D01*
X179249213Y-58996116D01*
X179263351Y-59026009D01*
X179274491Y-59057143D01*
X179282525Y-59089219D01*
X179287377Y-59121929D01*
X179289000Y-59154956D01*
X179289000Y-60281044D01*
X179287377Y-60314071D01*
X179282525Y-60346781D01*
X179274491Y-60378857D01*
X179263351Y-60409991D01*
X179249213Y-60439884D01*
X179232213Y-60468247D01*
X179212515Y-60494807D01*
X179190308Y-60519308D01*
X179165807Y-60541515D01*
X179139247Y-60561213D01*
X179110884Y-60578213D01*
X179080991Y-60592351D01*
X179049857Y-60603491D01*
X179017781Y-60611525D01*
X178985071Y-60616377D01*
X178952044Y-60618000D01*
X178075956Y-60618000D01*
X178042929Y-60616377D01*
X178010219Y-60611525D01*
X177978143Y-60603491D01*
X177947009Y-60592351D01*
X177917116Y-60578213D01*
X177888753Y-60561213D01*
X177862193Y-60541515D01*
X177837692Y-60519308D01*
X177815485Y-60494807D01*
X177795787Y-60468247D01*
X177778787Y-60439884D01*
X177764649Y-60409991D01*
X177753509Y-60378857D01*
X177745475Y-60346781D01*
X177740623Y-60314071D01*
X177739000Y-60281044D01*
X177739000Y-59154956D01*
X177740623Y-59121929D01*
X177745475Y-59089219D01*
X177753509Y-59057143D01*
X177764649Y-59026009D01*
X177778787Y-58996116D01*
X177795787Y-58967753D01*
X177815485Y-58941193D01*
X177837692Y-58916692D01*
X177862193Y-58894485D01*
X177888753Y-58874787D01*
X177917116Y-58857787D01*
X177947009Y-58843649D01*
X177978143Y-58832509D01*
X178010219Y-58824475D01*
X178042929Y-58819623D01*
X178075956Y-58818000D01*
X178952044Y-58818000D01*
X178985071Y-58819623D01*
X178985071Y-58819623D01*
G37*
D11*
X178514000Y-59718000D03*
G04 #@! TD*
D10*
G04 #@! TO.C,C6*
G36*
X172254071Y-53485623D02*
X172286781Y-53490475D01*
X172318857Y-53498509D01*
X172349991Y-53509649D01*
X172379884Y-53523787D01*
X172408247Y-53540787D01*
X172434807Y-53560485D01*
X172459308Y-53582692D01*
X172481515Y-53607193D01*
X172501213Y-53633753D01*
X172518213Y-53662116D01*
X172532351Y-53692009D01*
X172543491Y-53723143D01*
X172551525Y-53755219D01*
X172556377Y-53787929D01*
X172558000Y-53820956D01*
X172558000Y-54947044D01*
X172556377Y-54980071D01*
X172551525Y-55012781D01*
X172543491Y-55044857D01*
X172532351Y-55075991D01*
X172518213Y-55105884D01*
X172501213Y-55134247D01*
X172481515Y-55160807D01*
X172459308Y-55185308D01*
X172434807Y-55207515D01*
X172408247Y-55227213D01*
X172379884Y-55244213D01*
X172349991Y-55258351D01*
X172318857Y-55269491D01*
X172286781Y-55277525D01*
X172254071Y-55282377D01*
X172221044Y-55284000D01*
X171344956Y-55284000D01*
X171311929Y-55282377D01*
X171279219Y-55277525D01*
X171247143Y-55269491D01*
X171216009Y-55258351D01*
X171186116Y-55244213D01*
X171157753Y-55227213D01*
X171131193Y-55207515D01*
X171106692Y-55185308D01*
X171084485Y-55160807D01*
X171064787Y-55134247D01*
X171047787Y-55105884D01*
X171033649Y-55075991D01*
X171022509Y-55044857D01*
X171014475Y-55012781D01*
X171009623Y-54980071D01*
X171008000Y-54947044D01*
X171008000Y-53820956D01*
X171009623Y-53787929D01*
X171014475Y-53755219D01*
X171022509Y-53723143D01*
X171033649Y-53692009D01*
X171047787Y-53662116D01*
X171064787Y-53633753D01*
X171084485Y-53607193D01*
X171106692Y-53582692D01*
X171131193Y-53560485D01*
X171157753Y-53540787D01*
X171186116Y-53523787D01*
X171216009Y-53509649D01*
X171247143Y-53498509D01*
X171279219Y-53490475D01*
X171311929Y-53485623D01*
X171344956Y-53484000D01*
X172221044Y-53484000D01*
X172254071Y-53485623D01*
X172254071Y-53485623D01*
G37*
D11*
X171783000Y-54384000D03*
D10*
G36*
X170204071Y-53485623D02*
X170236781Y-53490475D01*
X170268857Y-53498509D01*
X170299991Y-53509649D01*
X170329884Y-53523787D01*
X170358247Y-53540787D01*
X170384807Y-53560485D01*
X170409308Y-53582692D01*
X170431515Y-53607193D01*
X170451213Y-53633753D01*
X170468213Y-53662116D01*
X170482351Y-53692009D01*
X170493491Y-53723143D01*
X170501525Y-53755219D01*
X170506377Y-53787929D01*
X170508000Y-53820956D01*
X170508000Y-54947044D01*
X170506377Y-54980071D01*
X170501525Y-55012781D01*
X170493491Y-55044857D01*
X170482351Y-55075991D01*
X170468213Y-55105884D01*
X170451213Y-55134247D01*
X170431515Y-55160807D01*
X170409308Y-55185308D01*
X170384807Y-55207515D01*
X170358247Y-55227213D01*
X170329884Y-55244213D01*
X170299991Y-55258351D01*
X170268857Y-55269491D01*
X170236781Y-55277525D01*
X170204071Y-55282377D01*
X170171044Y-55284000D01*
X169294956Y-55284000D01*
X169261929Y-55282377D01*
X169229219Y-55277525D01*
X169197143Y-55269491D01*
X169166009Y-55258351D01*
X169136116Y-55244213D01*
X169107753Y-55227213D01*
X169081193Y-55207515D01*
X169056692Y-55185308D01*
X169034485Y-55160807D01*
X169014787Y-55134247D01*
X168997787Y-55105884D01*
X168983649Y-55075991D01*
X168972509Y-55044857D01*
X168964475Y-55012781D01*
X168959623Y-54980071D01*
X168958000Y-54947044D01*
X168958000Y-53820956D01*
X168959623Y-53787929D01*
X168964475Y-53755219D01*
X168972509Y-53723143D01*
X168983649Y-53692009D01*
X168997787Y-53662116D01*
X169014787Y-53633753D01*
X169034485Y-53607193D01*
X169056692Y-53582692D01*
X169081193Y-53560485D01*
X169107753Y-53540787D01*
X169136116Y-53523787D01*
X169166009Y-53509649D01*
X169197143Y-53498509D01*
X169229219Y-53490475D01*
X169261929Y-53485623D01*
X169294956Y-53484000D01*
X170171044Y-53484000D01*
X170204071Y-53485623D01*
X170204071Y-53485623D01*
G37*
D11*
X169733000Y-54384000D03*
G04 #@! TD*
D10*
G04 #@! TO.C,C7*
G36*
X162600071Y-47269623D02*
X162632781Y-47274475D01*
X162664857Y-47282509D01*
X162695991Y-47293649D01*
X162725884Y-47307787D01*
X162754247Y-47324787D01*
X162780807Y-47344485D01*
X162805308Y-47366692D01*
X162827515Y-47391193D01*
X162847213Y-47417753D01*
X162864213Y-47446116D01*
X162878351Y-47476009D01*
X162889491Y-47507143D01*
X162897525Y-47539219D01*
X162902377Y-47571929D01*
X162904000Y-47604956D01*
X162904000Y-48481044D01*
X162902377Y-48514071D01*
X162897525Y-48546781D01*
X162889491Y-48578857D01*
X162878351Y-48609991D01*
X162864213Y-48639884D01*
X162847213Y-48668247D01*
X162827515Y-48694807D01*
X162805308Y-48719308D01*
X162780807Y-48741515D01*
X162754247Y-48761213D01*
X162725884Y-48778213D01*
X162695991Y-48792351D01*
X162664857Y-48803491D01*
X162632781Y-48811525D01*
X162600071Y-48816377D01*
X162567044Y-48818000D01*
X161440956Y-48818000D01*
X161407929Y-48816377D01*
X161375219Y-48811525D01*
X161343143Y-48803491D01*
X161312009Y-48792351D01*
X161282116Y-48778213D01*
X161253753Y-48761213D01*
X161227193Y-48741515D01*
X161202692Y-48719308D01*
X161180485Y-48694807D01*
X161160787Y-48668247D01*
X161143787Y-48639884D01*
X161129649Y-48609991D01*
X161118509Y-48578857D01*
X161110475Y-48546781D01*
X161105623Y-48514071D01*
X161104000Y-48481044D01*
X161104000Y-47604956D01*
X161105623Y-47571929D01*
X161110475Y-47539219D01*
X161118509Y-47507143D01*
X161129649Y-47476009D01*
X161143787Y-47446116D01*
X161160787Y-47417753D01*
X161180485Y-47391193D01*
X161202692Y-47366692D01*
X161227193Y-47344485D01*
X161253753Y-47324787D01*
X161282116Y-47307787D01*
X161312009Y-47293649D01*
X161343143Y-47282509D01*
X161375219Y-47274475D01*
X161407929Y-47269623D01*
X161440956Y-47268000D01*
X162567044Y-47268000D01*
X162600071Y-47269623D01*
X162600071Y-47269623D01*
G37*
D11*
X162004000Y-48043000D03*
D10*
G36*
X162600071Y-45219623D02*
X162632781Y-45224475D01*
X162664857Y-45232509D01*
X162695991Y-45243649D01*
X162725884Y-45257787D01*
X162754247Y-45274787D01*
X162780807Y-45294485D01*
X162805308Y-45316692D01*
X162827515Y-45341193D01*
X162847213Y-45367753D01*
X162864213Y-45396116D01*
X162878351Y-45426009D01*
X162889491Y-45457143D01*
X162897525Y-45489219D01*
X162902377Y-45521929D01*
X162904000Y-45554956D01*
X162904000Y-46431044D01*
X162902377Y-46464071D01*
X162897525Y-46496781D01*
X162889491Y-46528857D01*
X162878351Y-46559991D01*
X162864213Y-46589884D01*
X162847213Y-46618247D01*
X162827515Y-46644807D01*
X162805308Y-46669308D01*
X162780807Y-46691515D01*
X162754247Y-46711213D01*
X162725884Y-46728213D01*
X162695991Y-46742351D01*
X162664857Y-46753491D01*
X162632781Y-46761525D01*
X162600071Y-46766377D01*
X162567044Y-46768000D01*
X161440956Y-46768000D01*
X161407929Y-46766377D01*
X161375219Y-46761525D01*
X161343143Y-46753491D01*
X161312009Y-46742351D01*
X161282116Y-46728213D01*
X161253753Y-46711213D01*
X161227193Y-46691515D01*
X161202692Y-46669308D01*
X161180485Y-46644807D01*
X161160787Y-46618247D01*
X161143787Y-46589884D01*
X161129649Y-46559991D01*
X161118509Y-46528857D01*
X161110475Y-46496781D01*
X161105623Y-46464071D01*
X161104000Y-46431044D01*
X161104000Y-45554956D01*
X161105623Y-45521929D01*
X161110475Y-45489219D01*
X161118509Y-45457143D01*
X161129649Y-45426009D01*
X161143787Y-45396116D01*
X161160787Y-45367753D01*
X161180485Y-45341193D01*
X161202692Y-45316692D01*
X161227193Y-45294485D01*
X161253753Y-45274787D01*
X161282116Y-45257787D01*
X161312009Y-45243649D01*
X161343143Y-45232509D01*
X161375219Y-45224475D01*
X161407929Y-45219623D01*
X161440956Y-45218000D01*
X162567044Y-45218000D01*
X162600071Y-45219623D01*
X162600071Y-45219623D01*
G37*
D11*
X162004000Y-45993000D03*
G04 #@! TD*
D10*
G04 #@! TO.C,C8*
G36*
X164380071Y-53739623D02*
X164412781Y-53744475D01*
X164444857Y-53752509D01*
X164475991Y-53763649D01*
X164505884Y-53777787D01*
X164534247Y-53794787D01*
X164560807Y-53814485D01*
X164585308Y-53836692D01*
X164607515Y-53861193D01*
X164627213Y-53887753D01*
X164644213Y-53916116D01*
X164658351Y-53946009D01*
X164669491Y-53977143D01*
X164677525Y-54009219D01*
X164682377Y-54041929D01*
X164684000Y-54074956D01*
X164684000Y-55201044D01*
X164682377Y-55234071D01*
X164677525Y-55266781D01*
X164669491Y-55298857D01*
X164658351Y-55329991D01*
X164644213Y-55359884D01*
X164627213Y-55388247D01*
X164607515Y-55414807D01*
X164585308Y-55439308D01*
X164560807Y-55461515D01*
X164534247Y-55481213D01*
X164505884Y-55498213D01*
X164475991Y-55512351D01*
X164444857Y-55523491D01*
X164412781Y-55531525D01*
X164380071Y-55536377D01*
X164347044Y-55538000D01*
X163470956Y-55538000D01*
X163437929Y-55536377D01*
X163405219Y-55531525D01*
X163373143Y-55523491D01*
X163342009Y-55512351D01*
X163312116Y-55498213D01*
X163283753Y-55481213D01*
X163257193Y-55461515D01*
X163232692Y-55439308D01*
X163210485Y-55414807D01*
X163190787Y-55388247D01*
X163173787Y-55359884D01*
X163159649Y-55329991D01*
X163148509Y-55298857D01*
X163140475Y-55266781D01*
X163135623Y-55234071D01*
X163134000Y-55201044D01*
X163134000Y-54074956D01*
X163135623Y-54041929D01*
X163140475Y-54009219D01*
X163148509Y-53977143D01*
X163159649Y-53946009D01*
X163173787Y-53916116D01*
X163190787Y-53887753D01*
X163210485Y-53861193D01*
X163232692Y-53836692D01*
X163257193Y-53814485D01*
X163283753Y-53794787D01*
X163312116Y-53777787D01*
X163342009Y-53763649D01*
X163373143Y-53752509D01*
X163405219Y-53744475D01*
X163437929Y-53739623D01*
X163470956Y-53738000D01*
X164347044Y-53738000D01*
X164380071Y-53739623D01*
X164380071Y-53739623D01*
G37*
D11*
X163909000Y-54638000D03*
D10*
G36*
X162330071Y-53739623D02*
X162362781Y-53744475D01*
X162394857Y-53752509D01*
X162425991Y-53763649D01*
X162455884Y-53777787D01*
X162484247Y-53794787D01*
X162510807Y-53814485D01*
X162535308Y-53836692D01*
X162557515Y-53861193D01*
X162577213Y-53887753D01*
X162594213Y-53916116D01*
X162608351Y-53946009D01*
X162619491Y-53977143D01*
X162627525Y-54009219D01*
X162632377Y-54041929D01*
X162634000Y-54074956D01*
X162634000Y-55201044D01*
X162632377Y-55234071D01*
X162627525Y-55266781D01*
X162619491Y-55298857D01*
X162608351Y-55329991D01*
X162594213Y-55359884D01*
X162577213Y-55388247D01*
X162557515Y-55414807D01*
X162535308Y-55439308D01*
X162510807Y-55461515D01*
X162484247Y-55481213D01*
X162455884Y-55498213D01*
X162425991Y-55512351D01*
X162394857Y-55523491D01*
X162362781Y-55531525D01*
X162330071Y-55536377D01*
X162297044Y-55538000D01*
X161420956Y-55538000D01*
X161387929Y-55536377D01*
X161355219Y-55531525D01*
X161323143Y-55523491D01*
X161292009Y-55512351D01*
X161262116Y-55498213D01*
X161233753Y-55481213D01*
X161207193Y-55461515D01*
X161182692Y-55439308D01*
X161160485Y-55414807D01*
X161140787Y-55388247D01*
X161123787Y-55359884D01*
X161109649Y-55329991D01*
X161098509Y-55298857D01*
X161090475Y-55266781D01*
X161085623Y-55234071D01*
X161084000Y-55201044D01*
X161084000Y-54074956D01*
X161085623Y-54041929D01*
X161090475Y-54009219D01*
X161098509Y-53977143D01*
X161109649Y-53946009D01*
X161123787Y-53916116D01*
X161140787Y-53887753D01*
X161160485Y-53861193D01*
X161182692Y-53836692D01*
X161207193Y-53814485D01*
X161233753Y-53794787D01*
X161262116Y-53777787D01*
X161292009Y-53763649D01*
X161323143Y-53752509D01*
X161355219Y-53744475D01*
X161387929Y-53739623D01*
X161420956Y-53738000D01*
X162297044Y-53738000D01*
X162330071Y-53739623D01*
X162330071Y-53739623D01*
G37*
D11*
X161859000Y-54638000D03*
G04 #@! TD*
D10*
G04 #@! TO.C,C9*
G36*
X195620071Y-39894623D02*
X195652781Y-39899475D01*
X195684857Y-39907509D01*
X195715991Y-39918649D01*
X195745884Y-39932787D01*
X195774247Y-39949787D01*
X195800807Y-39969485D01*
X195825308Y-39991692D01*
X195847515Y-40016193D01*
X195867213Y-40042753D01*
X195884213Y-40071116D01*
X195898351Y-40101009D01*
X195909491Y-40132143D01*
X195917525Y-40164219D01*
X195922377Y-40196929D01*
X195924000Y-40229956D01*
X195924000Y-41106044D01*
X195922377Y-41139071D01*
X195917525Y-41171781D01*
X195909491Y-41203857D01*
X195898351Y-41234991D01*
X195884213Y-41264884D01*
X195867213Y-41293247D01*
X195847515Y-41319807D01*
X195825308Y-41344308D01*
X195800807Y-41366515D01*
X195774247Y-41386213D01*
X195745884Y-41403213D01*
X195715991Y-41417351D01*
X195684857Y-41428491D01*
X195652781Y-41436525D01*
X195620071Y-41441377D01*
X195587044Y-41443000D01*
X194460956Y-41443000D01*
X194427929Y-41441377D01*
X194395219Y-41436525D01*
X194363143Y-41428491D01*
X194332009Y-41417351D01*
X194302116Y-41403213D01*
X194273753Y-41386213D01*
X194247193Y-41366515D01*
X194222692Y-41344308D01*
X194200485Y-41319807D01*
X194180787Y-41293247D01*
X194163787Y-41264884D01*
X194149649Y-41234991D01*
X194138509Y-41203857D01*
X194130475Y-41171781D01*
X194125623Y-41139071D01*
X194124000Y-41106044D01*
X194124000Y-40229956D01*
X194125623Y-40196929D01*
X194130475Y-40164219D01*
X194138509Y-40132143D01*
X194149649Y-40101009D01*
X194163787Y-40071116D01*
X194180787Y-40042753D01*
X194200485Y-40016193D01*
X194222692Y-39991692D01*
X194247193Y-39969485D01*
X194273753Y-39949787D01*
X194302116Y-39932787D01*
X194332009Y-39918649D01*
X194363143Y-39907509D01*
X194395219Y-39899475D01*
X194427929Y-39894623D01*
X194460956Y-39893000D01*
X195587044Y-39893000D01*
X195620071Y-39894623D01*
X195620071Y-39894623D01*
G37*
D11*
X195024000Y-40668000D03*
D10*
G36*
X195620071Y-37844623D02*
X195652781Y-37849475D01*
X195684857Y-37857509D01*
X195715991Y-37868649D01*
X195745884Y-37882787D01*
X195774247Y-37899787D01*
X195800807Y-37919485D01*
X195825308Y-37941692D01*
X195847515Y-37966193D01*
X195867213Y-37992753D01*
X195884213Y-38021116D01*
X195898351Y-38051009D01*
X195909491Y-38082143D01*
X195917525Y-38114219D01*
X195922377Y-38146929D01*
X195924000Y-38179956D01*
X195924000Y-39056044D01*
X195922377Y-39089071D01*
X195917525Y-39121781D01*
X195909491Y-39153857D01*
X195898351Y-39184991D01*
X195884213Y-39214884D01*
X195867213Y-39243247D01*
X195847515Y-39269807D01*
X195825308Y-39294308D01*
X195800807Y-39316515D01*
X195774247Y-39336213D01*
X195745884Y-39353213D01*
X195715991Y-39367351D01*
X195684857Y-39378491D01*
X195652781Y-39386525D01*
X195620071Y-39391377D01*
X195587044Y-39393000D01*
X194460956Y-39393000D01*
X194427929Y-39391377D01*
X194395219Y-39386525D01*
X194363143Y-39378491D01*
X194332009Y-39367351D01*
X194302116Y-39353213D01*
X194273753Y-39336213D01*
X194247193Y-39316515D01*
X194222692Y-39294308D01*
X194200485Y-39269807D01*
X194180787Y-39243247D01*
X194163787Y-39214884D01*
X194149649Y-39184991D01*
X194138509Y-39153857D01*
X194130475Y-39121781D01*
X194125623Y-39089071D01*
X194124000Y-39056044D01*
X194124000Y-38179956D01*
X194125623Y-38146929D01*
X194130475Y-38114219D01*
X194138509Y-38082143D01*
X194149649Y-38051009D01*
X194163787Y-38021116D01*
X194180787Y-37992753D01*
X194200485Y-37966193D01*
X194222692Y-37941692D01*
X194247193Y-37919485D01*
X194273753Y-37899787D01*
X194302116Y-37882787D01*
X194332009Y-37868649D01*
X194363143Y-37857509D01*
X194395219Y-37849475D01*
X194427929Y-37844623D01*
X194460956Y-37843000D01*
X195587044Y-37843000D01*
X195620071Y-37844623D01*
X195620071Y-37844623D01*
G37*
D11*
X195024000Y-38618000D03*
G04 #@! TD*
D10*
G04 #@! TO.C,C10*
G36*
X208320071Y-40674623D02*
X208352781Y-40679475D01*
X208384857Y-40687509D01*
X208415991Y-40698649D01*
X208445884Y-40712787D01*
X208474247Y-40729787D01*
X208500807Y-40749485D01*
X208525308Y-40771692D01*
X208547515Y-40796193D01*
X208567213Y-40822753D01*
X208584213Y-40851116D01*
X208598351Y-40881009D01*
X208609491Y-40912143D01*
X208617525Y-40944219D01*
X208622377Y-40976929D01*
X208624000Y-41009956D01*
X208624000Y-41886044D01*
X208622377Y-41919071D01*
X208617525Y-41951781D01*
X208609491Y-41983857D01*
X208598351Y-42014991D01*
X208584213Y-42044884D01*
X208567213Y-42073247D01*
X208547515Y-42099807D01*
X208525308Y-42124308D01*
X208500807Y-42146515D01*
X208474247Y-42166213D01*
X208445884Y-42183213D01*
X208415991Y-42197351D01*
X208384857Y-42208491D01*
X208352781Y-42216525D01*
X208320071Y-42221377D01*
X208287044Y-42223000D01*
X207160956Y-42223000D01*
X207127929Y-42221377D01*
X207095219Y-42216525D01*
X207063143Y-42208491D01*
X207032009Y-42197351D01*
X207002116Y-42183213D01*
X206973753Y-42166213D01*
X206947193Y-42146515D01*
X206922692Y-42124308D01*
X206900485Y-42099807D01*
X206880787Y-42073247D01*
X206863787Y-42044884D01*
X206849649Y-42014991D01*
X206838509Y-41983857D01*
X206830475Y-41951781D01*
X206825623Y-41919071D01*
X206824000Y-41886044D01*
X206824000Y-41009956D01*
X206825623Y-40976929D01*
X206830475Y-40944219D01*
X206838509Y-40912143D01*
X206849649Y-40881009D01*
X206863787Y-40851116D01*
X206880787Y-40822753D01*
X206900485Y-40796193D01*
X206922692Y-40771692D01*
X206947193Y-40749485D01*
X206973753Y-40729787D01*
X207002116Y-40712787D01*
X207032009Y-40698649D01*
X207063143Y-40687509D01*
X207095219Y-40679475D01*
X207127929Y-40674623D01*
X207160956Y-40673000D01*
X208287044Y-40673000D01*
X208320071Y-40674623D01*
X208320071Y-40674623D01*
G37*
D11*
X207724000Y-41448000D03*
D10*
G36*
X208320071Y-38624623D02*
X208352781Y-38629475D01*
X208384857Y-38637509D01*
X208415991Y-38648649D01*
X208445884Y-38662787D01*
X208474247Y-38679787D01*
X208500807Y-38699485D01*
X208525308Y-38721692D01*
X208547515Y-38746193D01*
X208567213Y-38772753D01*
X208584213Y-38801116D01*
X208598351Y-38831009D01*
X208609491Y-38862143D01*
X208617525Y-38894219D01*
X208622377Y-38926929D01*
X208624000Y-38959956D01*
X208624000Y-39836044D01*
X208622377Y-39869071D01*
X208617525Y-39901781D01*
X208609491Y-39933857D01*
X208598351Y-39964991D01*
X208584213Y-39994884D01*
X208567213Y-40023247D01*
X208547515Y-40049807D01*
X208525308Y-40074308D01*
X208500807Y-40096515D01*
X208474247Y-40116213D01*
X208445884Y-40133213D01*
X208415991Y-40147351D01*
X208384857Y-40158491D01*
X208352781Y-40166525D01*
X208320071Y-40171377D01*
X208287044Y-40173000D01*
X207160956Y-40173000D01*
X207127929Y-40171377D01*
X207095219Y-40166525D01*
X207063143Y-40158491D01*
X207032009Y-40147351D01*
X207002116Y-40133213D01*
X206973753Y-40116213D01*
X206947193Y-40096515D01*
X206922692Y-40074308D01*
X206900485Y-40049807D01*
X206880787Y-40023247D01*
X206863787Y-39994884D01*
X206849649Y-39964991D01*
X206838509Y-39933857D01*
X206830475Y-39901781D01*
X206825623Y-39869071D01*
X206824000Y-39836044D01*
X206824000Y-38959956D01*
X206825623Y-38926929D01*
X206830475Y-38894219D01*
X206838509Y-38862143D01*
X206849649Y-38831009D01*
X206863787Y-38801116D01*
X206880787Y-38772753D01*
X206900485Y-38746193D01*
X206922692Y-38721692D01*
X206947193Y-38699485D01*
X206973753Y-38679787D01*
X207002116Y-38662787D01*
X207032009Y-38648649D01*
X207063143Y-38637509D01*
X207095219Y-38629475D01*
X207127929Y-38624623D01*
X207160956Y-38623000D01*
X208287044Y-38623000D01*
X208320071Y-38624623D01*
X208320071Y-38624623D01*
G37*
D11*
X207724000Y-39398000D03*
G04 #@! TD*
D12*
G04 #@! TO.C,J6*
X186769000Y-63528000D03*
D13*
X184229000Y-63528000D03*
X181689000Y-63528000D03*
X179149000Y-63528000D03*
X176609000Y-63528000D03*
X174069000Y-63528000D03*
G04 #@! TD*
D10*
G04 #@! TO.C,R1*
G36*
X184555071Y-44849623D02*
X184587781Y-44854475D01*
X184619857Y-44862509D01*
X184650991Y-44873649D01*
X184680884Y-44887787D01*
X184709247Y-44904787D01*
X184735807Y-44924485D01*
X184760308Y-44946692D01*
X184782515Y-44971193D01*
X184802213Y-44997753D01*
X184819213Y-45026116D01*
X184833351Y-45056009D01*
X184844491Y-45087143D01*
X184852525Y-45119219D01*
X184857377Y-45151929D01*
X184859000Y-45184956D01*
X184859000Y-46311044D01*
X184857377Y-46344071D01*
X184852525Y-46376781D01*
X184844491Y-46408857D01*
X184833351Y-46439991D01*
X184819213Y-46469884D01*
X184802213Y-46498247D01*
X184782515Y-46524807D01*
X184760308Y-46549308D01*
X184735807Y-46571515D01*
X184709247Y-46591213D01*
X184680884Y-46608213D01*
X184650991Y-46622351D01*
X184619857Y-46633491D01*
X184587781Y-46641525D01*
X184555071Y-46646377D01*
X184522044Y-46648000D01*
X183645956Y-46648000D01*
X183612929Y-46646377D01*
X183580219Y-46641525D01*
X183548143Y-46633491D01*
X183517009Y-46622351D01*
X183487116Y-46608213D01*
X183458753Y-46591213D01*
X183432193Y-46571515D01*
X183407692Y-46549308D01*
X183385485Y-46524807D01*
X183365787Y-46498247D01*
X183348787Y-46469884D01*
X183334649Y-46439991D01*
X183323509Y-46408857D01*
X183315475Y-46376781D01*
X183310623Y-46344071D01*
X183309000Y-46311044D01*
X183309000Y-45184956D01*
X183310623Y-45151929D01*
X183315475Y-45119219D01*
X183323509Y-45087143D01*
X183334649Y-45056009D01*
X183348787Y-45026116D01*
X183365787Y-44997753D01*
X183385485Y-44971193D01*
X183407692Y-44946692D01*
X183432193Y-44924485D01*
X183458753Y-44904787D01*
X183487116Y-44887787D01*
X183517009Y-44873649D01*
X183548143Y-44862509D01*
X183580219Y-44854475D01*
X183612929Y-44849623D01*
X183645956Y-44848000D01*
X184522044Y-44848000D01*
X184555071Y-44849623D01*
X184555071Y-44849623D01*
G37*
D11*
X184084000Y-45748000D03*
D10*
G36*
X186605071Y-44849623D02*
X186637781Y-44854475D01*
X186669857Y-44862509D01*
X186700991Y-44873649D01*
X186730884Y-44887787D01*
X186759247Y-44904787D01*
X186785807Y-44924485D01*
X186810308Y-44946692D01*
X186832515Y-44971193D01*
X186852213Y-44997753D01*
X186869213Y-45026116D01*
X186883351Y-45056009D01*
X186894491Y-45087143D01*
X186902525Y-45119219D01*
X186907377Y-45151929D01*
X186909000Y-45184956D01*
X186909000Y-46311044D01*
X186907377Y-46344071D01*
X186902525Y-46376781D01*
X186894491Y-46408857D01*
X186883351Y-46439991D01*
X186869213Y-46469884D01*
X186852213Y-46498247D01*
X186832515Y-46524807D01*
X186810308Y-46549308D01*
X186785807Y-46571515D01*
X186759247Y-46591213D01*
X186730884Y-46608213D01*
X186700991Y-46622351D01*
X186669857Y-46633491D01*
X186637781Y-46641525D01*
X186605071Y-46646377D01*
X186572044Y-46648000D01*
X185695956Y-46648000D01*
X185662929Y-46646377D01*
X185630219Y-46641525D01*
X185598143Y-46633491D01*
X185567009Y-46622351D01*
X185537116Y-46608213D01*
X185508753Y-46591213D01*
X185482193Y-46571515D01*
X185457692Y-46549308D01*
X185435485Y-46524807D01*
X185415787Y-46498247D01*
X185398787Y-46469884D01*
X185384649Y-46439991D01*
X185373509Y-46408857D01*
X185365475Y-46376781D01*
X185360623Y-46344071D01*
X185359000Y-46311044D01*
X185359000Y-45184956D01*
X185360623Y-45151929D01*
X185365475Y-45119219D01*
X185373509Y-45087143D01*
X185384649Y-45056009D01*
X185398787Y-45026116D01*
X185415787Y-44997753D01*
X185435485Y-44971193D01*
X185457692Y-44946692D01*
X185482193Y-44924485D01*
X185508753Y-44904787D01*
X185537116Y-44887787D01*
X185567009Y-44873649D01*
X185598143Y-44862509D01*
X185630219Y-44854475D01*
X185662929Y-44849623D01*
X185695956Y-44848000D01*
X186572044Y-44848000D01*
X186605071Y-44849623D01*
X186605071Y-44849623D01*
G37*
D11*
X186134000Y-45748000D03*
G04 #@! TD*
D10*
G04 #@! TO.C,R2*
G36*
X189018071Y-46754623D02*
X189050781Y-46759475D01*
X189082857Y-46767509D01*
X189113991Y-46778649D01*
X189143884Y-46792787D01*
X189172247Y-46809787D01*
X189198807Y-46829485D01*
X189223308Y-46851692D01*
X189245515Y-46876193D01*
X189265213Y-46902753D01*
X189282213Y-46931116D01*
X189296351Y-46961009D01*
X189307491Y-46992143D01*
X189315525Y-47024219D01*
X189320377Y-47056929D01*
X189322000Y-47089956D01*
X189322000Y-48216044D01*
X189320377Y-48249071D01*
X189315525Y-48281781D01*
X189307491Y-48313857D01*
X189296351Y-48344991D01*
X189282213Y-48374884D01*
X189265213Y-48403247D01*
X189245515Y-48429807D01*
X189223308Y-48454308D01*
X189198807Y-48476515D01*
X189172247Y-48496213D01*
X189143884Y-48513213D01*
X189113991Y-48527351D01*
X189082857Y-48538491D01*
X189050781Y-48546525D01*
X189018071Y-48551377D01*
X188985044Y-48553000D01*
X188108956Y-48553000D01*
X188075929Y-48551377D01*
X188043219Y-48546525D01*
X188011143Y-48538491D01*
X187980009Y-48527351D01*
X187950116Y-48513213D01*
X187921753Y-48496213D01*
X187895193Y-48476515D01*
X187870692Y-48454308D01*
X187848485Y-48429807D01*
X187828787Y-48403247D01*
X187811787Y-48374884D01*
X187797649Y-48344991D01*
X187786509Y-48313857D01*
X187778475Y-48281781D01*
X187773623Y-48249071D01*
X187772000Y-48216044D01*
X187772000Y-47089956D01*
X187773623Y-47056929D01*
X187778475Y-47024219D01*
X187786509Y-46992143D01*
X187797649Y-46961009D01*
X187811787Y-46931116D01*
X187828787Y-46902753D01*
X187848485Y-46876193D01*
X187870692Y-46851692D01*
X187895193Y-46829485D01*
X187921753Y-46809787D01*
X187950116Y-46792787D01*
X187980009Y-46778649D01*
X188011143Y-46767509D01*
X188043219Y-46759475D01*
X188075929Y-46754623D01*
X188108956Y-46753000D01*
X188985044Y-46753000D01*
X189018071Y-46754623D01*
X189018071Y-46754623D01*
G37*
D11*
X188547000Y-47653000D03*
D10*
G36*
X186968071Y-46754623D02*
X187000781Y-46759475D01*
X187032857Y-46767509D01*
X187063991Y-46778649D01*
X187093884Y-46792787D01*
X187122247Y-46809787D01*
X187148807Y-46829485D01*
X187173308Y-46851692D01*
X187195515Y-46876193D01*
X187215213Y-46902753D01*
X187232213Y-46931116D01*
X187246351Y-46961009D01*
X187257491Y-46992143D01*
X187265525Y-47024219D01*
X187270377Y-47056929D01*
X187272000Y-47089956D01*
X187272000Y-48216044D01*
X187270377Y-48249071D01*
X187265525Y-48281781D01*
X187257491Y-48313857D01*
X187246351Y-48344991D01*
X187232213Y-48374884D01*
X187215213Y-48403247D01*
X187195515Y-48429807D01*
X187173308Y-48454308D01*
X187148807Y-48476515D01*
X187122247Y-48496213D01*
X187093884Y-48513213D01*
X187063991Y-48527351D01*
X187032857Y-48538491D01*
X187000781Y-48546525D01*
X186968071Y-48551377D01*
X186935044Y-48553000D01*
X186058956Y-48553000D01*
X186025929Y-48551377D01*
X185993219Y-48546525D01*
X185961143Y-48538491D01*
X185930009Y-48527351D01*
X185900116Y-48513213D01*
X185871753Y-48496213D01*
X185845193Y-48476515D01*
X185820692Y-48454308D01*
X185798485Y-48429807D01*
X185778787Y-48403247D01*
X185761787Y-48374884D01*
X185747649Y-48344991D01*
X185736509Y-48313857D01*
X185728475Y-48281781D01*
X185723623Y-48249071D01*
X185722000Y-48216044D01*
X185722000Y-47089956D01*
X185723623Y-47056929D01*
X185728475Y-47024219D01*
X185736509Y-46992143D01*
X185747649Y-46961009D01*
X185761787Y-46931116D01*
X185778787Y-46902753D01*
X185798485Y-46876193D01*
X185820692Y-46851692D01*
X185845193Y-46829485D01*
X185871753Y-46809787D01*
X185900116Y-46792787D01*
X185930009Y-46778649D01*
X185961143Y-46767509D01*
X185993219Y-46759475D01*
X186025929Y-46754623D01*
X186058956Y-46753000D01*
X186935044Y-46753000D01*
X186968071Y-46754623D01*
X186968071Y-46754623D01*
G37*
D11*
X186497000Y-47653000D03*
G04 #@! TD*
D10*
G04 #@! TO.C,R3*
G36*
X167045071Y-60359623D02*
X167077781Y-60364475D01*
X167109857Y-60372509D01*
X167140991Y-60383649D01*
X167170884Y-60397787D01*
X167199247Y-60414787D01*
X167225807Y-60434485D01*
X167250308Y-60456692D01*
X167272515Y-60481193D01*
X167292213Y-60507753D01*
X167309213Y-60536116D01*
X167323351Y-60566009D01*
X167334491Y-60597143D01*
X167342525Y-60629219D01*
X167347377Y-60661929D01*
X167349000Y-60694956D01*
X167349000Y-61571044D01*
X167347377Y-61604071D01*
X167342525Y-61636781D01*
X167334491Y-61668857D01*
X167323351Y-61699991D01*
X167309213Y-61729884D01*
X167292213Y-61758247D01*
X167272515Y-61784807D01*
X167250308Y-61809308D01*
X167225807Y-61831515D01*
X167199247Y-61851213D01*
X167170884Y-61868213D01*
X167140991Y-61882351D01*
X167109857Y-61893491D01*
X167077781Y-61901525D01*
X167045071Y-61906377D01*
X167012044Y-61908000D01*
X165885956Y-61908000D01*
X165852929Y-61906377D01*
X165820219Y-61901525D01*
X165788143Y-61893491D01*
X165757009Y-61882351D01*
X165727116Y-61868213D01*
X165698753Y-61851213D01*
X165672193Y-61831515D01*
X165647692Y-61809308D01*
X165625485Y-61784807D01*
X165605787Y-61758247D01*
X165588787Y-61729884D01*
X165574649Y-61699991D01*
X165563509Y-61668857D01*
X165555475Y-61636781D01*
X165550623Y-61604071D01*
X165549000Y-61571044D01*
X165549000Y-60694956D01*
X165550623Y-60661929D01*
X165555475Y-60629219D01*
X165563509Y-60597143D01*
X165574649Y-60566009D01*
X165588787Y-60536116D01*
X165605787Y-60507753D01*
X165625485Y-60481193D01*
X165647692Y-60456692D01*
X165672193Y-60434485D01*
X165698753Y-60414787D01*
X165727116Y-60397787D01*
X165757009Y-60383649D01*
X165788143Y-60372509D01*
X165820219Y-60364475D01*
X165852929Y-60359623D01*
X165885956Y-60358000D01*
X167012044Y-60358000D01*
X167045071Y-60359623D01*
X167045071Y-60359623D01*
G37*
D11*
X166449000Y-61133000D03*
D10*
G36*
X167045071Y-58309623D02*
X167077781Y-58314475D01*
X167109857Y-58322509D01*
X167140991Y-58333649D01*
X167170884Y-58347787D01*
X167199247Y-58364787D01*
X167225807Y-58384485D01*
X167250308Y-58406692D01*
X167272515Y-58431193D01*
X167292213Y-58457753D01*
X167309213Y-58486116D01*
X167323351Y-58516009D01*
X167334491Y-58547143D01*
X167342525Y-58579219D01*
X167347377Y-58611929D01*
X167349000Y-58644956D01*
X167349000Y-59521044D01*
X167347377Y-59554071D01*
X167342525Y-59586781D01*
X167334491Y-59618857D01*
X167323351Y-59649991D01*
X167309213Y-59679884D01*
X167292213Y-59708247D01*
X167272515Y-59734807D01*
X167250308Y-59759308D01*
X167225807Y-59781515D01*
X167199247Y-59801213D01*
X167170884Y-59818213D01*
X167140991Y-59832351D01*
X167109857Y-59843491D01*
X167077781Y-59851525D01*
X167045071Y-59856377D01*
X167012044Y-59858000D01*
X165885956Y-59858000D01*
X165852929Y-59856377D01*
X165820219Y-59851525D01*
X165788143Y-59843491D01*
X165757009Y-59832351D01*
X165727116Y-59818213D01*
X165698753Y-59801213D01*
X165672193Y-59781515D01*
X165647692Y-59759308D01*
X165625485Y-59734807D01*
X165605787Y-59708247D01*
X165588787Y-59679884D01*
X165574649Y-59649991D01*
X165563509Y-59618857D01*
X165555475Y-59586781D01*
X165550623Y-59554071D01*
X165549000Y-59521044D01*
X165549000Y-58644956D01*
X165550623Y-58611929D01*
X165555475Y-58579219D01*
X165563509Y-58547143D01*
X165574649Y-58516009D01*
X165588787Y-58486116D01*
X165605787Y-58457753D01*
X165625485Y-58431193D01*
X165647692Y-58406692D01*
X165672193Y-58384485D01*
X165698753Y-58364787D01*
X165727116Y-58347787D01*
X165757009Y-58333649D01*
X165788143Y-58322509D01*
X165820219Y-58314475D01*
X165852929Y-58309623D01*
X165885956Y-58308000D01*
X167012044Y-58308000D01*
X167045071Y-58309623D01*
X167045071Y-58309623D01*
G37*
D11*
X166449000Y-59083000D03*
G04 #@! TD*
D10*
G04 #@! TO.C,R4*
G36*
X164505071Y-58309623D02*
X164537781Y-58314475D01*
X164569857Y-58322509D01*
X164600991Y-58333649D01*
X164630884Y-58347787D01*
X164659247Y-58364787D01*
X164685807Y-58384485D01*
X164710308Y-58406692D01*
X164732515Y-58431193D01*
X164752213Y-58457753D01*
X164769213Y-58486116D01*
X164783351Y-58516009D01*
X164794491Y-58547143D01*
X164802525Y-58579219D01*
X164807377Y-58611929D01*
X164809000Y-58644956D01*
X164809000Y-59521044D01*
X164807377Y-59554071D01*
X164802525Y-59586781D01*
X164794491Y-59618857D01*
X164783351Y-59649991D01*
X164769213Y-59679884D01*
X164752213Y-59708247D01*
X164732515Y-59734807D01*
X164710308Y-59759308D01*
X164685807Y-59781515D01*
X164659247Y-59801213D01*
X164630884Y-59818213D01*
X164600991Y-59832351D01*
X164569857Y-59843491D01*
X164537781Y-59851525D01*
X164505071Y-59856377D01*
X164472044Y-59858000D01*
X163345956Y-59858000D01*
X163312929Y-59856377D01*
X163280219Y-59851525D01*
X163248143Y-59843491D01*
X163217009Y-59832351D01*
X163187116Y-59818213D01*
X163158753Y-59801213D01*
X163132193Y-59781515D01*
X163107692Y-59759308D01*
X163085485Y-59734807D01*
X163065787Y-59708247D01*
X163048787Y-59679884D01*
X163034649Y-59649991D01*
X163023509Y-59618857D01*
X163015475Y-59586781D01*
X163010623Y-59554071D01*
X163009000Y-59521044D01*
X163009000Y-58644956D01*
X163010623Y-58611929D01*
X163015475Y-58579219D01*
X163023509Y-58547143D01*
X163034649Y-58516009D01*
X163048787Y-58486116D01*
X163065787Y-58457753D01*
X163085485Y-58431193D01*
X163107692Y-58406692D01*
X163132193Y-58384485D01*
X163158753Y-58364787D01*
X163187116Y-58347787D01*
X163217009Y-58333649D01*
X163248143Y-58322509D01*
X163280219Y-58314475D01*
X163312929Y-58309623D01*
X163345956Y-58308000D01*
X164472044Y-58308000D01*
X164505071Y-58309623D01*
X164505071Y-58309623D01*
G37*
D11*
X163909000Y-59083000D03*
D10*
G36*
X164505071Y-60359623D02*
X164537781Y-60364475D01*
X164569857Y-60372509D01*
X164600991Y-60383649D01*
X164630884Y-60397787D01*
X164659247Y-60414787D01*
X164685807Y-60434485D01*
X164710308Y-60456692D01*
X164732515Y-60481193D01*
X164752213Y-60507753D01*
X164769213Y-60536116D01*
X164783351Y-60566009D01*
X164794491Y-60597143D01*
X164802525Y-60629219D01*
X164807377Y-60661929D01*
X164809000Y-60694956D01*
X164809000Y-61571044D01*
X164807377Y-61604071D01*
X164802525Y-61636781D01*
X164794491Y-61668857D01*
X164783351Y-61699991D01*
X164769213Y-61729884D01*
X164752213Y-61758247D01*
X164732515Y-61784807D01*
X164710308Y-61809308D01*
X164685807Y-61831515D01*
X164659247Y-61851213D01*
X164630884Y-61868213D01*
X164600991Y-61882351D01*
X164569857Y-61893491D01*
X164537781Y-61901525D01*
X164505071Y-61906377D01*
X164472044Y-61908000D01*
X163345956Y-61908000D01*
X163312929Y-61906377D01*
X163280219Y-61901525D01*
X163248143Y-61893491D01*
X163217009Y-61882351D01*
X163187116Y-61868213D01*
X163158753Y-61851213D01*
X163132193Y-61831515D01*
X163107692Y-61809308D01*
X163085485Y-61784807D01*
X163065787Y-61758247D01*
X163048787Y-61729884D01*
X163034649Y-61699991D01*
X163023509Y-61668857D01*
X163015475Y-61636781D01*
X163010623Y-61604071D01*
X163009000Y-61571044D01*
X163009000Y-60694956D01*
X163010623Y-60661929D01*
X163015475Y-60629219D01*
X163023509Y-60597143D01*
X163034649Y-60566009D01*
X163048787Y-60536116D01*
X163065787Y-60507753D01*
X163085485Y-60481193D01*
X163107692Y-60456692D01*
X163132193Y-60434485D01*
X163158753Y-60414787D01*
X163187116Y-60397787D01*
X163217009Y-60383649D01*
X163248143Y-60372509D01*
X163280219Y-60364475D01*
X163312929Y-60359623D01*
X163345956Y-60358000D01*
X164472044Y-60358000D01*
X164505071Y-60359623D01*
X164505071Y-60359623D01*
G37*
D11*
X163909000Y-61133000D03*
G04 #@! TD*
D12*
G04 #@! TO.C,J2*
X137239000Y-45748000D03*
D13*
X139779000Y-45748000D03*
X142319000Y-45748000D03*
X144859000Y-45748000D03*
G04 #@! TD*
G04 #@! TO.C,J3*
X158194000Y-45748000D03*
X155654000Y-45748000D03*
X153114000Y-45748000D03*
D12*
X150574000Y-45748000D03*
G04 #@! TD*
G04 #@! TO.C,J4*
X143869000Y-63528000D03*
D13*
X141329000Y-63528000D03*
X138789000Y-63528000D03*
X136249000Y-63528000D03*
G04 #@! TD*
D10*
G04 #@! TO.C,C4*
G36*
X188000071Y-53229623D02*
X188032781Y-53234475D01*
X188064857Y-53242509D01*
X188095991Y-53253649D01*
X188125884Y-53267787D01*
X188154247Y-53284787D01*
X188180807Y-53304485D01*
X188205308Y-53326692D01*
X188227515Y-53351193D01*
X188247213Y-53377753D01*
X188264213Y-53406116D01*
X188278351Y-53436009D01*
X188289491Y-53467143D01*
X188297525Y-53499219D01*
X188302377Y-53531929D01*
X188304000Y-53564956D01*
X188304000Y-54441044D01*
X188302377Y-54474071D01*
X188297525Y-54506781D01*
X188289491Y-54538857D01*
X188278351Y-54569991D01*
X188264213Y-54599884D01*
X188247213Y-54628247D01*
X188227515Y-54654807D01*
X188205308Y-54679308D01*
X188180807Y-54701515D01*
X188154247Y-54721213D01*
X188125884Y-54738213D01*
X188095991Y-54752351D01*
X188064857Y-54763491D01*
X188032781Y-54771525D01*
X188000071Y-54776377D01*
X187967044Y-54778000D01*
X186840956Y-54778000D01*
X186807929Y-54776377D01*
X186775219Y-54771525D01*
X186743143Y-54763491D01*
X186712009Y-54752351D01*
X186682116Y-54738213D01*
X186653753Y-54721213D01*
X186627193Y-54701515D01*
X186602692Y-54679308D01*
X186580485Y-54654807D01*
X186560787Y-54628247D01*
X186543787Y-54599884D01*
X186529649Y-54569991D01*
X186518509Y-54538857D01*
X186510475Y-54506781D01*
X186505623Y-54474071D01*
X186504000Y-54441044D01*
X186504000Y-53564956D01*
X186505623Y-53531929D01*
X186510475Y-53499219D01*
X186518509Y-53467143D01*
X186529649Y-53436009D01*
X186543787Y-53406116D01*
X186560787Y-53377753D01*
X186580485Y-53351193D01*
X186602692Y-53326692D01*
X186627193Y-53304485D01*
X186653753Y-53284787D01*
X186682116Y-53267787D01*
X186712009Y-53253649D01*
X186743143Y-53242509D01*
X186775219Y-53234475D01*
X186807929Y-53229623D01*
X186840956Y-53228000D01*
X187967044Y-53228000D01*
X188000071Y-53229623D01*
X188000071Y-53229623D01*
G37*
D11*
X187404000Y-54003000D03*
D10*
G36*
X188000071Y-51179623D02*
X188032781Y-51184475D01*
X188064857Y-51192509D01*
X188095991Y-51203649D01*
X188125884Y-51217787D01*
X188154247Y-51234787D01*
X188180807Y-51254485D01*
X188205308Y-51276692D01*
X188227515Y-51301193D01*
X188247213Y-51327753D01*
X188264213Y-51356116D01*
X188278351Y-51386009D01*
X188289491Y-51417143D01*
X188297525Y-51449219D01*
X188302377Y-51481929D01*
X188304000Y-51514956D01*
X188304000Y-52391044D01*
X188302377Y-52424071D01*
X188297525Y-52456781D01*
X188289491Y-52488857D01*
X188278351Y-52519991D01*
X188264213Y-52549884D01*
X188247213Y-52578247D01*
X188227515Y-52604807D01*
X188205308Y-52629308D01*
X188180807Y-52651515D01*
X188154247Y-52671213D01*
X188125884Y-52688213D01*
X188095991Y-52702351D01*
X188064857Y-52713491D01*
X188032781Y-52721525D01*
X188000071Y-52726377D01*
X187967044Y-52728000D01*
X186840956Y-52728000D01*
X186807929Y-52726377D01*
X186775219Y-52721525D01*
X186743143Y-52713491D01*
X186712009Y-52702351D01*
X186682116Y-52688213D01*
X186653753Y-52671213D01*
X186627193Y-52651515D01*
X186602692Y-52629308D01*
X186580485Y-52604807D01*
X186560787Y-52578247D01*
X186543787Y-52549884D01*
X186529649Y-52519991D01*
X186518509Y-52488857D01*
X186510475Y-52456781D01*
X186505623Y-52424071D01*
X186504000Y-52391044D01*
X186504000Y-51514956D01*
X186505623Y-51481929D01*
X186510475Y-51449219D01*
X186518509Y-51417143D01*
X186529649Y-51386009D01*
X186543787Y-51356116D01*
X186560787Y-51327753D01*
X186580485Y-51301193D01*
X186602692Y-51276692D01*
X186627193Y-51254485D01*
X186653753Y-51234787D01*
X186682116Y-51217787D01*
X186712009Y-51203649D01*
X186743143Y-51192509D01*
X186775219Y-51184475D01*
X186807929Y-51179623D01*
X186840956Y-51178000D01*
X187967044Y-51178000D01*
X188000071Y-51179623D01*
X188000071Y-51179623D01*
G37*
D11*
X187404000Y-51953000D03*
G04 #@! TD*
M02*
