G04 #@! TF.GenerationSoftware,KiCad,Pcbnew,(5.0.0-3-g5ebb6b6)*
G04 #@! TF.CreationDate,2020-01-23T02:23:46-08:00*
G04 #@! TF.ProjectId,Ethernet_Zero,45746865726E65745F5A65726F2E6B69,rev?*
G04 #@! TF.SameCoordinates,Original*
G04 #@! TF.FileFunction,Paste,Top*
G04 #@! TF.FilePolarity,Positive*
%FSLAX46Y46*%
G04 Gerber Fmt 4.6, Leading zero omitted, Abs format (unit mm)*
G04 Created by KiCad (PCBNEW (5.0.0-3-g5ebb6b6)) date Thursday, 23 January 2020 at 02:23:46*
%MOMM*%
%LPD*%
G01*
G04 APERTURE LIST*
%ADD10C,0.100000*%
%ADD11C,1.150000*%
%ADD12R,1.750000X0.450000*%
G04 APERTURE END LIST*
D10*
G04 #@! TO.C,R9*
G36*
X153708505Y-57114204D02*
X153732773Y-57117804D01*
X153756572Y-57123765D01*
X153779671Y-57132030D01*
X153801850Y-57142520D01*
X153822893Y-57155132D01*
X153842599Y-57169747D01*
X153860777Y-57186223D01*
X153877253Y-57204401D01*
X153891868Y-57224107D01*
X153904480Y-57245150D01*
X153914970Y-57267329D01*
X153923235Y-57290428D01*
X153929196Y-57314227D01*
X153932796Y-57338495D01*
X153934000Y-57362999D01*
X153934000Y-58263001D01*
X153932796Y-58287505D01*
X153929196Y-58311773D01*
X153923235Y-58335572D01*
X153914970Y-58358671D01*
X153904480Y-58380850D01*
X153891868Y-58401893D01*
X153877253Y-58421599D01*
X153860777Y-58439777D01*
X153842599Y-58456253D01*
X153822893Y-58470868D01*
X153801850Y-58483480D01*
X153779671Y-58493970D01*
X153756572Y-58502235D01*
X153732773Y-58508196D01*
X153708505Y-58511796D01*
X153684001Y-58513000D01*
X153033999Y-58513000D01*
X153009495Y-58511796D01*
X152985227Y-58508196D01*
X152961428Y-58502235D01*
X152938329Y-58493970D01*
X152916150Y-58483480D01*
X152895107Y-58470868D01*
X152875401Y-58456253D01*
X152857223Y-58439777D01*
X152840747Y-58421599D01*
X152826132Y-58401893D01*
X152813520Y-58380850D01*
X152803030Y-58358671D01*
X152794765Y-58335572D01*
X152788804Y-58311773D01*
X152785204Y-58287505D01*
X152784000Y-58263001D01*
X152784000Y-57362999D01*
X152785204Y-57338495D01*
X152788804Y-57314227D01*
X152794765Y-57290428D01*
X152803030Y-57267329D01*
X152813520Y-57245150D01*
X152826132Y-57224107D01*
X152840747Y-57204401D01*
X152857223Y-57186223D01*
X152875401Y-57169747D01*
X152895107Y-57155132D01*
X152916150Y-57142520D01*
X152938329Y-57132030D01*
X152961428Y-57123765D01*
X152985227Y-57117804D01*
X153009495Y-57114204D01*
X153033999Y-57113000D01*
X153684001Y-57113000D01*
X153708505Y-57114204D01*
X153708505Y-57114204D01*
G37*
D11*
X153359000Y-57813000D03*
D10*
G36*
X155758505Y-57114204D02*
X155782773Y-57117804D01*
X155806572Y-57123765D01*
X155829671Y-57132030D01*
X155851850Y-57142520D01*
X155872893Y-57155132D01*
X155892599Y-57169747D01*
X155910777Y-57186223D01*
X155927253Y-57204401D01*
X155941868Y-57224107D01*
X155954480Y-57245150D01*
X155964970Y-57267329D01*
X155973235Y-57290428D01*
X155979196Y-57314227D01*
X155982796Y-57338495D01*
X155984000Y-57362999D01*
X155984000Y-58263001D01*
X155982796Y-58287505D01*
X155979196Y-58311773D01*
X155973235Y-58335572D01*
X155964970Y-58358671D01*
X155954480Y-58380850D01*
X155941868Y-58401893D01*
X155927253Y-58421599D01*
X155910777Y-58439777D01*
X155892599Y-58456253D01*
X155872893Y-58470868D01*
X155851850Y-58483480D01*
X155829671Y-58493970D01*
X155806572Y-58502235D01*
X155782773Y-58508196D01*
X155758505Y-58511796D01*
X155734001Y-58513000D01*
X155083999Y-58513000D01*
X155059495Y-58511796D01*
X155035227Y-58508196D01*
X155011428Y-58502235D01*
X154988329Y-58493970D01*
X154966150Y-58483480D01*
X154945107Y-58470868D01*
X154925401Y-58456253D01*
X154907223Y-58439777D01*
X154890747Y-58421599D01*
X154876132Y-58401893D01*
X154863520Y-58380850D01*
X154853030Y-58358671D01*
X154844765Y-58335572D01*
X154838804Y-58311773D01*
X154835204Y-58287505D01*
X154834000Y-58263001D01*
X154834000Y-57362999D01*
X154835204Y-57338495D01*
X154838804Y-57314227D01*
X154844765Y-57290428D01*
X154853030Y-57267329D01*
X154863520Y-57245150D01*
X154876132Y-57224107D01*
X154890747Y-57204401D01*
X154907223Y-57186223D01*
X154925401Y-57169747D01*
X154945107Y-57155132D01*
X154966150Y-57142520D01*
X154988329Y-57132030D01*
X155011428Y-57123765D01*
X155035227Y-57117804D01*
X155059495Y-57114204D01*
X155083999Y-57113000D01*
X155734001Y-57113000D01*
X155758505Y-57114204D01*
X155758505Y-57114204D01*
G37*
D11*
X155409000Y-57813000D03*
G04 #@! TD*
D12*
G04 #@! TO.C,U1*
X184102000Y-56827000D03*
X184102000Y-56177000D03*
X184102000Y-55527000D03*
X184102000Y-54877000D03*
X184102000Y-54227000D03*
X184102000Y-53577000D03*
X184102000Y-52927000D03*
X184102000Y-52277000D03*
X184102000Y-51627000D03*
X184102000Y-50977000D03*
X184102000Y-50327000D03*
X184102000Y-49677000D03*
X184102000Y-49027000D03*
X184102000Y-48377000D03*
X176902000Y-48377000D03*
X176902000Y-49027000D03*
X176902000Y-49677000D03*
X176902000Y-50327000D03*
X176902000Y-50977000D03*
X176902000Y-51627000D03*
X176902000Y-52277000D03*
X176902000Y-52927000D03*
X176902000Y-53577000D03*
X176902000Y-54227000D03*
X176902000Y-54877000D03*
X176902000Y-55527000D03*
X176902000Y-56177000D03*
X176902000Y-56827000D03*
G04 #@! TD*
D10*
G04 #@! TO.C,L1*
G36*
X203483505Y-36794204D02*
X203507773Y-36797804D01*
X203531572Y-36803765D01*
X203554671Y-36812030D01*
X203576850Y-36822520D01*
X203597893Y-36835132D01*
X203617599Y-36849747D01*
X203635777Y-36866223D01*
X203652253Y-36884401D01*
X203666868Y-36904107D01*
X203679480Y-36925150D01*
X203689970Y-36947329D01*
X203698235Y-36970428D01*
X203704196Y-36994227D01*
X203707796Y-37018495D01*
X203709000Y-37042999D01*
X203709000Y-37943001D01*
X203707796Y-37967505D01*
X203704196Y-37991773D01*
X203698235Y-38015572D01*
X203689970Y-38038671D01*
X203679480Y-38060850D01*
X203666868Y-38081893D01*
X203652253Y-38101599D01*
X203635777Y-38119777D01*
X203617599Y-38136253D01*
X203597893Y-38150868D01*
X203576850Y-38163480D01*
X203554671Y-38173970D01*
X203531572Y-38182235D01*
X203507773Y-38188196D01*
X203483505Y-38191796D01*
X203459001Y-38193000D01*
X202808999Y-38193000D01*
X202784495Y-38191796D01*
X202760227Y-38188196D01*
X202736428Y-38182235D01*
X202713329Y-38173970D01*
X202691150Y-38163480D01*
X202670107Y-38150868D01*
X202650401Y-38136253D01*
X202632223Y-38119777D01*
X202615747Y-38101599D01*
X202601132Y-38081893D01*
X202588520Y-38060850D01*
X202578030Y-38038671D01*
X202569765Y-38015572D01*
X202563804Y-37991773D01*
X202560204Y-37967505D01*
X202559000Y-37943001D01*
X202559000Y-37042999D01*
X202560204Y-37018495D01*
X202563804Y-36994227D01*
X202569765Y-36970428D01*
X202578030Y-36947329D01*
X202588520Y-36925150D01*
X202601132Y-36904107D01*
X202615747Y-36884401D01*
X202632223Y-36866223D01*
X202650401Y-36849747D01*
X202670107Y-36835132D01*
X202691150Y-36822520D01*
X202713329Y-36812030D01*
X202736428Y-36803765D01*
X202760227Y-36797804D01*
X202784495Y-36794204D01*
X202808999Y-36793000D01*
X203459001Y-36793000D01*
X203483505Y-36794204D01*
X203483505Y-36794204D01*
G37*
D11*
X203134000Y-37493000D03*
D10*
G36*
X205533505Y-36794204D02*
X205557773Y-36797804D01*
X205581572Y-36803765D01*
X205604671Y-36812030D01*
X205626850Y-36822520D01*
X205647893Y-36835132D01*
X205667599Y-36849747D01*
X205685777Y-36866223D01*
X205702253Y-36884401D01*
X205716868Y-36904107D01*
X205729480Y-36925150D01*
X205739970Y-36947329D01*
X205748235Y-36970428D01*
X205754196Y-36994227D01*
X205757796Y-37018495D01*
X205759000Y-37042999D01*
X205759000Y-37943001D01*
X205757796Y-37967505D01*
X205754196Y-37991773D01*
X205748235Y-38015572D01*
X205739970Y-38038671D01*
X205729480Y-38060850D01*
X205716868Y-38081893D01*
X205702253Y-38101599D01*
X205685777Y-38119777D01*
X205667599Y-38136253D01*
X205647893Y-38150868D01*
X205626850Y-38163480D01*
X205604671Y-38173970D01*
X205581572Y-38182235D01*
X205557773Y-38188196D01*
X205533505Y-38191796D01*
X205509001Y-38193000D01*
X204858999Y-38193000D01*
X204834495Y-38191796D01*
X204810227Y-38188196D01*
X204786428Y-38182235D01*
X204763329Y-38173970D01*
X204741150Y-38163480D01*
X204720107Y-38150868D01*
X204700401Y-38136253D01*
X204682223Y-38119777D01*
X204665747Y-38101599D01*
X204651132Y-38081893D01*
X204638520Y-38060850D01*
X204628030Y-38038671D01*
X204619765Y-38015572D01*
X204613804Y-37991773D01*
X204610204Y-37967505D01*
X204609000Y-37943001D01*
X204609000Y-37042999D01*
X204610204Y-37018495D01*
X204613804Y-36994227D01*
X204619765Y-36970428D01*
X204628030Y-36947329D01*
X204638520Y-36925150D01*
X204651132Y-36904107D01*
X204665747Y-36884401D01*
X204682223Y-36866223D01*
X204700401Y-36849747D01*
X204720107Y-36835132D01*
X204741150Y-36822520D01*
X204763329Y-36812030D01*
X204786428Y-36803765D01*
X204810227Y-36797804D01*
X204834495Y-36794204D01*
X204858999Y-36793000D01*
X205509001Y-36793000D01*
X205533505Y-36794204D01*
X205533505Y-36794204D01*
G37*
D11*
X205184000Y-37493000D03*
G04 #@! TD*
D10*
G04 #@! TO.C,R5*
G36*
X198038505Y-38044204D02*
X198062773Y-38047804D01*
X198086572Y-38053765D01*
X198109671Y-38062030D01*
X198131850Y-38072520D01*
X198152893Y-38085132D01*
X198172599Y-38099747D01*
X198190777Y-38116223D01*
X198207253Y-38134401D01*
X198221868Y-38154107D01*
X198234480Y-38175150D01*
X198244970Y-38197329D01*
X198253235Y-38220428D01*
X198259196Y-38244227D01*
X198262796Y-38268495D01*
X198264000Y-38292999D01*
X198264000Y-38943001D01*
X198262796Y-38967505D01*
X198259196Y-38991773D01*
X198253235Y-39015572D01*
X198244970Y-39038671D01*
X198234480Y-39060850D01*
X198221868Y-39081893D01*
X198207253Y-39101599D01*
X198190777Y-39119777D01*
X198172599Y-39136253D01*
X198152893Y-39150868D01*
X198131850Y-39163480D01*
X198109671Y-39173970D01*
X198086572Y-39182235D01*
X198062773Y-39188196D01*
X198038505Y-39191796D01*
X198014001Y-39193000D01*
X197113999Y-39193000D01*
X197089495Y-39191796D01*
X197065227Y-39188196D01*
X197041428Y-39182235D01*
X197018329Y-39173970D01*
X196996150Y-39163480D01*
X196975107Y-39150868D01*
X196955401Y-39136253D01*
X196937223Y-39119777D01*
X196920747Y-39101599D01*
X196906132Y-39081893D01*
X196893520Y-39060850D01*
X196883030Y-39038671D01*
X196874765Y-39015572D01*
X196868804Y-38991773D01*
X196865204Y-38967505D01*
X196864000Y-38943001D01*
X196864000Y-38292999D01*
X196865204Y-38268495D01*
X196868804Y-38244227D01*
X196874765Y-38220428D01*
X196883030Y-38197329D01*
X196893520Y-38175150D01*
X196906132Y-38154107D01*
X196920747Y-38134401D01*
X196937223Y-38116223D01*
X196955401Y-38099747D01*
X196975107Y-38085132D01*
X196996150Y-38072520D01*
X197018329Y-38062030D01*
X197041428Y-38053765D01*
X197065227Y-38047804D01*
X197089495Y-38044204D01*
X197113999Y-38043000D01*
X198014001Y-38043000D01*
X198038505Y-38044204D01*
X198038505Y-38044204D01*
G37*
D11*
X197564000Y-38618000D03*
D10*
G36*
X198038505Y-40094204D02*
X198062773Y-40097804D01*
X198086572Y-40103765D01*
X198109671Y-40112030D01*
X198131850Y-40122520D01*
X198152893Y-40135132D01*
X198172599Y-40149747D01*
X198190777Y-40166223D01*
X198207253Y-40184401D01*
X198221868Y-40204107D01*
X198234480Y-40225150D01*
X198244970Y-40247329D01*
X198253235Y-40270428D01*
X198259196Y-40294227D01*
X198262796Y-40318495D01*
X198264000Y-40342999D01*
X198264000Y-40993001D01*
X198262796Y-41017505D01*
X198259196Y-41041773D01*
X198253235Y-41065572D01*
X198244970Y-41088671D01*
X198234480Y-41110850D01*
X198221868Y-41131893D01*
X198207253Y-41151599D01*
X198190777Y-41169777D01*
X198172599Y-41186253D01*
X198152893Y-41200868D01*
X198131850Y-41213480D01*
X198109671Y-41223970D01*
X198086572Y-41232235D01*
X198062773Y-41238196D01*
X198038505Y-41241796D01*
X198014001Y-41243000D01*
X197113999Y-41243000D01*
X197089495Y-41241796D01*
X197065227Y-41238196D01*
X197041428Y-41232235D01*
X197018329Y-41223970D01*
X196996150Y-41213480D01*
X196975107Y-41200868D01*
X196955401Y-41186253D01*
X196937223Y-41169777D01*
X196920747Y-41151599D01*
X196906132Y-41131893D01*
X196893520Y-41110850D01*
X196883030Y-41088671D01*
X196874765Y-41065572D01*
X196868804Y-41041773D01*
X196865204Y-41017505D01*
X196864000Y-40993001D01*
X196864000Y-40342999D01*
X196865204Y-40318495D01*
X196868804Y-40294227D01*
X196874765Y-40270428D01*
X196883030Y-40247329D01*
X196893520Y-40225150D01*
X196906132Y-40204107D01*
X196920747Y-40184401D01*
X196937223Y-40166223D01*
X196955401Y-40149747D01*
X196975107Y-40135132D01*
X196996150Y-40122520D01*
X197018329Y-40112030D01*
X197041428Y-40103765D01*
X197065227Y-40097804D01*
X197089495Y-40094204D01*
X197113999Y-40093000D01*
X198014001Y-40093000D01*
X198038505Y-40094204D01*
X198038505Y-40094204D01*
G37*
D11*
X197564000Y-40668000D03*
G04 #@! TD*
D10*
G04 #@! TO.C,R6*
G36*
X200578505Y-40094204D02*
X200602773Y-40097804D01*
X200626572Y-40103765D01*
X200649671Y-40112030D01*
X200671850Y-40122520D01*
X200692893Y-40135132D01*
X200712599Y-40149747D01*
X200730777Y-40166223D01*
X200747253Y-40184401D01*
X200761868Y-40204107D01*
X200774480Y-40225150D01*
X200784970Y-40247329D01*
X200793235Y-40270428D01*
X200799196Y-40294227D01*
X200802796Y-40318495D01*
X200804000Y-40342999D01*
X200804000Y-40993001D01*
X200802796Y-41017505D01*
X200799196Y-41041773D01*
X200793235Y-41065572D01*
X200784970Y-41088671D01*
X200774480Y-41110850D01*
X200761868Y-41131893D01*
X200747253Y-41151599D01*
X200730777Y-41169777D01*
X200712599Y-41186253D01*
X200692893Y-41200868D01*
X200671850Y-41213480D01*
X200649671Y-41223970D01*
X200626572Y-41232235D01*
X200602773Y-41238196D01*
X200578505Y-41241796D01*
X200554001Y-41243000D01*
X199653999Y-41243000D01*
X199629495Y-41241796D01*
X199605227Y-41238196D01*
X199581428Y-41232235D01*
X199558329Y-41223970D01*
X199536150Y-41213480D01*
X199515107Y-41200868D01*
X199495401Y-41186253D01*
X199477223Y-41169777D01*
X199460747Y-41151599D01*
X199446132Y-41131893D01*
X199433520Y-41110850D01*
X199423030Y-41088671D01*
X199414765Y-41065572D01*
X199408804Y-41041773D01*
X199405204Y-41017505D01*
X199404000Y-40993001D01*
X199404000Y-40342999D01*
X199405204Y-40318495D01*
X199408804Y-40294227D01*
X199414765Y-40270428D01*
X199423030Y-40247329D01*
X199433520Y-40225150D01*
X199446132Y-40204107D01*
X199460747Y-40184401D01*
X199477223Y-40166223D01*
X199495401Y-40149747D01*
X199515107Y-40135132D01*
X199536150Y-40122520D01*
X199558329Y-40112030D01*
X199581428Y-40103765D01*
X199605227Y-40097804D01*
X199629495Y-40094204D01*
X199653999Y-40093000D01*
X200554001Y-40093000D01*
X200578505Y-40094204D01*
X200578505Y-40094204D01*
G37*
D11*
X200104000Y-40668000D03*
D10*
G36*
X200578505Y-38044204D02*
X200602773Y-38047804D01*
X200626572Y-38053765D01*
X200649671Y-38062030D01*
X200671850Y-38072520D01*
X200692893Y-38085132D01*
X200712599Y-38099747D01*
X200730777Y-38116223D01*
X200747253Y-38134401D01*
X200761868Y-38154107D01*
X200774480Y-38175150D01*
X200784970Y-38197329D01*
X200793235Y-38220428D01*
X200799196Y-38244227D01*
X200802796Y-38268495D01*
X200804000Y-38292999D01*
X200804000Y-38943001D01*
X200802796Y-38967505D01*
X200799196Y-38991773D01*
X200793235Y-39015572D01*
X200784970Y-39038671D01*
X200774480Y-39060850D01*
X200761868Y-39081893D01*
X200747253Y-39101599D01*
X200730777Y-39119777D01*
X200712599Y-39136253D01*
X200692893Y-39150868D01*
X200671850Y-39163480D01*
X200649671Y-39173970D01*
X200626572Y-39182235D01*
X200602773Y-39188196D01*
X200578505Y-39191796D01*
X200554001Y-39193000D01*
X199653999Y-39193000D01*
X199629495Y-39191796D01*
X199605227Y-39188196D01*
X199581428Y-39182235D01*
X199558329Y-39173970D01*
X199536150Y-39163480D01*
X199515107Y-39150868D01*
X199495401Y-39136253D01*
X199477223Y-39119777D01*
X199460747Y-39101599D01*
X199446132Y-39081893D01*
X199433520Y-39060850D01*
X199423030Y-39038671D01*
X199414765Y-39015572D01*
X199408804Y-38991773D01*
X199405204Y-38967505D01*
X199404000Y-38943001D01*
X199404000Y-38292999D01*
X199405204Y-38268495D01*
X199408804Y-38244227D01*
X199414765Y-38220428D01*
X199423030Y-38197329D01*
X199433520Y-38175150D01*
X199446132Y-38154107D01*
X199460747Y-38134401D01*
X199477223Y-38116223D01*
X199495401Y-38099747D01*
X199515107Y-38085132D01*
X199536150Y-38072520D01*
X199558329Y-38062030D01*
X199581428Y-38053765D01*
X199605227Y-38047804D01*
X199629495Y-38044204D01*
X199653999Y-38043000D01*
X200554001Y-38043000D01*
X200578505Y-38044204D01*
X200578505Y-38044204D01*
G37*
D11*
X200104000Y-38618000D03*
G04 #@! TD*
D10*
G04 #@! TO.C,R7*
G36*
X205658505Y-40874204D02*
X205682773Y-40877804D01*
X205706572Y-40883765D01*
X205729671Y-40892030D01*
X205751850Y-40902520D01*
X205772893Y-40915132D01*
X205792599Y-40929747D01*
X205810777Y-40946223D01*
X205827253Y-40964401D01*
X205841868Y-40984107D01*
X205854480Y-41005150D01*
X205864970Y-41027329D01*
X205873235Y-41050428D01*
X205879196Y-41074227D01*
X205882796Y-41098495D01*
X205884000Y-41122999D01*
X205884000Y-41773001D01*
X205882796Y-41797505D01*
X205879196Y-41821773D01*
X205873235Y-41845572D01*
X205864970Y-41868671D01*
X205854480Y-41890850D01*
X205841868Y-41911893D01*
X205827253Y-41931599D01*
X205810777Y-41949777D01*
X205792599Y-41966253D01*
X205772893Y-41980868D01*
X205751850Y-41993480D01*
X205729671Y-42003970D01*
X205706572Y-42012235D01*
X205682773Y-42018196D01*
X205658505Y-42021796D01*
X205634001Y-42023000D01*
X204733999Y-42023000D01*
X204709495Y-42021796D01*
X204685227Y-42018196D01*
X204661428Y-42012235D01*
X204638329Y-42003970D01*
X204616150Y-41993480D01*
X204595107Y-41980868D01*
X204575401Y-41966253D01*
X204557223Y-41949777D01*
X204540747Y-41931599D01*
X204526132Y-41911893D01*
X204513520Y-41890850D01*
X204503030Y-41868671D01*
X204494765Y-41845572D01*
X204488804Y-41821773D01*
X204485204Y-41797505D01*
X204484000Y-41773001D01*
X204484000Y-41122999D01*
X204485204Y-41098495D01*
X204488804Y-41074227D01*
X204494765Y-41050428D01*
X204503030Y-41027329D01*
X204513520Y-41005150D01*
X204526132Y-40984107D01*
X204540747Y-40964401D01*
X204557223Y-40946223D01*
X204575401Y-40929747D01*
X204595107Y-40915132D01*
X204616150Y-40902520D01*
X204638329Y-40892030D01*
X204661428Y-40883765D01*
X204685227Y-40877804D01*
X204709495Y-40874204D01*
X204733999Y-40873000D01*
X205634001Y-40873000D01*
X205658505Y-40874204D01*
X205658505Y-40874204D01*
G37*
D11*
X205184000Y-41448000D03*
D10*
G36*
X205658505Y-38824204D02*
X205682773Y-38827804D01*
X205706572Y-38833765D01*
X205729671Y-38842030D01*
X205751850Y-38852520D01*
X205772893Y-38865132D01*
X205792599Y-38879747D01*
X205810777Y-38896223D01*
X205827253Y-38914401D01*
X205841868Y-38934107D01*
X205854480Y-38955150D01*
X205864970Y-38977329D01*
X205873235Y-39000428D01*
X205879196Y-39024227D01*
X205882796Y-39048495D01*
X205884000Y-39072999D01*
X205884000Y-39723001D01*
X205882796Y-39747505D01*
X205879196Y-39771773D01*
X205873235Y-39795572D01*
X205864970Y-39818671D01*
X205854480Y-39840850D01*
X205841868Y-39861893D01*
X205827253Y-39881599D01*
X205810777Y-39899777D01*
X205792599Y-39916253D01*
X205772893Y-39930868D01*
X205751850Y-39943480D01*
X205729671Y-39953970D01*
X205706572Y-39962235D01*
X205682773Y-39968196D01*
X205658505Y-39971796D01*
X205634001Y-39973000D01*
X204733999Y-39973000D01*
X204709495Y-39971796D01*
X204685227Y-39968196D01*
X204661428Y-39962235D01*
X204638329Y-39953970D01*
X204616150Y-39943480D01*
X204595107Y-39930868D01*
X204575401Y-39916253D01*
X204557223Y-39899777D01*
X204540747Y-39881599D01*
X204526132Y-39861893D01*
X204513520Y-39840850D01*
X204503030Y-39818671D01*
X204494765Y-39795572D01*
X204488804Y-39771773D01*
X204485204Y-39747505D01*
X204484000Y-39723001D01*
X204484000Y-39072999D01*
X204485204Y-39048495D01*
X204488804Y-39024227D01*
X204494765Y-39000428D01*
X204503030Y-38977329D01*
X204513520Y-38955150D01*
X204526132Y-38934107D01*
X204540747Y-38914401D01*
X204557223Y-38896223D01*
X204575401Y-38879747D01*
X204595107Y-38865132D01*
X204616150Y-38852520D01*
X204638329Y-38842030D01*
X204661428Y-38833765D01*
X204685227Y-38827804D01*
X204709495Y-38824204D01*
X204733999Y-38823000D01*
X205634001Y-38823000D01*
X205658505Y-38824204D01*
X205658505Y-38824204D01*
G37*
D11*
X205184000Y-39398000D03*
G04 #@! TD*
D10*
G04 #@! TO.C,R8*
G36*
X203118505Y-38824204D02*
X203142773Y-38827804D01*
X203166572Y-38833765D01*
X203189671Y-38842030D01*
X203211850Y-38852520D01*
X203232893Y-38865132D01*
X203252599Y-38879747D01*
X203270777Y-38896223D01*
X203287253Y-38914401D01*
X203301868Y-38934107D01*
X203314480Y-38955150D01*
X203324970Y-38977329D01*
X203333235Y-39000428D01*
X203339196Y-39024227D01*
X203342796Y-39048495D01*
X203344000Y-39072999D01*
X203344000Y-39723001D01*
X203342796Y-39747505D01*
X203339196Y-39771773D01*
X203333235Y-39795572D01*
X203324970Y-39818671D01*
X203314480Y-39840850D01*
X203301868Y-39861893D01*
X203287253Y-39881599D01*
X203270777Y-39899777D01*
X203252599Y-39916253D01*
X203232893Y-39930868D01*
X203211850Y-39943480D01*
X203189671Y-39953970D01*
X203166572Y-39962235D01*
X203142773Y-39968196D01*
X203118505Y-39971796D01*
X203094001Y-39973000D01*
X202193999Y-39973000D01*
X202169495Y-39971796D01*
X202145227Y-39968196D01*
X202121428Y-39962235D01*
X202098329Y-39953970D01*
X202076150Y-39943480D01*
X202055107Y-39930868D01*
X202035401Y-39916253D01*
X202017223Y-39899777D01*
X202000747Y-39881599D01*
X201986132Y-39861893D01*
X201973520Y-39840850D01*
X201963030Y-39818671D01*
X201954765Y-39795572D01*
X201948804Y-39771773D01*
X201945204Y-39747505D01*
X201944000Y-39723001D01*
X201944000Y-39072999D01*
X201945204Y-39048495D01*
X201948804Y-39024227D01*
X201954765Y-39000428D01*
X201963030Y-38977329D01*
X201973520Y-38955150D01*
X201986132Y-38934107D01*
X202000747Y-38914401D01*
X202017223Y-38896223D01*
X202035401Y-38879747D01*
X202055107Y-38865132D01*
X202076150Y-38852520D01*
X202098329Y-38842030D01*
X202121428Y-38833765D01*
X202145227Y-38827804D01*
X202169495Y-38824204D01*
X202193999Y-38823000D01*
X203094001Y-38823000D01*
X203118505Y-38824204D01*
X203118505Y-38824204D01*
G37*
D11*
X202644000Y-39398000D03*
D10*
G36*
X203118505Y-40874204D02*
X203142773Y-40877804D01*
X203166572Y-40883765D01*
X203189671Y-40892030D01*
X203211850Y-40902520D01*
X203232893Y-40915132D01*
X203252599Y-40929747D01*
X203270777Y-40946223D01*
X203287253Y-40964401D01*
X203301868Y-40984107D01*
X203314480Y-41005150D01*
X203324970Y-41027329D01*
X203333235Y-41050428D01*
X203339196Y-41074227D01*
X203342796Y-41098495D01*
X203344000Y-41122999D01*
X203344000Y-41773001D01*
X203342796Y-41797505D01*
X203339196Y-41821773D01*
X203333235Y-41845572D01*
X203324970Y-41868671D01*
X203314480Y-41890850D01*
X203301868Y-41911893D01*
X203287253Y-41931599D01*
X203270777Y-41949777D01*
X203252599Y-41966253D01*
X203232893Y-41980868D01*
X203211850Y-41993480D01*
X203189671Y-42003970D01*
X203166572Y-42012235D01*
X203142773Y-42018196D01*
X203118505Y-42021796D01*
X203094001Y-42023000D01*
X202193999Y-42023000D01*
X202169495Y-42021796D01*
X202145227Y-42018196D01*
X202121428Y-42012235D01*
X202098329Y-42003970D01*
X202076150Y-41993480D01*
X202055107Y-41980868D01*
X202035401Y-41966253D01*
X202017223Y-41949777D01*
X202000747Y-41931599D01*
X201986132Y-41911893D01*
X201973520Y-41890850D01*
X201963030Y-41868671D01*
X201954765Y-41845572D01*
X201948804Y-41821773D01*
X201945204Y-41797505D01*
X201944000Y-41773001D01*
X201944000Y-41122999D01*
X201945204Y-41098495D01*
X201948804Y-41074227D01*
X201954765Y-41050428D01*
X201963030Y-41027329D01*
X201973520Y-41005150D01*
X201986132Y-40984107D01*
X202000747Y-40964401D01*
X202017223Y-40946223D01*
X202035401Y-40929747D01*
X202055107Y-40915132D01*
X202076150Y-40902520D01*
X202098329Y-40892030D01*
X202121428Y-40883765D01*
X202145227Y-40877804D01*
X202169495Y-40874204D01*
X202193999Y-40873000D01*
X203094001Y-40873000D01*
X203118505Y-40874204D01*
X203118505Y-40874204D01*
G37*
D11*
X202644000Y-41448000D03*
G04 #@! TD*
D10*
G04 #@! TO.C,C1*
G36*
X175053505Y-58384204D02*
X175077773Y-58387804D01*
X175101572Y-58393765D01*
X175124671Y-58402030D01*
X175146850Y-58412520D01*
X175167893Y-58425132D01*
X175187599Y-58439747D01*
X175205777Y-58456223D01*
X175222253Y-58474401D01*
X175236868Y-58494107D01*
X175249480Y-58515150D01*
X175259970Y-58537329D01*
X175268235Y-58560428D01*
X175274196Y-58584227D01*
X175277796Y-58608495D01*
X175279000Y-58632999D01*
X175279000Y-59533001D01*
X175277796Y-59557505D01*
X175274196Y-59581773D01*
X175268235Y-59605572D01*
X175259970Y-59628671D01*
X175249480Y-59650850D01*
X175236868Y-59671893D01*
X175222253Y-59691599D01*
X175205777Y-59709777D01*
X175187599Y-59726253D01*
X175167893Y-59740868D01*
X175146850Y-59753480D01*
X175124671Y-59763970D01*
X175101572Y-59772235D01*
X175077773Y-59778196D01*
X175053505Y-59781796D01*
X175029001Y-59783000D01*
X174378999Y-59783000D01*
X174354495Y-59781796D01*
X174330227Y-59778196D01*
X174306428Y-59772235D01*
X174283329Y-59763970D01*
X174261150Y-59753480D01*
X174240107Y-59740868D01*
X174220401Y-59726253D01*
X174202223Y-59709777D01*
X174185747Y-59691599D01*
X174171132Y-59671893D01*
X174158520Y-59650850D01*
X174148030Y-59628671D01*
X174139765Y-59605572D01*
X174133804Y-59581773D01*
X174130204Y-59557505D01*
X174129000Y-59533001D01*
X174129000Y-58632999D01*
X174130204Y-58608495D01*
X174133804Y-58584227D01*
X174139765Y-58560428D01*
X174148030Y-58537329D01*
X174158520Y-58515150D01*
X174171132Y-58494107D01*
X174185747Y-58474401D01*
X174202223Y-58456223D01*
X174220401Y-58439747D01*
X174240107Y-58425132D01*
X174261150Y-58412520D01*
X174283329Y-58402030D01*
X174306428Y-58393765D01*
X174330227Y-58387804D01*
X174354495Y-58384204D01*
X174378999Y-58383000D01*
X175029001Y-58383000D01*
X175053505Y-58384204D01*
X175053505Y-58384204D01*
G37*
D11*
X174704000Y-59083000D03*
D10*
G36*
X173003505Y-58384204D02*
X173027773Y-58387804D01*
X173051572Y-58393765D01*
X173074671Y-58402030D01*
X173096850Y-58412520D01*
X173117893Y-58425132D01*
X173137599Y-58439747D01*
X173155777Y-58456223D01*
X173172253Y-58474401D01*
X173186868Y-58494107D01*
X173199480Y-58515150D01*
X173209970Y-58537329D01*
X173218235Y-58560428D01*
X173224196Y-58584227D01*
X173227796Y-58608495D01*
X173229000Y-58632999D01*
X173229000Y-59533001D01*
X173227796Y-59557505D01*
X173224196Y-59581773D01*
X173218235Y-59605572D01*
X173209970Y-59628671D01*
X173199480Y-59650850D01*
X173186868Y-59671893D01*
X173172253Y-59691599D01*
X173155777Y-59709777D01*
X173137599Y-59726253D01*
X173117893Y-59740868D01*
X173096850Y-59753480D01*
X173074671Y-59763970D01*
X173051572Y-59772235D01*
X173027773Y-59778196D01*
X173003505Y-59781796D01*
X172979001Y-59783000D01*
X172328999Y-59783000D01*
X172304495Y-59781796D01*
X172280227Y-59778196D01*
X172256428Y-59772235D01*
X172233329Y-59763970D01*
X172211150Y-59753480D01*
X172190107Y-59740868D01*
X172170401Y-59726253D01*
X172152223Y-59709777D01*
X172135747Y-59691599D01*
X172121132Y-59671893D01*
X172108520Y-59650850D01*
X172098030Y-59628671D01*
X172089765Y-59605572D01*
X172083804Y-59581773D01*
X172080204Y-59557505D01*
X172079000Y-59533001D01*
X172079000Y-58632999D01*
X172080204Y-58608495D01*
X172083804Y-58584227D01*
X172089765Y-58560428D01*
X172098030Y-58537329D01*
X172108520Y-58515150D01*
X172121132Y-58494107D01*
X172135747Y-58474401D01*
X172152223Y-58456223D01*
X172170401Y-58439747D01*
X172190107Y-58425132D01*
X172211150Y-58412520D01*
X172233329Y-58402030D01*
X172256428Y-58393765D01*
X172280227Y-58387804D01*
X172304495Y-58384204D01*
X172328999Y-58383000D01*
X172979001Y-58383000D01*
X173003505Y-58384204D01*
X173003505Y-58384204D01*
G37*
D11*
X172654000Y-59083000D03*
G04 #@! TD*
D10*
G04 #@! TO.C,C2*
G36*
X168340505Y-42636204D02*
X168364773Y-42639804D01*
X168388572Y-42645765D01*
X168411671Y-42654030D01*
X168433850Y-42664520D01*
X168454893Y-42677132D01*
X168474599Y-42691747D01*
X168492777Y-42708223D01*
X168509253Y-42726401D01*
X168523868Y-42746107D01*
X168536480Y-42767150D01*
X168546970Y-42789329D01*
X168555235Y-42812428D01*
X168561196Y-42836227D01*
X168564796Y-42860495D01*
X168566000Y-42884999D01*
X168566000Y-43785001D01*
X168564796Y-43809505D01*
X168561196Y-43833773D01*
X168555235Y-43857572D01*
X168546970Y-43880671D01*
X168536480Y-43902850D01*
X168523868Y-43923893D01*
X168509253Y-43943599D01*
X168492777Y-43961777D01*
X168474599Y-43978253D01*
X168454893Y-43992868D01*
X168433850Y-44005480D01*
X168411671Y-44015970D01*
X168388572Y-44024235D01*
X168364773Y-44030196D01*
X168340505Y-44033796D01*
X168316001Y-44035000D01*
X167665999Y-44035000D01*
X167641495Y-44033796D01*
X167617227Y-44030196D01*
X167593428Y-44024235D01*
X167570329Y-44015970D01*
X167548150Y-44005480D01*
X167527107Y-43992868D01*
X167507401Y-43978253D01*
X167489223Y-43961777D01*
X167472747Y-43943599D01*
X167458132Y-43923893D01*
X167445520Y-43902850D01*
X167435030Y-43880671D01*
X167426765Y-43857572D01*
X167420804Y-43833773D01*
X167417204Y-43809505D01*
X167416000Y-43785001D01*
X167416000Y-42884999D01*
X167417204Y-42860495D01*
X167420804Y-42836227D01*
X167426765Y-42812428D01*
X167435030Y-42789329D01*
X167445520Y-42767150D01*
X167458132Y-42746107D01*
X167472747Y-42726401D01*
X167489223Y-42708223D01*
X167507401Y-42691747D01*
X167527107Y-42677132D01*
X167548150Y-42664520D01*
X167570329Y-42654030D01*
X167593428Y-42645765D01*
X167617227Y-42639804D01*
X167641495Y-42636204D01*
X167665999Y-42635000D01*
X168316001Y-42635000D01*
X168340505Y-42636204D01*
X168340505Y-42636204D01*
G37*
D11*
X167991000Y-43335000D03*
D10*
G36*
X166290505Y-42636204D02*
X166314773Y-42639804D01*
X166338572Y-42645765D01*
X166361671Y-42654030D01*
X166383850Y-42664520D01*
X166404893Y-42677132D01*
X166424599Y-42691747D01*
X166442777Y-42708223D01*
X166459253Y-42726401D01*
X166473868Y-42746107D01*
X166486480Y-42767150D01*
X166496970Y-42789329D01*
X166505235Y-42812428D01*
X166511196Y-42836227D01*
X166514796Y-42860495D01*
X166516000Y-42884999D01*
X166516000Y-43785001D01*
X166514796Y-43809505D01*
X166511196Y-43833773D01*
X166505235Y-43857572D01*
X166496970Y-43880671D01*
X166486480Y-43902850D01*
X166473868Y-43923893D01*
X166459253Y-43943599D01*
X166442777Y-43961777D01*
X166424599Y-43978253D01*
X166404893Y-43992868D01*
X166383850Y-44005480D01*
X166361671Y-44015970D01*
X166338572Y-44024235D01*
X166314773Y-44030196D01*
X166290505Y-44033796D01*
X166266001Y-44035000D01*
X165615999Y-44035000D01*
X165591495Y-44033796D01*
X165567227Y-44030196D01*
X165543428Y-44024235D01*
X165520329Y-44015970D01*
X165498150Y-44005480D01*
X165477107Y-43992868D01*
X165457401Y-43978253D01*
X165439223Y-43961777D01*
X165422747Y-43943599D01*
X165408132Y-43923893D01*
X165395520Y-43902850D01*
X165385030Y-43880671D01*
X165376765Y-43857572D01*
X165370804Y-43833773D01*
X165367204Y-43809505D01*
X165366000Y-43785001D01*
X165366000Y-42884999D01*
X165367204Y-42860495D01*
X165370804Y-42836227D01*
X165376765Y-42812428D01*
X165385030Y-42789329D01*
X165395520Y-42767150D01*
X165408132Y-42746107D01*
X165422747Y-42726401D01*
X165439223Y-42708223D01*
X165457401Y-42691747D01*
X165477107Y-42677132D01*
X165498150Y-42664520D01*
X165520329Y-42654030D01*
X165543428Y-42645765D01*
X165567227Y-42639804D01*
X165591495Y-42636204D01*
X165615999Y-42635000D01*
X166266001Y-42635000D01*
X166290505Y-42636204D01*
X166290505Y-42636204D01*
G37*
D11*
X165941000Y-43335000D03*
G04 #@! TD*
D10*
G04 #@! TO.C,C3*
G36*
X167939505Y-51415204D02*
X167963773Y-51418804D01*
X167987572Y-51424765D01*
X168010671Y-51433030D01*
X168032850Y-51443520D01*
X168053893Y-51456132D01*
X168073599Y-51470747D01*
X168091777Y-51487223D01*
X168108253Y-51505401D01*
X168122868Y-51525107D01*
X168135480Y-51546150D01*
X168145970Y-51568329D01*
X168154235Y-51591428D01*
X168160196Y-51615227D01*
X168163796Y-51639495D01*
X168165000Y-51663999D01*
X168165000Y-52314001D01*
X168163796Y-52338505D01*
X168160196Y-52362773D01*
X168154235Y-52386572D01*
X168145970Y-52409671D01*
X168135480Y-52431850D01*
X168122868Y-52452893D01*
X168108253Y-52472599D01*
X168091777Y-52490777D01*
X168073599Y-52507253D01*
X168053893Y-52521868D01*
X168032850Y-52534480D01*
X168010671Y-52544970D01*
X167987572Y-52553235D01*
X167963773Y-52559196D01*
X167939505Y-52562796D01*
X167915001Y-52564000D01*
X167014999Y-52564000D01*
X166990495Y-52562796D01*
X166966227Y-52559196D01*
X166942428Y-52553235D01*
X166919329Y-52544970D01*
X166897150Y-52534480D01*
X166876107Y-52521868D01*
X166856401Y-52507253D01*
X166838223Y-52490777D01*
X166821747Y-52472599D01*
X166807132Y-52452893D01*
X166794520Y-52431850D01*
X166784030Y-52409671D01*
X166775765Y-52386572D01*
X166769804Y-52362773D01*
X166766204Y-52338505D01*
X166765000Y-52314001D01*
X166765000Y-51663999D01*
X166766204Y-51639495D01*
X166769804Y-51615227D01*
X166775765Y-51591428D01*
X166784030Y-51568329D01*
X166794520Y-51546150D01*
X166807132Y-51525107D01*
X166821747Y-51505401D01*
X166838223Y-51487223D01*
X166856401Y-51470747D01*
X166876107Y-51456132D01*
X166897150Y-51443520D01*
X166919329Y-51433030D01*
X166942428Y-51424765D01*
X166966227Y-51418804D01*
X166990495Y-51415204D01*
X167014999Y-51414000D01*
X167915001Y-51414000D01*
X167939505Y-51415204D01*
X167939505Y-51415204D01*
G37*
D11*
X167465000Y-51989000D03*
D10*
G36*
X167939505Y-49365204D02*
X167963773Y-49368804D01*
X167987572Y-49374765D01*
X168010671Y-49383030D01*
X168032850Y-49393520D01*
X168053893Y-49406132D01*
X168073599Y-49420747D01*
X168091777Y-49437223D01*
X168108253Y-49455401D01*
X168122868Y-49475107D01*
X168135480Y-49496150D01*
X168145970Y-49518329D01*
X168154235Y-49541428D01*
X168160196Y-49565227D01*
X168163796Y-49589495D01*
X168165000Y-49613999D01*
X168165000Y-50264001D01*
X168163796Y-50288505D01*
X168160196Y-50312773D01*
X168154235Y-50336572D01*
X168145970Y-50359671D01*
X168135480Y-50381850D01*
X168122868Y-50402893D01*
X168108253Y-50422599D01*
X168091777Y-50440777D01*
X168073599Y-50457253D01*
X168053893Y-50471868D01*
X168032850Y-50484480D01*
X168010671Y-50494970D01*
X167987572Y-50503235D01*
X167963773Y-50509196D01*
X167939505Y-50512796D01*
X167915001Y-50514000D01*
X167014999Y-50514000D01*
X166990495Y-50512796D01*
X166966227Y-50509196D01*
X166942428Y-50503235D01*
X166919329Y-50494970D01*
X166897150Y-50484480D01*
X166876107Y-50471868D01*
X166856401Y-50457253D01*
X166838223Y-50440777D01*
X166821747Y-50422599D01*
X166807132Y-50402893D01*
X166794520Y-50381850D01*
X166784030Y-50359671D01*
X166775765Y-50336572D01*
X166769804Y-50312773D01*
X166766204Y-50288505D01*
X166765000Y-50264001D01*
X166765000Y-49613999D01*
X166766204Y-49589495D01*
X166769804Y-49565227D01*
X166775765Y-49541428D01*
X166784030Y-49518329D01*
X166794520Y-49496150D01*
X166807132Y-49475107D01*
X166821747Y-49455401D01*
X166838223Y-49437223D01*
X166856401Y-49420747D01*
X166876107Y-49406132D01*
X166897150Y-49393520D01*
X166919329Y-49383030D01*
X166942428Y-49374765D01*
X166966227Y-49368804D01*
X166990495Y-49365204D01*
X167014999Y-49364000D01*
X167915001Y-49364000D01*
X167939505Y-49365204D01*
X167939505Y-49365204D01*
G37*
D11*
X167465000Y-49939000D03*
G04 #@! TD*
D10*
G04 #@! TO.C,C5*
G36*
X180913505Y-59019204D02*
X180937773Y-59022804D01*
X180961572Y-59028765D01*
X180984671Y-59037030D01*
X181006850Y-59047520D01*
X181027893Y-59060132D01*
X181047599Y-59074747D01*
X181065777Y-59091223D01*
X181082253Y-59109401D01*
X181096868Y-59129107D01*
X181109480Y-59150150D01*
X181119970Y-59172329D01*
X181128235Y-59195428D01*
X181134196Y-59219227D01*
X181137796Y-59243495D01*
X181139000Y-59267999D01*
X181139000Y-60168001D01*
X181137796Y-60192505D01*
X181134196Y-60216773D01*
X181128235Y-60240572D01*
X181119970Y-60263671D01*
X181109480Y-60285850D01*
X181096868Y-60306893D01*
X181082253Y-60326599D01*
X181065777Y-60344777D01*
X181047599Y-60361253D01*
X181027893Y-60375868D01*
X181006850Y-60388480D01*
X180984671Y-60398970D01*
X180961572Y-60407235D01*
X180937773Y-60413196D01*
X180913505Y-60416796D01*
X180889001Y-60418000D01*
X180238999Y-60418000D01*
X180214495Y-60416796D01*
X180190227Y-60413196D01*
X180166428Y-60407235D01*
X180143329Y-60398970D01*
X180121150Y-60388480D01*
X180100107Y-60375868D01*
X180080401Y-60361253D01*
X180062223Y-60344777D01*
X180045747Y-60326599D01*
X180031132Y-60306893D01*
X180018520Y-60285850D01*
X180008030Y-60263671D01*
X179999765Y-60240572D01*
X179993804Y-60216773D01*
X179990204Y-60192505D01*
X179989000Y-60168001D01*
X179989000Y-59267999D01*
X179990204Y-59243495D01*
X179993804Y-59219227D01*
X179999765Y-59195428D01*
X180008030Y-59172329D01*
X180018520Y-59150150D01*
X180031132Y-59129107D01*
X180045747Y-59109401D01*
X180062223Y-59091223D01*
X180080401Y-59074747D01*
X180100107Y-59060132D01*
X180121150Y-59047520D01*
X180143329Y-59037030D01*
X180166428Y-59028765D01*
X180190227Y-59022804D01*
X180214495Y-59019204D01*
X180238999Y-59018000D01*
X180889001Y-59018000D01*
X180913505Y-59019204D01*
X180913505Y-59019204D01*
G37*
D11*
X180564000Y-59718000D03*
D10*
G36*
X178863505Y-59019204D02*
X178887773Y-59022804D01*
X178911572Y-59028765D01*
X178934671Y-59037030D01*
X178956850Y-59047520D01*
X178977893Y-59060132D01*
X178997599Y-59074747D01*
X179015777Y-59091223D01*
X179032253Y-59109401D01*
X179046868Y-59129107D01*
X179059480Y-59150150D01*
X179069970Y-59172329D01*
X179078235Y-59195428D01*
X179084196Y-59219227D01*
X179087796Y-59243495D01*
X179089000Y-59267999D01*
X179089000Y-60168001D01*
X179087796Y-60192505D01*
X179084196Y-60216773D01*
X179078235Y-60240572D01*
X179069970Y-60263671D01*
X179059480Y-60285850D01*
X179046868Y-60306893D01*
X179032253Y-60326599D01*
X179015777Y-60344777D01*
X178997599Y-60361253D01*
X178977893Y-60375868D01*
X178956850Y-60388480D01*
X178934671Y-60398970D01*
X178911572Y-60407235D01*
X178887773Y-60413196D01*
X178863505Y-60416796D01*
X178839001Y-60418000D01*
X178188999Y-60418000D01*
X178164495Y-60416796D01*
X178140227Y-60413196D01*
X178116428Y-60407235D01*
X178093329Y-60398970D01*
X178071150Y-60388480D01*
X178050107Y-60375868D01*
X178030401Y-60361253D01*
X178012223Y-60344777D01*
X177995747Y-60326599D01*
X177981132Y-60306893D01*
X177968520Y-60285850D01*
X177958030Y-60263671D01*
X177949765Y-60240572D01*
X177943804Y-60216773D01*
X177940204Y-60192505D01*
X177939000Y-60168001D01*
X177939000Y-59267999D01*
X177940204Y-59243495D01*
X177943804Y-59219227D01*
X177949765Y-59195428D01*
X177958030Y-59172329D01*
X177968520Y-59150150D01*
X177981132Y-59129107D01*
X177995747Y-59109401D01*
X178012223Y-59091223D01*
X178030401Y-59074747D01*
X178050107Y-59060132D01*
X178071150Y-59047520D01*
X178093329Y-59037030D01*
X178116428Y-59028765D01*
X178140227Y-59022804D01*
X178164495Y-59019204D01*
X178188999Y-59018000D01*
X178839001Y-59018000D01*
X178863505Y-59019204D01*
X178863505Y-59019204D01*
G37*
D11*
X178514000Y-59718000D03*
G04 #@! TD*
D10*
G04 #@! TO.C,C6*
G36*
X172132505Y-53685204D02*
X172156773Y-53688804D01*
X172180572Y-53694765D01*
X172203671Y-53703030D01*
X172225850Y-53713520D01*
X172246893Y-53726132D01*
X172266599Y-53740747D01*
X172284777Y-53757223D01*
X172301253Y-53775401D01*
X172315868Y-53795107D01*
X172328480Y-53816150D01*
X172338970Y-53838329D01*
X172347235Y-53861428D01*
X172353196Y-53885227D01*
X172356796Y-53909495D01*
X172358000Y-53933999D01*
X172358000Y-54834001D01*
X172356796Y-54858505D01*
X172353196Y-54882773D01*
X172347235Y-54906572D01*
X172338970Y-54929671D01*
X172328480Y-54951850D01*
X172315868Y-54972893D01*
X172301253Y-54992599D01*
X172284777Y-55010777D01*
X172266599Y-55027253D01*
X172246893Y-55041868D01*
X172225850Y-55054480D01*
X172203671Y-55064970D01*
X172180572Y-55073235D01*
X172156773Y-55079196D01*
X172132505Y-55082796D01*
X172108001Y-55084000D01*
X171457999Y-55084000D01*
X171433495Y-55082796D01*
X171409227Y-55079196D01*
X171385428Y-55073235D01*
X171362329Y-55064970D01*
X171340150Y-55054480D01*
X171319107Y-55041868D01*
X171299401Y-55027253D01*
X171281223Y-55010777D01*
X171264747Y-54992599D01*
X171250132Y-54972893D01*
X171237520Y-54951850D01*
X171227030Y-54929671D01*
X171218765Y-54906572D01*
X171212804Y-54882773D01*
X171209204Y-54858505D01*
X171208000Y-54834001D01*
X171208000Y-53933999D01*
X171209204Y-53909495D01*
X171212804Y-53885227D01*
X171218765Y-53861428D01*
X171227030Y-53838329D01*
X171237520Y-53816150D01*
X171250132Y-53795107D01*
X171264747Y-53775401D01*
X171281223Y-53757223D01*
X171299401Y-53740747D01*
X171319107Y-53726132D01*
X171340150Y-53713520D01*
X171362329Y-53703030D01*
X171385428Y-53694765D01*
X171409227Y-53688804D01*
X171433495Y-53685204D01*
X171457999Y-53684000D01*
X172108001Y-53684000D01*
X172132505Y-53685204D01*
X172132505Y-53685204D01*
G37*
D11*
X171783000Y-54384000D03*
D10*
G36*
X170082505Y-53685204D02*
X170106773Y-53688804D01*
X170130572Y-53694765D01*
X170153671Y-53703030D01*
X170175850Y-53713520D01*
X170196893Y-53726132D01*
X170216599Y-53740747D01*
X170234777Y-53757223D01*
X170251253Y-53775401D01*
X170265868Y-53795107D01*
X170278480Y-53816150D01*
X170288970Y-53838329D01*
X170297235Y-53861428D01*
X170303196Y-53885227D01*
X170306796Y-53909495D01*
X170308000Y-53933999D01*
X170308000Y-54834001D01*
X170306796Y-54858505D01*
X170303196Y-54882773D01*
X170297235Y-54906572D01*
X170288970Y-54929671D01*
X170278480Y-54951850D01*
X170265868Y-54972893D01*
X170251253Y-54992599D01*
X170234777Y-55010777D01*
X170216599Y-55027253D01*
X170196893Y-55041868D01*
X170175850Y-55054480D01*
X170153671Y-55064970D01*
X170130572Y-55073235D01*
X170106773Y-55079196D01*
X170082505Y-55082796D01*
X170058001Y-55084000D01*
X169407999Y-55084000D01*
X169383495Y-55082796D01*
X169359227Y-55079196D01*
X169335428Y-55073235D01*
X169312329Y-55064970D01*
X169290150Y-55054480D01*
X169269107Y-55041868D01*
X169249401Y-55027253D01*
X169231223Y-55010777D01*
X169214747Y-54992599D01*
X169200132Y-54972893D01*
X169187520Y-54951850D01*
X169177030Y-54929671D01*
X169168765Y-54906572D01*
X169162804Y-54882773D01*
X169159204Y-54858505D01*
X169158000Y-54834001D01*
X169158000Y-53933999D01*
X169159204Y-53909495D01*
X169162804Y-53885227D01*
X169168765Y-53861428D01*
X169177030Y-53838329D01*
X169187520Y-53816150D01*
X169200132Y-53795107D01*
X169214747Y-53775401D01*
X169231223Y-53757223D01*
X169249401Y-53740747D01*
X169269107Y-53726132D01*
X169290150Y-53713520D01*
X169312329Y-53703030D01*
X169335428Y-53694765D01*
X169359227Y-53688804D01*
X169383495Y-53685204D01*
X169407999Y-53684000D01*
X170058001Y-53684000D01*
X170082505Y-53685204D01*
X170082505Y-53685204D01*
G37*
D11*
X169733000Y-54384000D03*
G04 #@! TD*
D10*
G04 #@! TO.C,C7*
G36*
X162478505Y-47469204D02*
X162502773Y-47472804D01*
X162526572Y-47478765D01*
X162549671Y-47487030D01*
X162571850Y-47497520D01*
X162592893Y-47510132D01*
X162612599Y-47524747D01*
X162630777Y-47541223D01*
X162647253Y-47559401D01*
X162661868Y-47579107D01*
X162674480Y-47600150D01*
X162684970Y-47622329D01*
X162693235Y-47645428D01*
X162699196Y-47669227D01*
X162702796Y-47693495D01*
X162704000Y-47717999D01*
X162704000Y-48368001D01*
X162702796Y-48392505D01*
X162699196Y-48416773D01*
X162693235Y-48440572D01*
X162684970Y-48463671D01*
X162674480Y-48485850D01*
X162661868Y-48506893D01*
X162647253Y-48526599D01*
X162630777Y-48544777D01*
X162612599Y-48561253D01*
X162592893Y-48575868D01*
X162571850Y-48588480D01*
X162549671Y-48598970D01*
X162526572Y-48607235D01*
X162502773Y-48613196D01*
X162478505Y-48616796D01*
X162454001Y-48618000D01*
X161553999Y-48618000D01*
X161529495Y-48616796D01*
X161505227Y-48613196D01*
X161481428Y-48607235D01*
X161458329Y-48598970D01*
X161436150Y-48588480D01*
X161415107Y-48575868D01*
X161395401Y-48561253D01*
X161377223Y-48544777D01*
X161360747Y-48526599D01*
X161346132Y-48506893D01*
X161333520Y-48485850D01*
X161323030Y-48463671D01*
X161314765Y-48440572D01*
X161308804Y-48416773D01*
X161305204Y-48392505D01*
X161304000Y-48368001D01*
X161304000Y-47717999D01*
X161305204Y-47693495D01*
X161308804Y-47669227D01*
X161314765Y-47645428D01*
X161323030Y-47622329D01*
X161333520Y-47600150D01*
X161346132Y-47579107D01*
X161360747Y-47559401D01*
X161377223Y-47541223D01*
X161395401Y-47524747D01*
X161415107Y-47510132D01*
X161436150Y-47497520D01*
X161458329Y-47487030D01*
X161481428Y-47478765D01*
X161505227Y-47472804D01*
X161529495Y-47469204D01*
X161553999Y-47468000D01*
X162454001Y-47468000D01*
X162478505Y-47469204D01*
X162478505Y-47469204D01*
G37*
D11*
X162004000Y-48043000D03*
D10*
G36*
X162478505Y-45419204D02*
X162502773Y-45422804D01*
X162526572Y-45428765D01*
X162549671Y-45437030D01*
X162571850Y-45447520D01*
X162592893Y-45460132D01*
X162612599Y-45474747D01*
X162630777Y-45491223D01*
X162647253Y-45509401D01*
X162661868Y-45529107D01*
X162674480Y-45550150D01*
X162684970Y-45572329D01*
X162693235Y-45595428D01*
X162699196Y-45619227D01*
X162702796Y-45643495D01*
X162704000Y-45667999D01*
X162704000Y-46318001D01*
X162702796Y-46342505D01*
X162699196Y-46366773D01*
X162693235Y-46390572D01*
X162684970Y-46413671D01*
X162674480Y-46435850D01*
X162661868Y-46456893D01*
X162647253Y-46476599D01*
X162630777Y-46494777D01*
X162612599Y-46511253D01*
X162592893Y-46525868D01*
X162571850Y-46538480D01*
X162549671Y-46548970D01*
X162526572Y-46557235D01*
X162502773Y-46563196D01*
X162478505Y-46566796D01*
X162454001Y-46568000D01*
X161553999Y-46568000D01*
X161529495Y-46566796D01*
X161505227Y-46563196D01*
X161481428Y-46557235D01*
X161458329Y-46548970D01*
X161436150Y-46538480D01*
X161415107Y-46525868D01*
X161395401Y-46511253D01*
X161377223Y-46494777D01*
X161360747Y-46476599D01*
X161346132Y-46456893D01*
X161333520Y-46435850D01*
X161323030Y-46413671D01*
X161314765Y-46390572D01*
X161308804Y-46366773D01*
X161305204Y-46342505D01*
X161304000Y-46318001D01*
X161304000Y-45667999D01*
X161305204Y-45643495D01*
X161308804Y-45619227D01*
X161314765Y-45595428D01*
X161323030Y-45572329D01*
X161333520Y-45550150D01*
X161346132Y-45529107D01*
X161360747Y-45509401D01*
X161377223Y-45491223D01*
X161395401Y-45474747D01*
X161415107Y-45460132D01*
X161436150Y-45447520D01*
X161458329Y-45437030D01*
X161481428Y-45428765D01*
X161505227Y-45422804D01*
X161529495Y-45419204D01*
X161553999Y-45418000D01*
X162454001Y-45418000D01*
X162478505Y-45419204D01*
X162478505Y-45419204D01*
G37*
D11*
X162004000Y-45993000D03*
G04 #@! TD*
D10*
G04 #@! TO.C,C8*
G36*
X164258505Y-53939204D02*
X164282773Y-53942804D01*
X164306572Y-53948765D01*
X164329671Y-53957030D01*
X164351850Y-53967520D01*
X164372893Y-53980132D01*
X164392599Y-53994747D01*
X164410777Y-54011223D01*
X164427253Y-54029401D01*
X164441868Y-54049107D01*
X164454480Y-54070150D01*
X164464970Y-54092329D01*
X164473235Y-54115428D01*
X164479196Y-54139227D01*
X164482796Y-54163495D01*
X164484000Y-54187999D01*
X164484000Y-55088001D01*
X164482796Y-55112505D01*
X164479196Y-55136773D01*
X164473235Y-55160572D01*
X164464970Y-55183671D01*
X164454480Y-55205850D01*
X164441868Y-55226893D01*
X164427253Y-55246599D01*
X164410777Y-55264777D01*
X164392599Y-55281253D01*
X164372893Y-55295868D01*
X164351850Y-55308480D01*
X164329671Y-55318970D01*
X164306572Y-55327235D01*
X164282773Y-55333196D01*
X164258505Y-55336796D01*
X164234001Y-55338000D01*
X163583999Y-55338000D01*
X163559495Y-55336796D01*
X163535227Y-55333196D01*
X163511428Y-55327235D01*
X163488329Y-55318970D01*
X163466150Y-55308480D01*
X163445107Y-55295868D01*
X163425401Y-55281253D01*
X163407223Y-55264777D01*
X163390747Y-55246599D01*
X163376132Y-55226893D01*
X163363520Y-55205850D01*
X163353030Y-55183671D01*
X163344765Y-55160572D01*
X163338804Y-55136773D01*
X163335204Y-55112505D01*
X163334000Y-55088001D01*
X163334000Y-54187999D01*
X163335204Y-54163495D01*
X163338804Y-54139227D01*
X163344765Y-54115428D01*
X163353030Y-54092329D01*
X163363520Y-54070150D01*
X163376132Y-54049107D01*
X163390747Y-54029401D01*
X163407223Y-54011223D01*
X163425401Y-53994747D01*
X163445107Y-53980132D01*
X163466150Y-53967520D01*
X163488329Y-53957030D01*
X163511428Y-53948765D01*
X163535227Y-53942804D01*
X163559495Y-53939204D01*
X163583999Y-53938000D01*
X164234001Y-53938000D01*
X164258505Y-53939204D01*
X164258505Y-53939204D01*
G37*
D11*
X163909000Y-54638000D03*
D10*
G36*
X162208505Y-53939204D02*
X162232773Y-53942804D01*
X162256572Y-53948765D01*
X162279671Y-53957030D01*
X162301850Y-53967520D01*
X162322893Y-53980132D01*
X162342599Y-53994747D01*
X162360777Y-54011223D01*
X162377253Y-54029401D01*
X162391868Y-54049107D01*
X162404480Y-54070150D01*
X162414970Y-54092329D01*
X162423235Y-54115428D01*
X162429196Y-54139227D01*
X162432796Y-54163495D01*
X162434000Y-54187999D01*
X162434000Y-55088001D01*
X162432796Y-55112505D01*
X162429196Y-55136773D01*
X162423235Y-55160572D01*
X162414970Y-55183671D01*
X162404480Y-55205850D01*
X162391868Y-55226893D01*
X162377253Y-55246599D01*
X162360777Y-55264777D01*
X162342599Y-55281253D01*
X162322893Y-55295868D01*
X162301850Y-55308480D01*
X162279671Y-55318970D01*
X162256572Y-55327235D01*
X162232773Y-55333196D01*
X162208505Y-55336796D01*
X162184001Y-55338000D01*
X161533999Y-55338000D01*
X161509495Y-55336796D01*
X161485227Y-55333196D01*
X161461428Y-55327235D01*
X161438329Y-55318970D01*
X161416150Y-55308480D01*
X161395107Y-55295868D01*
X161375401Y-55281253D01*
X161357223Y-55264777D01*
X161340747Y-55246599D01*
X161326132Y-55226893D01*
X161313520Y-55205850D01*
X161303030Y-55183671D01*
X161294765Y-55160572D01*
X161288804Y-55136773D01*
X161285204Y-55112505D01*
X161284000Y-55088001D01*
X161284000Y-54187999D01*
X161285204Y-54163495D01*
X161288804Y-54139227D01*
X161294765Y-54115428D01*
X161303030Y-54092329D01*
X161313520Y-54070150D01*
X161326132Y-54049107D01*
X161340747Y-54029401D01*
X161357223Y-54011223D01*
X161375401Y-53994747D01*
X161395107Y-53980132D01*
X161416150Y-53967520D01*
X161438329Y-53957030D01*
X161461428Y-53948765D01*
X161485227Y-53942804D01*
X161509495Y-53939204D01*
X161533999Y-53938000D01*
X162184001Y-53938000D01*
X162208505Y-53939204D01*
X162208505Y-53939204D01*
G37*
D11*
X161859000Y-54638000D03*
G04 #@! TD*
D10*
G04 #@! TO.C,C9*
G36*
X195498505Y-40094204D02*
X195522773Y-40097804D01*
X195546572Y-40103765D01*
X195569671Y-40112030D01*
X195591850Y-40122520D01*
X195612893Y-40135132D01*
X195632599Y-40149747D01*
X195650777Y-40166223D01*
X195667253Y-40184401D01*
X195681868Y-40204107D01*
X195694480Y-40225150D01*
X195704970Y-40247329D01*
X195713235Y-40270428D01*
X195719196Y-40294227D01*
X195722796Y-40318495D01*
X195724000Y-40342999D01*
X195724000Y-40993001D01*
X195722796Y-41017505D01*
X195719196Y-41041773D01*
X195713235Y-41065572D01*
X195704970Y-41088671D01*
X195694480Y-41110850D01*
X195681868Y-41131893D01*
X195667253Y-41151599D01*
X195650777Y-41169777D01*
X195632599Y-41186253D01*
X195612893Y-41200868D01*
X195591850Y-41213480D01*
X195569671Y-41223970D01*
X195546572Y-41232235D01*
X195522773Y-41238196D01*
X195498505Y-41241796D01*
X195474001Y-41243000D01*
X194573999Y-41243000D01*
X194549495Y-41241796D01*
X194525227Y-41238196D01*
X194501428Y-41232235D01*
X194478329Y-41223970D01*
X194456150Y-41213480D01*
X194435107Y-41200868D01*
X194415401Y-41186253D01*
X194397223Y-41169777D01*
X194380747Y-41151599D01*
X194366132Y-41131893D01*
X194353520Y-41110850D01*
X194343030Y-41088671D01*
X194334765Y-41065572D01*
X194328804Y-41041773D01*
X194325204Y-41017505D01*
X194324000Y-40993001D01*
X194324000Y-40342999D01*
X194325204Y-40318495D01*
X194328804Y-40294227D01*
X194334765Y-40270428D01*
X194343030Y-40247329D01*
X194353520Y-40225150D01*
X194366132Y-40204107D01*
X194380747Y-40184401D01*
X194397223Y-40166223D01*
X194415401Y-40149747D01*
X194435107Y-40135132D01*
X194456150Y-40122520D01*
X194478329Y-40112030D01*
X194501428Y-40103765D01*
X194525227Y-40097804D01*
X194549495Y-40094204D01*
X194573999Y-40093000D01*
X195474001Y-40093000D01*
X195498505Y-40094204D01*
X195498505Y-40094204D01*
G37*
D11*
X195024000Y-40668000D03*
D10*
G36*
X195498505Y-38044204D02*
X195522773Y-38047804D01*
X195546572Y-38053765D01*
X195569671Y-38062030D01*
X195591850Y-38072520D01*
X195612893Y-38085132D01*
X195632599Y-38099747D01*
X195650777Y-38116223D01*
X195667253Y-38134401D01*
X195681868Y-38154107D01*
X195694480Y-38175150D01*
X195704970Y-38197329D01*
X195713235Y-38220428D01*
X195719196Y-38244227D01*
X195722796Y-38268495D01*
X195724000Y-38292999D01*
X195724000Y-38943001D01*
X195722796Y-38967505D01*
X195719196Y-38991773D01*
X195713235Y-39015572D01*
X195704970Y-39038671D01*
X195694480Y-39060850D01*
X195681868Y-39081893D01*
X195667253Y-39101599D01*
X195650777Y-39119777D01*
X195632599Y-39136253D01*
X195612893Y-39150868D01*
X195591850Y-39163480D01*
X195569671Y-39173970D01*
X195546572Y-39182235D01*
X195522773Y-39188196D01*
X195498505Y-39191796D01*
X195474001Y-39193000D01*
X194573999Y-39193000D01*
X194549495Y-39191796D01*
X194525227Y-39188196D01*
X194501428Y-39182235D01*
X194478329Y-39173970D01*
X194456150Y-39163480D01*
X194435107Y-39150868D01*
X194415401Y-39136253D01*
X194397223Y-39119777D01*
X194380747Y-39101599D01*
X194366132Y-39081893D01*
X194353520Y-39060850D01*
X194343030Y-39038671D01*
X194334765Y-39015572D01*
X194328804Y-38991773D01*
X194325204Y-38967505D01*
X194324000Y-38943001D01*
X194324000Y-38292999D01*
X194325204Y-38268495D01*
X194328804Y-38244227D01*
X194334765Y-38220428D01*
X194343030Y-38197329D01*
X194353520Y-38175150D01*
X194366132Y-38154107D01*
X194380747Y-38134401D01*
X194397223Y-38116223D01*
X194415401Y-38099747D01*
X194435107Y-38085132D01*
X194456150Y-38072520D01*
X194478329Y-38062030D01*
X194501428Y-38053765D01*
X194525227Y-38047804D01*
X194549495Y-38044204D01*
X194573999Y-38043000D01*
X195474001Y-38043000D01*
X195498505Y-38044204D01*
X195498505Y-38044204D01*
G37*
D11*
X195024000Y-38618000D03*
G04 #@! TD*
D10*
G04 #@! TO.C,C10*
G36*
X208198505Y-40874204D02*
X208222773Y-40877804D01*
X208246572Y-40883765D01*
X208269671Y-40892030D01*
X208291850Y-40902520D01*
X208312893Y-40915132D01*
X208332599Y-40929747D01*
X208350777Y-40946223D01*
X208367253Y-40964401D01*
X208381868Y-40984107D01*
X208394480Y-41005150D01*
X208404970Y-41027329D01*
X208413235Y-41050428D01*
X208419196Y-41074227D01*
X208422796Y-41098495D01*
X208424000Y-41122999D01*
X208424000Y-41773001D01*
X208422796Y-41797505D01*
X208419196Y-41821773D01*
X208413235Y-41845572D01*
X208404970Y-41868671D01*
X208394480Y-41890850D01*
X208381868Y-41911893D01*
X208367253Y-41931599D01*
X208350777Y-41949777D01*
X208332599Y-41966253D01*
X208312893Y-41980868D01*
X208291850Y-41993480D01*
X208269671Y-42003970D01*
X208246572Y-42012235D01*
X208222773Y-42018196D01*
X208198505Y-42021796D01*
X208174001Y-42023000D01*
X207273999Y-42023000D01*
X207249495Y-42021796D01*
X207225227Y-42018196D01*
X207201428Y-42012235D01*
X207178329Y-42003970D01*
X207156150Y-41993480D01*
X207135107Y-41980868D01*
X207115401Y-41966253D01*
X207097223Y-41949777D01*
X207080747Y-41931599D01*
X207066132Y-41911893D01*
X207053520Y-41890850D01*
X207043030Y-41868671D01*
X207034765Y-41845572D01*
X207028804Y-41821773D01*
X207025204Y-41797505D01*
X207024000Y-41773001D01*
X207024000Y-41122999D01*
X207025204Y-41098495D01*
X207028804Y-41074227D01*
X207034765Y-41050428D01*
X207043030Y-41027329D01*
X207053520Y-41005150D01*
X207066132Y-40984107D01*
X207080747Y-40964401D01*
X207097223Y-40946223D01*
X207115401Y-40929747D01*
X207135107Y-40915132D01*
X207156150Y-40902520D01*
X207178329Y-40892030D01*
X207201428Y-40883765D01*
X207225227Y-40877804D01*
X207249495Y-40874204D01*
X207273999Y-40873000D01*
X208174001Y-40873000D01*
X208198505Y-40874204D01*
X208198505Y-40874204D01*
G37*
D11*
X207724000Y-41448000D03*
D10*
G36*
X208198505Y-38824204D02*
X208222773Y-38827804D01*
X208246572Y-38833765D01*
X208269671Y-38842030D01*
X208291850Y-38852520D01*
X208312893Y-38865132D01*
X208332599Y-38879747D01*
X208350777Y-38896223D01*
X208367253Y-38914401D01*
X208381868Y-38934107D01*
X208394480Y-38955150D01*
X208404970Y-38977329D01*
X208413235Y-39000428D01*
X208419196Y-39024227D01*
X208422796Y-39048495D01*
X208424000Y-39072999D01*
X208424000Y-39723001D01*
X208422796Y-39747505D01*
X208419196Y-39771773D01*
X208413235Y-39795572D01*
X208404970Y-39818671D01*
X208394480Y-39840850D01*
X208381868Y-39861893D01*
X208367253Y-39881599D01*
X208350777Y-39899777D01*
X208332599Y-39916253D01*
X208312893Y-39930868D01*
X208291850Y-39943480D01*
X208269671Y-39953970D01*
X208246572Y-39962235D01*
X208222773Y-39968196D01*
X208198505Y-39971796D01*
X208174001Y-39973000D01*
X207273999Y-39973000D01*
X207249495Y-39971796D01*
X207225227Y-39968196D01*
X207201428Y-39962235D01*
X207178329Y-39953970D01*
X207156150Y-39943480D01*
X207135107Y-39930868D01*
X207115401Y-39916253D01*
X207097223Y-39899777D01*
X207080747Y-39881599D01*
X207066132Y-39861893D01*
X207053520Y-39840850D01*
X207043030Y-39818671D01*
X207034765Y-39795572D01*
X207028804Y-39771773D01*
X207025204Y-39747505D01*
X207024000Y-39723001D01*
X207024000Y-39072999D01*
X207025204Y-39048495D01*
X207028804Y-39024227D01*
X207034765Y-39000428D01*
X207043030Y-38977329D01*
X207053520Y-38955150D01*
X207066132Y-38934107D01*
X207080747Y-38914401D01*
X207097223Y-38896223D01*
X207115401Y-38879747D01*
X207135107Y-38865132D01*
X207156150Y-38852520D01*
X207178329Y-38842030D01*
X207201428Y-38833765D01*
X207225227Y-38827804D01*
X207249495Y-38824204D01*
X207273999Y-38823000D01*
X208174001Y-38823000D01*
X208198505Y-38824204D01*
X208198505Y-38824204D01*
G37*
D11*
X207724000Y-39398000D03*
G04 #@! TD*
D10*
G04 #@! TO.C,R1*
G36*
X184433505Y-45049204D02*
X184457773Y-45052804D01*
X184481572Y-45058765D01*
X184504671Y-45067030D01*
X184526850Y-45077520D01*
X184547893Y-45090132D01*
X184567599Y-45104747D01*
X184585777Y-45121223D01*
X184602253Y-45139401D01*
X184616868Y-45159107D01*
X184629480Y-45180150D01*
X184639970Y-45202329D01*
X184648235Y-45225428D01*
X184654196Y-45249227D01*
X184657796Y-45273495D01*
X184659000Y-45297999D01*
X184659000Y-46198001D01*
X184657796Y-46222505D01*
X184654196Y-46246773D01*
X184648235Y-46270572D01*
X184639970Y-46293671D01*
X184629480Y-46315850D01*
X184616868Y-46336893D01*
X184602253Y-46356599D01*
X184585777Y-46374777D01*
X184567599Y-46391253D01*
X184547893Y-46405868D01*
X184526850Y-46418480D01*
X184504671Y-46428970D01*
X184481572Y-46437235D01*
X184457773Y-46443196D01*
X184433505Y-46446796D01*
X184409001Y-46448000D01*
X183758999Y-46448000D01*
X183734495Y-46446796D01*
X183710227Y-46443196D01*
X183686428Y-46437235D01*
X183663329Y-46428970D01*
X183641150Y-46418480D01*
X183620107Y-46405868D01*
X183600401Y-46391253D01*
X183582223Y-46374777D01*
X183565747Y-46356599D01*
X183551132Y-46336893D01*
X183538520Y-46315850D01*
X183528030Y-46293671D01*
X183519765Y-46270572D01*
X183513804Y-46246773D01*
X183510204Y-46222505D01*
X183509000Y-46198001D01*
X183509000Y-45297999D01*
X183510204Y-45273495D01*
X183513804Y-45249227D01*
X183519765Y-45225428D01*
X183528030Y-45202329D01*
X183538520Y-45180150D01*
X183551132Y-45159107D01*
X183565747Y-45139401D01*
X183582223Y-45121223D01*
X183600401Y-45104747D01*
X183620107Y-45090132D01*
X183641150Y-45077520D01*
X183663329Y-45067030D01*
X183686428Y-45058765D01*
X183710227Y-45052804D01*
X183734495Y-45049204D01*
X183758999Y-45048000D01*
X184409001Y-45048000D01*
X184433505Y-45049204D01*
X184433505Y-45049204D01*
G37*
D11*
X184084000Y-45748000D03*
D10*
G36*
X186483505Y-45049204D02*
X186507773Y-45052804D01*
X186531572Y-45058765D01*
X186554671Y-45067030D01*
X186576850Y-45077520D01*
X186597893Y-45090132D01*
X186617599Y-45104747D01*
X186635777Y-45121223D01*
X186652253Y-45139401D01*
X186666868Y-45159107D01*
X186679480Y-45180150D01*
X186689970Y-45202329D01*
X186698235Y-45225428D01*
X186704196Y-45249227D01*
X186707796Y-45273495D01*
X186709000Y-45297999D01*
X186709000Y-46198001D01*
X186707796Y-46222505D01*
X186704196Y-46246773D01*
X186698235Y-46270572D01*
X186689970Y-46293671D01*
X186679480Y-46315850D01*
X186666868Y-46336893D01*
X186652253Y-46356599D01*
X186635777Y-46374777D01*
X186617599Y-46391253D01*
X186597893Y-46405868D01*
X186576850Y-46418480D01*
X186554671Y-46428970D01*
X186531572Y-46437235D01*
X186507773Y-46443196D01*
X186483505Y-46446796D01*
X186459001Y-46448000D01*
X185808999Y-46448000D01*
X185784495Y-46446796D01*
X185760227Y-46443196D01*
X185736428Y-46437235D01*
X185713329Y-46428970D01*
X185691150Y-46418480D01*
X185670107Y-46405868D01*
X185650401Y-46391253D01*
X185632223Y-46374777D01*
X185615747Y-46356599D01*
X185601132Y-46336893D01*
X185588520Y-46315850D01*
X185578030Y-46293671D01*
X185569765Y-46270572D01*
X185563804Y-46246773D01*
X185560204Y-46222505D01*
X185559000Y-46198001D01*
X185559000Y-45297999D01*
X185560204Y-45273495D01*
X185563804Y-45249227D01*
X185569765Y-45225428D01*
X185578030Y-45202329D01*
X185588520Y-45180150D01*
X185601132Y-45159107D01*
X185615747Y-45139401D01*
X185632223Y-45121223D01*
X185650401Y-45104747D01*
X185670107Y-45090132D01*
X185691150Y-45077520D01*
X185713329Y-45067030D01*
X185736428Y-45058765D01*
X185760227Y-45052804D01*
X185784495Y-45049204D01*
X185808999Y-45048000D01*
X186459001Y-45048000D01*
X186483505Y-45049204D01*
X186483505Y-45049204D01*
G37*
D11*
X186134000Y-45748000D03*
G04 #@! TD*
D10*
G04 #@! TO.C,R2*
G36*
X188896505Y-46954204D02*
X188920773Y-46957804D01*
X188944572Y-46963765D01*
X188967671Y-46972030D01*
X188989850Y-46982520D01*
X189010893Y-46995132D01*
X189030599Y-47009747D01*
X189048777Y-47026223D01*
X189065253Y-47044401D01*
X189079868Y-47064107D01*
X189092480Y-47085150D01*
X189102970Y-47107329D01*
X189111235Y-47130428D01*
X189117196Y-47154227D01*
X189120796Y-47178495D01*
X189122000Y-47202999D01*
X189122000Y-48103001D01*
X189120796Y-48127505D01*
X189117196Y-48151773D01*
X189111235Y-48175572D01*
X189102970Y-48198671D01*
X189092480Y-48220850D01*
X189079868Y-48241893D01*
X189065253Y-48261599D01*
X189048777Y-48279777D01*
X189030599Y-48296253D01*
X189010893Y-48310868D01*
X188989850Y-48323480D01*
X188967671Y-48333970D01*
X188944572Y-48342235D01*
X188920773Y-48348196D01*
X188896505Y-48351796D01*
X188872001Y-48353000D01*
X188221999Y-48353000D01*
X188197495Y-48351796D01*
X188173227Y-48348196D01*
X188149428Y-48342235D01*
X188126329Y-48333970D01*
X188104150Y-48323480D01*
X188083107Y-48310868D01*
X188063401Y-48296253D01*
X188045223Y-48279777D01*
X188028747Y-48261599D01*
X188014132Y-48241893D01*
X188001520Y-48220850D01*
X187991030Y-48198671D01*
X187982765Y-48175572D01*
X187976804Y-48151773D01*
X187973204Y-48127505D01*
X187972000Y-48103001D01*
X187972000Y-47202999D01*
X187973204Y-47178495D01*
X187976804Y-47154227D01*
X187982765Y-47130428D01*
X187991030Y-47107329D01*
X188001520Y-47085150D01*
X188014132Y-47064107D01*
X188028747Y-47044401D01*
X188045223Y-47026223D01*
X188063401Y-47009747D01*
X188083107Y-46995132D01*
X188104150Y-46982520D01*
X188126329Y-46972030D01*
X188149428Y-46963765D01*
X188173227Y-46957804D01*
X188197495Y-46954204D01*
X188221999Y-46953000D01*
X188872001Y-46953000D01*
X188896505Y-46954204D01*
X188896505Y-46954204D01*
G37*
D11*
X188547000Y-47653000D03*
D10*
G36*
X186846505Y-46954204D02*
X186870773Y-46957804D01*
X186894572Y-46963765D01*
X186917671Y-46972030D01*
X186939850Y-46982520D01*
X186960893Y-46995132D01*
X186980599Y-47009747D01*
X186998777Y-47026223D01*
X187015253Y-47044401D01*
X187029868Y-47064107D01*
X187042480Y-47085150D01*
X187052970Y-47107329D01*
X187061235Y-47130428D01*
X187067196Y-47154227D01*
X187070796Y-47178495D01*
X187072000Y-47202999D01*
X187072000Y-48103001D01*
X187070796Y-48127505D01*
X187067196Y-48151773D01*
X187061235Y-48175572D01*
X187052970Y-48198671D01*
X187042480Y-48220850D01*
X187029868Y-48241893D01*
X187015253Y-48261599D01*
X186998777Y-48279777D01*
X186980599Y-48296253D01*
X186960893Y-48310868D01*
X186939850Y-48323480D01*
X186917671Y-48333970D01*
X186894572Y-48342235D01*
X186870773Y-48348196D01*
X186846505Y-48351796D01*
X186822001Y-48353000D01*
X186171999Y-48353000D01*
X186147495Y-48351796D01*
X186123227Y-48348196D01*
X186099428Y-48342235D01*
X186076329Y-48333970D01*
X186054150Y-48323480D01*
X186033107Y-48310868D01*
X186013401Y-48296253D01*
X185995223Y-48279777D01*
X185978747Y-48261599D01*
X185964132Y-48241893D01*
X185951520Y-48220850D01*
X185941030Y-48198671D01*
X185932765Y-48175572D01*
X185926804Y-48151773D01*
X185923204Y-48127505D01*
X185922000Y-48103001D01*
X185922000Y-47202999D01*
X185923204Y-47178495D01*
X185926804Y-47154227D01*
X185932765Y-47130428D01*
X185941030Y-47107329D01*
X185951520Y-47085150D01*
X185964132Y-47064107D01*
X185978747Y-47044401D01*
X185995223Y-47026223D01*
X186013401Y-47009747D01*
X186033107Y-46995132D01*
X186054150Y-46982520D01*
X186076329Y-46972030D01*
X186099428Y-46963765D01*
X186123227Y-46957804D01*
X186147495Y-46954204D01*
X186171999Y-46953000D01*
X186822001Y-46953000D01*
X186846505Y-46954204D01*
X186846505Y-46954204D01*
G37*
D11*
X186497000Y-47653000D03*
G04 #@! TD*
D10*
G04 #@! TO.C,R3*
G36*
X166923505Y-60559204D02*
X166947773Y-60562804D01*
X166971572Y-60568765D01*
X166994671Y-60577030D01*
X167016850Y-60587520D01*
X167037893Y-60600132D01*
X167057599Y-60614747D01*
X167075777Y-60631223D01*
X167092253Y-60649401D01*
X167106868Y-60669107D01*
X167119480Y-60690150D01*
X167129970Y-60712329D01*
X167138235Y-60735428D01*
X167144196Y-60759227D01*
X167147796Y-60783495D01*
X167149000Y-60807999D01*
X167149000Y-61458001D01*
X167147796Y-61482505D01*
X167144196Y-61506773D01*
X167138235Y-61530572D01*
X167129970Y-61553671D01*
X167119480Y-61575850D01*
X167106868Y-61596893D01*
X167092253Y-61616599D01*
X167075777Y-61634777D01*
X167057599Y-61651253D01*
X167037893Y-61665868D01*
X167016850Y-61678480D01*
X166994671Y-61688970D01*
X166971572Y-61697235D01*
X166947773Y-61703196D01*
X166923505Y-61706796D01*
X166899001Y-61708000D01*
X165998999Y-61708000D01*
X165974495Y-61706796D01*
X165950227Y-61703196D01*
X165926428Y-61697235D01*
X165903329Y-61688970D01*
X165881150Y-61678480D01*
X165860107Y-61665868D01*
X165840401Y-61651253D01*
X165822223Y-61634777D01*
X165805747Y-61616599D01*
X165791132Y-61596893D01*
X165778520Y-61575850D01*
X165768030Y-61553671D01*
X165759765Y-61530572D01*
X165753804Y-61506773D01*
X165750204Y-61482505D01*
X165749000Y-61458001D01*
X165749000Y-60807999D01*
X165750204Y-60783495D01*
X165753804Y-60759227D01*
X165759765Y-60735428D01*
X165768030Y-60712329D01*
X165778520Y-60690150D01*
X165791132Y-60669107D01*
X165805747Y-60649401D01*
X165822223Y-60631223D01*
X165840401Y-60614747D01*
X165860107Y-60600132D01*
X165881150Y-60587520D01*
X165903329Y-60577030D01*
X165926428Y-60568765D01*
X165950227Y-60562804D01*
X165974495Y-60559204D01*
X165998999Y-60558000D01*
X166899001Y-60558000D01*
X166923505Y-60559204D01*
X166923505Y-60559204D01*
G37*
D11*
X166449000Y-61133000D03*
D10*
G36*
X166923505Y-58509204D02*
X166947773Y-58512804D01*
X166971572Y-58518765D01*
X166994671Y-58527030D01*
X167016850Y-58537520D01*
X167037893Y-58550132D01*
X167057599Y-58564747D01*
X167075777Y-58581223D01*
X167092253Y-58599401D01*
X167106868Y-58619107D01*
X167119480Y-58640150D01*
X167129970Y-58662329D01*
X167138235Y-58685428D01*
X167144196Y-58709227D01*
X167147796Y-58733495D01*
X167149000Y-58757999D01*
X167149000Y-59408001D01*
X167147796Y-59432505D01*
X167144196Y-59456773D01*
X167138235Y-59480572D01*
X167129970Y-59503671D01*
X167119480Y-59525850D01*
X167106868Y-59546893D01*
X167092253Y-59566599D01*
X167075777Y-59584777D01*
X167057599Y-59601253D01*
X167037893Y-59615868D01*
X167016850Y-59628480D01*
X166994671Y-59638970D01*
X166971572Y-59647235D01*
X166947773Y-59653196D01*
X166923505Y-59656796D01*
X166899001Y-59658000D01*
X165998999Y-59658000D01*
X165974495Y-59656796D01*
X165950227Y-59653196D01*
X165926428Y-59647235D01*
X165903329Y-59638970D01*
X165881150Y-59628480D01*
X165860107Y-59615868D01*
X165840401Y-59601253D01*
X165822223Y-59584777D01*
X165805747Y-59566599D01*
X165791132Y-59546893D01*
X165778520Y-59525850D01*
X165768030Y-59503671D01*
X165759765Y-59480572D01*
X165753804Y-59456773D01*
X165750204Y-59432505D01*
X165749000Y-59408001D01*
X165749000Y-58757999D01*
X165750204Y-58733495D01*
X165753804Y-58709227D01*
X165759765Y-58685428D01*
X165768030Y-58662329D01*
X165778520Y-58640150D01*
X165791132Y-58619107D01*
X165805747Y-58599401D01*
X165822223Y-58581223D01*
X165840401Y-58564747D01*
X165860107Y-58550132D01*
X165881150Y-58537520D01*
X165903329Y-58527030D01*
X165926428Y-58518765D01*
X165950227Y-58512804D01*
X165974495Y-58509204D01*
X165998999Y-58508000D01*
X166899001Y-58508000D01*
X166923505Y-58509204D01*
X166923505Y-58509204D01*
G37*
D11*
X166449000Y-59083000D03*
G04 #@! TD*
D10*
G04 #@! TO.C,R4*
G36*
X164383505Y-58509204D02*
X164407773Y-58512804D01*
X164431572Y-58518765D01*
X164454671Y-58527030D01*
X164476850Y-58537520D01*
X164497893Y-58550132D01*
X164517599Y-58564747D01*
X164535777Y-58581223D01*
X164552253Y-58599401D01*
X164566868Y-58619107D01*
X164579480Y-58640150D01*
X164589970Y-58662329D01*
X164598235Y-58685428D01*
X164604196Y-58709227D01*
X164607796Y-58733495D01*
X164609000Y-58757999D01*
X164609000Y-59408001D01*
X164607796Y-59432505D01*
X164604196Y-59456773D01*
X164598235Y-59480572D01*
X164589970Y-59503671D01*
X164579480Y-59525850D01*
X164566868Y-59546893D01*
X164552253Y-59566599D01*
X164535777Y-59584777D01*
X164517599Y-59601253D01*
X164497893Y-59615868D01*
X164476850Y-59628480D01*
X164454671Y-59638970D01*
X164431572Y-59647235D01*
X164407773Y-59653196D01*
X164383505Y-59656796D01*
X164359001Y-59658000D01*
X163458999Y-59658000D01*
X163434495Y-59656796D01*
X163410227Y-59653196D01*
X163386428Y-59647235D01*
X163363329Y-59638970D01*
X163341150Y-59628480D01*
X163320107Y-59615868D01*
X163300401Y-59601253D01*
X163282223Y-59584777D01*
X163265747Y-59566599D01*
X163251132Y-59546893D01*
X163238520Y-59525850D01*
X163228030Y-59503671D01*
X163219765Y-59480572D01*
X163213804Y-59456773D01*
X163210204Y-59432505D01*
X163209000Y-59408001D01*
X163209000Y-58757999D01*
X163210204Y-58733495D01*
X163213804Y-58709227D01*
X163219765Y-58685428D01*
X163228030Y-58662329D01*
X163238520Y-58640150D01*
X163251132Y-58619107D01*
X163265747Y-58599401D01*
X163282223Y-58581223D01*
X163300401Y-58564747D01*
X163320107Y-58550132D01*
X163341150Y-58537520D01*
X163363329Y-58527030D01*
X163386428Y-58518765D01*
X163410227Y-58512804D01*
X163434495Y-58509204D01*
X163458999Y-58508000D01*
X164359001Y-58508000D01*
X164383505Y-58509204D01*
X164383505Y-58509204D01*
G37*
D11*
X163909000Y-59083000D03*
D10*
G36*
X164383505Y-60559204D02*
X164407773Y-60562804D01*
X164431572Y-60568765D01*
X164454671Y-60577030D01*
X164476850Y-60587520D01*
X164497893Y-60600132D01*
X164517599Y-60614747D01*
X164535777Y-60631223D01*
X164552253Y-60649401D01*
X164566868Y-60669107D01*
X164579480Y-60690150D01*
X164589970Y-60712329D01*
X164598235Y-60735428D01*
X164604196Y-60759227D01*
X164607796Y-60783495D01*
X164609000Y-60807999D01*
X164609000Y-61458001D01*
X164607796Y-61482505D01*
X164604196Y-61506773D01*
X164598235Y-61530572D01*
X164589970Y-61553671D01*
X164579480Y-61575850D01*
X164566868Y-61596893D01*
X164552253Y-61616599D01*
X164535777Y-61634777D01*
X164517599Y-61651253D01*
X164497893Y-61665868D01*
X164476850Y-61678480D01*
X164454671Y-61688970D01*
X164431572Y-61697235D01*
X164407773Y-61703196D01*
X164383505Y-61706796D01*
X164359001Y-61708000D01*
X163458999Y-61708000D01*
X163434495Y-61706796D01*
X163410227Y-61703196D01*
X163386428Y-61697235D01*
X163363329Y-61688970D01*
X163341150Y-61678480D01*
X163320107Y-61665868D01*
X163300401Y-61651253D01*
X163282223Y-61634777D01*
X163265747Y-61616599D01*
X163251132Y-61596893D01*
X163238520Y-61575850D01*
X163228030Y-61553671D01*
X163219765Y-61530572D01*
X163213804Y-61506773D01*
X163210204Y-61482505D01*
X163209000Y-61458001D01*
X163209000Y-60807999D01*
X163210204Y-60783495D01*
X163213804Y-60759227D01*
X163219765Y-60735428D01*
X163228030Y-60712329D01*
X163238520Y-60690150D01*
X163251132Y-60669107D01*
X163265747Y-60649401D01*
X163282223Y-60631223D01*
X163300401Y-60614747D01*
X163320107Y-60600132D01*
X163341150Y-60587520D01*
X163363329Y-60577030D01*
X163386428Y-60568765D01*
X163410227Y-60562804D01*
X163434495Y-60559204D01*
X163458999Y-60558000D01*
X164359001Y-60558000D01*
X164383505Y-60559204D01*
X164383505Y-60559204D01*
G37*
D11*
X163909000Y-61133000D03*
G04 #@! TD*
D10*
G04 #@! TO.C,C4*
G36*
X187878505Y-53429204D02*
X187902773Y-53432804D01*
X187926572Y-53438765D01*
X187949671Y-53447030D01*
X187971850Y-53457520D01*
X187992893Y-53470132D01*
X188012599Y-53484747D01*
X188030777Y-53501223D01*
X188047253Y-53519401D01*
X188061868Y-53539107D01*
X188074480Y-53560150D01*
X188084970Y-53582329D01*
X188093235Y-53605428D01*
X188099196Y-53629227D01*
X188102796Y-53653495D01*
X188104000Y-53677999D01*
X188104000Y-54328001D01*
X188102796Y-54352505D01*
X188099196Y-54376773D01*
X188093235Y-54400572D01*
X188084970Y-54423671D01*
X188074480Y-54445850D01*
X188061868Y-54466893D01*
X188047253Y-54486599D01*
X188030777Y-54504777D01*
X188012599Y-54521253D01*
X187992893Y-54535868D01*
X187971850Y-54548480D01*
X187949671Y-54558970D01*
X187926572Y-54567235D01*
X187902773Y-54573196D01*
X187878505Y-54576796D01*
X187854001Y-54578000D01*
X186953999Y-54578000D01*
X186929495Y-54576796D01*
X186905227Y-54573196D01*
X186881428Y-54567235D01*
X186858329Y-54558970D01*
X186836150Y-54548480D01*
X186815107Y-54535868D01*
X186795401Y-54521253D01*
X186777223Y-54504777D01*
X186760747Y-54486599D01*
X186746132Y-54466893D01*
X186733520Y-54445850D01*
X186723030Y-54423671D01*
X186714765Y-54400572D01*
X186708804Y-54376773D01*
X186705204Y-54352505D01*
X186704000Y-54328001D01*
X186704000Y-53677999D01*
X186705204Y-53653495D01*
X186708804Y-53629227D01*
X186714765Y-53605428D01*
X186723030Y-53582329D01*
X186733520Y-53560150D01*
X186746132Y-53539107D01*
X186760747Y-53519401D01*
X186777223Y-53501223D01*
X186795401Y-53484747D01*
X186815107Y-53470132D01*
X186836150Y-53457520D01*
X186858329Y-53447030D01*
X186881428Y-53438765D01*
X186905227Y-53432804D01*
X186929495Y-53429204D01*
X186953999Y-53428000D01*
X187854001Y-53428000D01*
X187878505Y-53429204D01*
X187878505Y-53429204D01*
G37*
D11*
X187404000Y-54003000D03*
D10*
G36*
X187878505Y-51379204D02*
X187902773Y-51382804D01*
X187926572Y-51388765D01*
X187949671Y-51397030D01*
X187971850Y-51407520D01*
X187992893Y-51420132D01*
X188012599Y-51434747D01*
X188030777Y-51451223D01*
X188047253Y-51469401D01*
X188061868Y-51489107D01*
X188074480Y-51510150D01*
X188084970Y-51532329D01*
X188093235Y-51555428D01*
X188099196Y-51579227D01*
X188102796Y-51603495D01*
X188104000Y-51627999D01*
X188104000Y-52278001D01*
X188102796Y-52302505D01*
X188099196Y-52326773D01*
X188093235Y-52350572D01*
X188084970Y-52373671D01*
X188074480Y-52395850D01*
X188061868Y-52416893D01*
X188047253Y-52436599D01*
X188030777Y-52454777D01*
X188012599Y-52471253D01*
X187992893Y-52485868D01*
X187971850Y-52498480D01*
X187949671Y-52508970D01*
X187926572Y-52517235D01*
X187902773Y-52523196D01*
X187878505Y-52526796D01*
X187854001Y-52528000D01*
X186953999Y-52528000D01*
X186929495Y-52526796D01*
X186905227Y-52523196D01*
X186881428Y-52517235D01*
X186858329Y-52508970D01*
X186836150Y-52498480D01*
X186815107Y-52485868D01*
X186795401Y-52471253D01*
X186777223Y-52454777D01*
X186760747Y-52436599D01*
X186746132Y-52416893D01*
X186733520Y-52395850D01*
X186723030Y-52373671D01*
X186714765Y-52350572D01*
X186708804Y-52326773D01*
X186705204Y-52302505D01*
X186704000Y-52278001D01*
X186704000Y-51627999D01*
X186705204Y-51603495D01*
X186708804Y-51579227D01*
X186714765Y-51555428D01*
X186723030Y-51532329D01*
X186733520Y-51510150D01*
X186746132Y-51489107D01*
X186760747Y-51469401D01*
X186777223Y-51451223D01*
X186795401Y-51434747D01*
X186815107Y-51420132D01*
X186836150Y-51407520D01*
X186858329Y-51397030D01*
X186881428Y-51388765D01*
X186905227Y-51382804D01*
X186929495Y-51379204D01*
X186953999Y-51378000D01*
X187854001Y-51378000D01*
X187878505Y-51379204D01*
X187878505Y-51379204D01*
G37*
D11*
X187404000Y-51953000D03*
G04 #@! TD*
M02*
