M48
;DRILL file {KiCad (5.0.0-3-g5ebb6b6)} date Thursday, 23 January 2020 at 02:18:24
;FORMAT={-:-/ absolute / inch / decimal}
FMAT,2
INCH,TZ
T1C0.0157
T2C0.0315
T3C0.0350
T4C0.0394
T5C0.0402
T6C0.0618
T7C0.1280
%
G90
G05
M72
T1
X6.3531Y-2.0511
X6.3781Y-1.9511
X6.4781Y-1.7011
X6.5031Y-2.2761
X6.6031Y-2.2761
X6.6281Y-2.4011
X6.6531Y-2.4546
X6.6781Y-2.0511
X6.7281Y-2.3011
X6.8272Y-2.2057
X6.8531Y-2.1761
X6.8781Y-2.0011
X6.8833Y-1.944
X7.0499Y-2.0343
X7.0824Y-2.0065
X7.1281Y-2.0011
X7.1281Y-1.9511
X7.1781Y-2.326
X7.1781Y-2.1511
X7.3281Y-2.0011
X7.4781Y-1.8511
X7.6281Y-1.6511
X7.6753Y-1.6983
X7.7031Y-1.7261
X7.7309Y-1.7539
X7.7338Y-2.0068
T2
X6.5635Y-1.8361
X6.7131Y-1.8361
T3
X7.5781Y-1.9111
X7.5781Y-2.0111
X7.5781Y-2.1111
X7.5781Y-2.2111
X7.5781Y-2.3111
X7.6781Y-1.8611
X7.6781Y-1.9611
X7.6781Y-2.0611
X7.6781Y-2.1611
X7.6781Y-2.2611
T4
X5.9281Y-2.1011
X6.0281Y-2.1011
X6.1281Y-2.1011
X6.2281Y-2.1011
X5.5734Y-1.498
X5.5734Y-1.598
X5.6734Y-1.498
X5.6734Y-1.598
X5.7734Y-1.498
X5.7734Y-1.598
X5.8734Y-1.498
X5.8734Y-1.598
X5.9734Y-1.498
X5.9734Y-1.598
X6.0734Y-1.498
X6.0734Y-1.598
X6.1734Y-1.498
X6.1734Y-1.598
X6.2734Y-1.498
X6.2734Y-1.598
X6.3734Y-1.498
X6.3734Y-1.598
X6.4734Y-1.498
X6.4734Y-1.598
X6.5734Y-1.498
X6.5734Y-1.598
X6.6734Y-1.498
X6.6734Y-1.598
X6.7734Y-1.498
X6.7734Y-1.598
X6.8734Y-1.498
X6.8734Y-1.598
X6.9734Y-1.498
X6.9734Y-1.598
X7.0734Y-1.498
X7.0734Y-1.598
X7.1734Y-1.498
X7.1734Y-1.598
X7.2734Y-1.498
X7.2734Y-1.598
X7.3734Y-1.498
X7.3734Y-1.598
X7.4734Y-1.498
X7.4734Y-1.598
X5.4031Y-1.8011
X5.5031Y-1.8011
X5.6031Y-1.8011
X5.7031Y-1.8011
X5.9281Y-1.8011
X6.0281Y-1.8011
X6.1281Y-1.8011
X6.2281Y-1.8011
X5.4031Y-1.9511
X5.5031Y-1.9511
X5.6031Y-1.9511
X5.7031Y-1.9511
X5.9281Y-1.9511
X6.0281Y-1.9511
X6.1281Y-1.9511
X6.2281Y-1.9511
X5.3641Y-2.5011
X5.4641Y-2.5011
X5.5641Y-2.5011
X5.6641Y-2.5011
X6.8531Y-2.5011
X6.9531Y-2.5011
X7.0531Y-2.5011
X7.1531Y-2.5011
X7.2531Y-2.5011
X7.3531Y-2.5011
T5
X8.0285Y-1.8184
X8.0285Y-2.3538
X8.1084Y-1.8184
X8.1084Y-2.3538
T6
X7.808Y-1.7761
X7.808Y-2.3961
T7
X7.9281Y-1.8611
X7.9281Y-2.3111
T0
M30
