G04 #@! TF.GenerationSoftware,KiCad,Pcbnew,(5.0.0-3-g5ebb6b6)*
G04 #@! TF.CreationDate,2020-01-23T02:23:46-08:00*
G04 #@! TF.ProjectId,Ethernet_Zero,45746865726E65745F5A65726F2E6B69,rev?*
G04 #@! TF.SameCoordinates,Original*
G04 #@! TF.FileFunction,Copper,L2,Bot,Signal*
G04 #@! TF.FilePolarity,Positive*
%FSLAX46Y46*%
G04 Gerber Fmt 4.6, Leading zero omitted, Abs format (unit mm)*
G04 Created by KiCad (PCBNEW (5.0.0-3-g5ebb6b6)) date Thursday, 23 January 2020 at 02:23:46*
%MOMM*%
%LPD*%
G01*
G04 APERTURE LIST*
G04 #@! TA.AperFunction,ComponentPad*
%ADD10R,1.700000X1.700000*%
G04 #@! TD*
G04 #@! TA.AperFunction,ComponentPad*
%ADD11O,1.700000X1.700000*%
G04 #@! TD*
G04 #@! TA.AperFunction,ComponentPad*
%ADD12C,1.500000*%
G04 #@! TD*
G04 #@! TA.AperFunction,ComponentPad*
%ADD13C,1.446000*%
G04 #@! TD*
G04 #@! TA.AperFunction,ComponentPad*
%ADD14C,1.530000*%
G04 #@! TD*
G04 #@! TA.AperFunction,ComponentPad*
%ADD15C,2.355000*%
G04 #@! TD*
G04 #@! TA.AperFunction,ComponentPad*
%ADD16C,1.625000*%
G04 #@! TD*
G04 #@! TA.AperFunction,ViaPad*
%ADD17C,0.800000*%
G04 #@! TD*
G04 #@! TA.AperFunction,Conductor*
%ADD18C,0.250000*%
G04 #@! TD*
G04 #@! TA.AperFunction,Conductor*
%ADD19C,0.254000*%
G04 #@! TD*
G04 APERTURE END LIST*
D10*
G04 #@! TO.P,J9,1*
G04 #@! TO.N,/5v*
X150574000Y-49558000D03*
D11*
G04 #@! TO.P,J9,2*
G04 #@! TO.N,GND*
X153114000Y-49558000D03*
G04 #@! TO.P,J9,3*
G04 #@! TO.N,/tx*
X155654000Y-49558000D03*
G04 #@! TO.P,J9,4*
G04 #@! TO.N,/rx*
X158194000Y-49558000D03*
G04 #@! TD*
G04 #@! TO.P,J8,4*
G04 #@! TO.N,/rx*
X158194000Y-53368000D03*
G04 #@! TO.P,J8,3*
G04 #@! TO.N,/tx*
X155654000Y-53368000D03*
G04 #@! TO.P,J8,2*
G04 #@! TO.N,GND*
X153114000Y-53368000D03*
D10*
G04 #@! TO.P,J8,1*
G04 #@! TO.N,/5v*
X150574000Y-53368000D03*
G04 #@! TD*
G04 #@! TO.P,J7,1*
G04 #@! TO.N,/5v*
X137239000Y-49558000D03*
D11*
G04 #@! TO.P,J7,2*
G04 #@! TO.N,GND*
X139779000Y-49558000D03*
G04 #@! TO.P,J7,3*
G04 #@! TO.N,/scl*
X142319000Y-49558000D03*
G04 #@! TO.P,J7,4*
G04 #@! TO.N,/sda*
X144859000Y-49558000D03*
G04 #@! TD*
D10*
G04 #@! TO.P,J1,1*
G04 #@! TO.N,Net-(J1-Pad1)*
X141564000Y-40588000D03*
D11*
G04 #@! TO.P,J1,2*
G04 #@! TO.N,/5v*
X141564000Y-38048000D03*
G04 #@! TO.P,J1,3*
G04 #@! TO.N,/sda*
X144104000Y-40588000D03*
G04 #@! TO.P,J1,4*
G04 #@! TO.N,/5v*
X144104000Y-38048000D03*
G04 #@! TO.P,J1,5*
G04 #@! TO.N,/scl*
X146644000Y-40588000D03*
G04 #@! TO.P,J1,6*
G04 #@! TO.N,Net-(J1-Pad6)*
X146644000Y-38048000D03*
G04 #@! TO.P,J1,7*
G04 #@! TO.N,Net-(J1-Pad7)*
X149184000Y-40588000D03*
G04 #@! TO.P,J1,8*
G04 #@! TO.N,/tx*
X149184000Y-38048000D03*
G04 #@! TO.P,J1,9*
G04 #@! TO.N,Net-(J1-Pad9)*
X151724000Y-40588000D03*
G04 #@! TO.P,J1,10*
G04 #@! TO.N,/rx*
X151724000Y-38048000D03*
G04 #@! TO.P,J1,11*
G04 #@! TO.N,Net-(J1-Pad11)*
X154264000Y-40588000D03*
G04 #@! TO.P,J1,12*
G04 #@! TO.N,Net-(J1-Pad12)*
X154264000Y-38048000D03*
G04 #@! TO.P,J1,13*
G04 #@! TO.N,Net-(J1-Pad13)*
X156804000Y-40588000D03*
G04 #@! TO.P,J1,14*
G04 #@! TO.N,Net-(J1-Pad14)*
X156804000Y-38048000D03*
G04 #@! TO.P,J1,15*
G04 #@! TO.N,Net-(J1-Pad15)*
X159344000Y-40588000D03*
G04 #@! TO.P,J1,16*
G04 #@! TO.N,Net-(J1-Pad16)*
X159344000Y-38048000D03*
G04 #@! TO.P,J1,17*
G04 #@! TO.N,+3V3*
X161884000Y-40588000D03*
G04 #@! TO.P,J1,18*
G04 #@! TO.N,Net-(J1-Pad18)*
X161884000Y-38048000D03*
G04 #@! TO.P,J1,19*
G04 #@! TO.N,Net-(J1-Pad19)*
X164424000Y-40588000D03*
G04 #@! TO.P,J1,20*
G04 #@! TO.N,GND*
X164424000Y-38048000D03*
G04 #@! TO.P,J1,21*
G04 #@! TO.N,Net-(J1-Pad21)*
X166964000Y-40588000D03*
G04 #@! TO.P,J1,22*
G04 #@! TO.N,/~INT*
X166964000Y-38048000D03*
G04 #@! TO.P,J1,23*
G04 #@! TO.N,Net-(J1-Pad23)*
X169504000Y-40588000D03*
G04 #@! TO.P,J1,24*
G04 #@! TO.N,Net-(J1-Pad24)*
X169504000Y-38048000D03*
G04 #@! TO.P,J1,25*
G04 #@! TO.N,Net-(J1-Pad25)*
X172044000Y-40588000D03*
G04 #@! TO.P,J1,26*
G04 #@! TO.N,Net-(J1-Pad26)*
X172044000Y-38048000D03*
G04 #@! TO.P,J1,27*
G04 #@! TO.N,Net-(J1-Pad27)*
X174584000Y-40588000D03*
G04 #@! TO.P,J1,28*
G04 #@! TO.N,Net-(J1-Pad28)*
X174584000Y-38048000D03*
G04 #@! TO.P,J1,29*
G04 #@! TO.N,Net-(J1-Pad29)*
X177124000Y-40588000D03*
G04 #@! TO.P,J1,30*
G04 #@! TO.N,Net-(J1-Pad30)*
X177124000Y-38048000D03*
G04 #@! TO.P,J1,31*
G04 #@! TO.N,Net-(J1-Pad31)*
X179664000Y-40588000D03*
G04 #@! TO.P,J1,32*
G04 #@! TO.N,Net-(J1-Pad32)*
X179664000Y-38048000D03*
G04 #@! TO.P,J1,33*
G04 #@! TO.N,Net-(J1-Pad33)*
X182204000Y-40588000D03*
G04 #@! TO.P,J1,34*
G04 #@! TO.N,Net-(J1-Pad34)*
X182204000Y-38048000D03*
G04 #@! TO.P,J1,35*
G04 #@! TO.N,Net-(J1-Pad35)*
X184744000Y-40588000D03*
G04 #@! TO.P,J1,36*
G04 #@! TO.N,Net-(J1-Pad36)*
X184744000Y-38048000D03*
G04 #@! TO.P,J1,37*
G04 #@! TO.N,Net-(J1-Pad37)*
X187284000Y-40588000D03*
G04 #@! TO.P,J1,38*
G04 #@! TO.N,Net-(J1-Pad38)*
X187284000Y-38048000D03*
G04 #@! TO.P,J1,39*
G04 #@! TO.N,Net-(J1-Pad39)*
X189824000Y-40588000D03*
G04 #@! TO.P,J1,40*
G04 #@! TO.N,Net-(J1-Pad40)*
X189824000Y-38048000D03*
G04 #@! TD*
D12*
G04 #@! TO.P,Y1,1*
G04 #@! TO.N,Net-(C2-Pad1)*
X170513000Y-46637000D03*
G04 #@! TO.P,Y1,2*
G04 #@! TO.N,Net-(C3-Pad1)*
X166713000Y-46637000D03*
G04 #@! TD*
D13*
G04 #@! TO.P,J5,1*
G04 #@! TO.N,Net-(J5-Pad1)*
X195024000Y-47272000D03*
G04 #@! TO.P,J5,2*
G04 #@! TO.N,Net-(J5-Pad2)*
X192484000Y-48542000D03*
G04 #@! TO.P,J5,3*
G04 #@! TO.N,Net-(J5-Pad3)*
X195024000Y-49812000D03*
G04 #@! TO.P,J5,4*
G04 #@! TO.N,Net-(J5-Pad4)*
X192484000Y-51082000D03*
G04 #@! TO.P,J5,5*
G04 #@! TO.N,Net-(J5-Pad5)*
X195024000Y-52352000D03*
G04 #@! TO.P,J5,6*
G04 #@! TO.N,Net-(J5-Pad6)*
X192484000Y-53622000D03*
G04 #@! TO.P,J5,7*
G04 #@! TO.N,/VC1+*
X195024000Y-54892000D03*
G04 #@! TO.P,J5,8*
G04 #@! TO.N,/VC1-*
X192484000Y-56162000D03*
G04 #@! TO.P,J5,9*
G04 #@! TO.N,/VC2+*
X195024000Y-57432000D03*
G04 #@! TO.P,J5,10*
G04 #@! TO.N,/VC2-*
X192484000Y-58702000D03*
D14*
G04 #@! TO.P,J5,L1*
G04 #@! TO.N,Net-(J5-PadL1)*
X203924000Y-59787000D03*
G04 #@! TO.P,J5,L2*
G04 #@! TO.N,GND*
X205954000Y-59787000D03*
G04 #@! TO.P,J5,L3*
G04 #@! TO.N,Net-(J5-PadL3)*
X203924000Y-46187000D03*
G04 #@! TO.P,J5,L4*
G04 #@! TO.N,GND*
X205954000Y-46187000D03*
D15*
G04 #@! TO.P,J5,MH1*
X198324000Y-60862000D03*
G04 #@! TO.P,J5,MH2*
X198324000Y-45112000D03*
D16*
G04 #@! TO.P,J5,MH3*
G04 #@! TO.N,N/C*
X201374000Y-58702000D03*
G04 #@! TO.P,J5,MH4*
X201374000Y-47272000D03*
G04 #@! TD*
D10*
G04 #@! TO.P,J6,1*
G04 #@! TO.N,/VC2-*
X186769000Y-63528000D03*
D11*
G04 #@! TO.P,J6,2*
G04 #@! TO.N,/VC2+*
X184229000Y-63528000D03*
G04 #@! TO.P,J6,3*
G04 #@! TO.N,/VC1-*
X181689000Y-63528000D03*
G04 #@! TO.P,J6,4*
G04 #@! TO.N,/VC1+*
X179149000Y-63528000D03*
G04 #@! TO.P,J6,5*
G04 #@! TO.N,Net-(J6-Pad5)*
X176609000Y-63528000D03*
G04 #@! TO.P,J6,6*
G04 #@! TO.N,Net-(J6-Pad6)*
X174069000Y-63528000D03*
G04 #@! TD*
D10*
G04 #@! TO.P,J2,1*
G04 #@! TO.N,/5v*
X137239000Y-45748000D03*
D11*
G04 #@! TO.P,J2,2*
G04 #@! TO.N,GND*
X139779000Y-45748000D03*
G04 #@! TO.P,J2,3*
G04 #@! TO.N,/scl*
X142319000Y-45748000D03*
G04 #@! TO.P,J2,4*
G04 #@! TO.N,/sda*
X144859000Y-45748000D03*
G04 #@! TD*
G04 #@! TO.P,J3,4*
G04 #@! TO.N,/rx*
X158194000Y-45748000D03*
G04 #@! TO.P,J3,3*
G04 #@! TO.N,/tx*
X155654000Y-45748000D03*
G04 #@! TO.P,J3,2*
G04 #@! TO.N,GND*
X153114000Y-45748000D03*
D10*
G04 #@! TO.P,J3,1*
G04 #@! TO.N,/5v*
X150574000Y-45748000D03*
G04 #@! TD*
G04 #@! TO.P,J4,1*
G04 #@! TO.N,GND*
X143869000Y-63528000D03*
D11*
G04 #@! TO.P,J4,2*
G04 #@! TO.N,/5v*
X141329000Y-63528000D03*
G04 #@! TO.P,J4,3*
G04 #@! TO.N,Net-(J4-Pad3)*
X138789000Y-63528000D03*
G04 #@! TO.P,J4,4*
G04 #@! TO.N,Net-(J4-Pad4)*
X136249000Y-63528000D03*
G04 #@! TD*
D17*
G04 #@! TO.N,GND*
X189944000Y-47018000D03*
X186134000Y-50828000D03*
X169624000Y-52098000D03*
X174704000Y-50828000D03*
X174836319Y-49377996D03*
X170894000Y-58448000D03*
X193754000Y-41938000D03*
X162004000Y-49558000D03*
X161369000Y-52098000D03*
X164544000Y-43208000D03*
X182322596Y-59081596D03*
G04 #@! TO.N,Net-(J1-Pad19)*
X179891719Y-50965601D03*
G04 #@! TO.N,Net-(J1-Pad21)*
X179067398Y-51670201D03*
G04 #@! TO.N,/~INT*
X182324000Y-54638000D03*
G04 #@! TO.N,Net-(J1-Pad23)*
X181054000Y-50828000D03*
G04 #@! TO.N,Net-(J1-Pad24)*
X181054008Y-49558000D03*
G04 #@! TO.N,Net-(J5-PadL1)*
X168354000Y-60988000D03*
G04 #@! TO.N,/LED_GREEN*
X167719000Y-57813000D03*
X173410126Y-56025268D03*
G04 #@! TO.N,/LED_YELLOW*
X165179000Y-57813000D03*
X174069000Y-55273000D03*
G04 #@! TO.N,Net-(J5-PadL3)*
X168989000Y-62348010D03*
G04 #@! TO.N,Net-(J5-Pad4)*
X194951885Y-43135885D03*
G04 #@! TO.N,Net-(J5-Pad3)*
X195659000Y-43843000D03*
G04 #@! TO.N,Net-(J5-Pad2)*
X196439232Y-50973232D03*
G04 #@! TO.N,Net-(J5-Pad1)*
X196366115Y-44550115D03*
G04 #@! TD*
D18*
G04 #@! TO.N,Net-(J1-Pad19)*
X164424000Y-40588000D02*
X166049011Y-42213011D01*
X173574021Y-44647901D02*
X179491720Y-50565602D01*
X171805422Y-42213011D02*
X173574021Y-43981610D01*
X166049011Y-42213011D02*
X171805422Y-42213011D01*
X179491720Y-50565602D02*
X179891719Y-50965601D01*
X173574021Y-43981610D02*
X173574021Y-44647901D01*
G04 #@! TO.N,Net-(J1-Pad21)*
X179149000Y-51463000D02*
X179149000Y-51670201D01*
X173124010Y-45438010D02*
X179149000Y-51463000D01*
X173124010Y-44168010D02*
X173124010Y-45438010D01*
X179149000Y-51670201D02*
X179067398Y-51670201D01*
X165862612Y-42663022D02*
X171619022Y-42663022D01*
X171619022Y-42663022D02*
X173124010Y-44168010D01*
X163859999Y-41763001D02*
X164962591Y-41763001D01*
X163248999Y-41152001D02*
X163859999Y-41763001D01*
X163859999Y-39412999D02*
X163248999Y-40023999D01*
X166964000Y-40588000D02*
X165788999Y-39412999D01*
X165788999Y-39412999D02*
X163859999Y-39412999D01*
X164962591Y-41763001D02*
X165862612Y-42663022D01*
X163248999Y-40023999D02*
X163248999Y-41152001D01*
G04 #@! TO.N,/~INT*
X175759001Y-40962003D02*
X182312089Y-47515091D01*
X182324000Y-47515091D02*
X182324000Y-53838002D01*
X173408999Y-37673997D02*
X173408999Y-38612001D01*
X175759001Y-40023999D02*
X175759001Y-40962003D01*
X174209997Y-39412999D02*
X175148001Y-39412999D01*
X172608001Y-36872999D02*
X173408999Y-37673997D01*
X168139001Y-36872999D02*
X172608001Y-36872999D01*
X182312089Y-47515091D02*
X182324000Y-47515091D01*
X182324000Y-53838002D02*
X182324000Y-54638000D01*
X175148001Y-39412999D02*
X175759001Y-40023999D01*
X166964000Y-38048000D02*
X168139001Y-36872999D01*
X173408999Y-38612001D02*
X174209997Y-39412999D01*
G04 #@! TO.N,Net-(J1-Pad23)*
X169504000Y-40588000D02*
X170679000Y-41763000D01*
X180654001Y-50428001D02*
X181054000Y-50828000D01*
X171991822Y-41763000D02*
X174024032Y-43795210D01*
X174024032Y-43798032D02*
X180654001Y-50428001D01*
X170679000Y-41763000D02*
X171991822Y-41763000D01*
X174024032Y-43795210D02*
X174024032Y-43798032D01*
G04 #@! TO.N,Net-(J1-Pad24)*
X172608001Y-39412999D02*
X173408999Y-40213997D01*
X173408999Y-41912991D02*
X180654009Y-49158001D01*
X170868999Y-39412999D02*
X172608001Y-39412999D01*
X173408999Y-40213997D02*
X173408999Y-41912991D01*
X169504000Y-38048000D02*
X170868999Y-39412999D01*
X180654009Y-49158001D02*
X181054008Y-49558000D01*
G04 #@! TO.N,Net-(J5-PadL1)*
X203159001Y-60551999D02*
X203924000Y-59787000D01*
X201346499Y-62364501D02*
X203159001Y-60551999D01*
X196400501Y-62364501D02*
X201346499Y-62364501D01*
X168989000Y-61623000D02*
X195659000Y-61623000D01*
X195659000Y-61623000D02*
X196400501Y-62364501D01*
X168354000Y-60988000D02*
X168989000Y-61623000D01*
G04 #@! TO.N,/LED_GREEN*
X169506732Y-56025268D02*
X172844441Y-56025268D01*
X172844441Y-56025268D02*
X173410126Y-56025268D01*
X167719000Y-57813000D02*
X169506732Y-56025268D01*
G04 #@! TO.N,/LED_YELLOW*
X167719000Y-55273000D02*
X174069000Y-55273000D01*
X165179000Y-57813000D02*
X167719000Y-55273000D01*
G04 #@! TO.N,Net-(J5-PadL3)*
X207089000Y-49352000D02*
X207089000Y-60265202D01*
X207089000Y-60265202D02*
X204461202Y-62893000D01*
X169829684Y-62073011D02*
X169554685Y-62348010D01*
X195472601Y-62073011D02*
X169829684Y-62073011D01*
X203924000Y-46187000D02*
X207089000Y-49352000D01*
X169554685Y-62348010D02*
X168989000Y-62348010D01*
X204461202Y-62893000D02*
X196292590Y-62893000D01*
X196292590Y-62893000D02*
X195472601Y-62073011D01*
G04 #@! TO.N,Net-(J5-Pad4)*
X194551886Y-43535884D02*
X194951885Y-43135885D01*
X191435999Y-46651771D02*
X194551886Y-43535884D01*
X192484000Y-51082000D02*
X191435999Y-50033999D01*
X191435999Y-50033999D02*
X191435999Y-46651771D01*
G04 #@! TO.N,Net-(J5-Pad3)*
X195259001Y-44242999D02*
X195659000Y-43843000D01*
X193975999Y-48763999D02*
X193975999Y-45526001D01*
X193975999Y-45526001D02*
X195259001Y-44242999D01*
X195024000Y-49812000D02*
X193975999Y-48763999D01*
G04 #@! TO.N,Net-(J5-Pad2)*
X192484000Y-48542000D02*
X192484000Y-49564476D01*
X192484000Y-49564476D02*
X193892756Y-50973232D01*
X195873547Y-50973232D02*
X196439232Y-50973232D01*
X193892756Y-50973232D02*
X195873547Y-50973232D01*
G04 #@! TO.N,Net-(J5-Pad1)*
X195966116Y-44950114D02*
X196366115Y-44550115D01*
X195024000Y-45892230D02*
X195966116Y-44950114D01*
X195024000Y-47272000D02*
X195024000Y-45892230D01*
G04 #@! TD*
D19*
G04 #@! TO.N,GND*
G36*
X209762001Y-65566000D02*
X134566000Y-65566000D01*
X134566000Y-63528000D01*
X134946983Y-63528000D01*
X135046093Y-64026260D01*
X135328335Y-64448665D01*
X135750740Y-64730907D01*
X136123231Y-64805000D01*
X136374769Y-64805000D01*
X136747260Y-64730907D01*
X137169665Y-64448665D01*
X137451907Y-64026260D01*
X137519000Y-63688960D01*
X137586093Y-64026260D01*
X137868335Y-64448665D01*
X138290740Y-64730907D01*
X138663231Y-64805000D01*
X138914769Y-64805000D01*
X139287260Y-64730907D01*
X139709665Y-64448665D01*
X139991907Y-64026260D01*
X140059000Y-63688960D01*
X140126093Y-64026260D01*
X140408335Y-64448665D01*
X140830740Y-64730907D01*
X141203231Y-64805000D01*
X141454769Y-64805000D01*
X141827260Y-64730907D01*
X142249665Y-64448665D01*
X142384000Y-64247618D01*
X142384000Y-64504309D01*
X142480673Y-64737698D01*
X142659301Y-64916327D01*
X142892690Y-65013000D01*
X143583250Y-65013000D01*
X143742000Y-64854250D01*
X143742000Y-63655000D01*
X143996000Y-63655000D01*
X143996000Y-64854250D01*
X144154750Y-65013000D01*
X144845310Y-65013000D01*
X145078699Y-64916327D01*
X145257327Y-64737698D01*
X145354000Y-64504309D01*
X145354000Y-63813750D01*
X145195250Y-63655000D01*
X143996000Y-63655000D01*
X143742000Y-63655000D01*
X143722000Y-63655000D01*
X143722000Y-63401000D01*
X143742000Y-63401000D01*
X143742000Y-62201750D01*
X143996000Y-62201750D01*
X143996000Y-63401000D01*
X145195250Y-63401000D01*
X145354000Y-63242250D01*
X145354000Y-62551691D01*
X145257327Y-62318302D01*
X145078699Y-62139673D01*
X144845310Y-62043000D01*
X144154750Y-62043000D01*
X143996000Y-62201750D01*
X143742000Y-62201750D01*
X143583250Y-62043000D01*
X142892690Y-62043000D01*
X142659301Y-62139673D01*
X142480673Y-62318302D01*
X142384000Y-62551691D01*
X142384000Y-62808382D01*
X142249665Y-62607335D01*
X141827260Y-62325093D01*
X141454769Y-62251000D01*
X141203231Y-62251000D01*
X140830740Y-62325093D01*
X140408335Y-62607335D01*
X140126093Y-63029740D01*
X140059000Y-63367040D01*
X139991907Y-63029740D01*
X139709665Y-62607335D01*
X139287260Y-62325093D01*
X138914769Y-62251000D01*
X138663231Y-62251000D01*
X138290740Y-62325093D01*
X137868335Y-62607335D01*
X137586093Y-63029740D01*
X137519000Y-63367040D01*
X137451907Y-63029740D01*
X137169665Y-62607335D01*
X136747260Y-62325093D01*
X136374769Y-62251000D01*
X136123231Y-62251000D01*
X135750740Y-62325093D01*
X135328335Y-62607335D01*
X135046093Y-63029740D01*
X134946983Y-63528000D01*
X134566000Y-63528000D01*
X134566000Y-60823499D01*
X167527000Y-60823499D01*
X167527000Y-61152501D01*
X167652903Y-61456458D01*
X167885542Y-61689097D01*
X168189499Y-61815000D01*
X168352455Y-61815000D01*
X168287903Y-61879552D01*
X168162000Y-62183509D01*
X168162000Y-62512511D01*
X168287903Y-62816468D01*
X168520542Y-63049107D01*
X168824499Y-63175010D01*
X169153501Y-63175010D01*
X169457458Y-63049107D01*
X169605935Y-62900630D01*
X169609050Y-62900010D01*
X169770065Y-62867982D01*
X169952655Y-62745980D01*
X169983454Y-62699886D01*
X170058329Y-62625011D01*
X173136524Y-62625011D01*
X172866093Y-63029740D01*
X172766983Y-63528000D01*
X172866093Y-64026260D01*
X173148335Y-64448665D01*
X173570740Y-64730907D01*
X173943231Y-64805000D01*
X174194769Y-64805000D01*
X174567260Y-64730907D01*
X174989665Y-64448665D01*
X175271907Y-64026260D01*
X175339000Y-63688960D01*
X175406093Y-64026260D01*
X175688335Y-64448665D01*
X176110740Y-64730907D01*
X176483231Y-64805000D01*
X176734769Y-64805000D01*
X177107260Y-64730907D01*
X177529665Y-64448665D01*
X177811907Y-64026260D01*
X177879000Y-63688960D01*
X177946093Y-64026260D01*
X178228335Y-64448665D01*
X178650740Y-64730907D01*
X179023231Y-64805000D01*
X179274769Y-64805000D01*
X179647260Y-64730907D01*
X180069665Y-64448665D01*
X180351907Y-64026260D01*
X180419000Y-63688960D01*
X180486093Y-64026260D01*
X180768335Y-64448665D01*
X181190740Y-64730907D01*
X181563231Y-64805000D01*
X181814769Y-64805000D01*
X182187260Y-64730907D01*
X182609665Y-64448665D01*
X182891907Y-64026260D01*
X182959000Y-63688960D01*
X183026093Y-64026260D01*
X183308335Y-64448665D01*
X183730740Y-64730907D01*
X184103231Y-64805000D01*
X184354769Y-64805000D01*
X184727260Y-64730907D01*
X185149665Y-64448665D01*
X185431907Y-64026260D01*
X185483635Y-63766206D01*
X185483635Y-64378000D01*
X185516775Y-64544607D01*
X185611150Y-64685850D01*
X185752393Y-64780225D01*
X185919000Y-64813365D01*
X187619000Y-64813365D01*
X187785607Y-64780225D01*
X187926850Y-64685850D01*
X188021225Y-64544607D01*
X188054365Y-64378000D01*
X188054365Y-62678000D01*
X188043825Y-62625011D01*
X195243956Y-62625011D01*
X195863823Y-63244879D01*
X195894620Y-63290970D01*
X196077210Y-63412972D01*
X196238225Y-63445000D01*
X196292590Y-63455814D01*
X196346955Y-63445000D01*
X204406837Y-63445000D01*
X204461202Y-63455814D01*
X204515567Y-63445000D01*
X204676582Y-63412972D01*
X204859172Y-63290970D01*
X204889970Y-63244877D01*
X207440879Y-60693969D01*
X207486970Y-60663172D01*
X207608972Y-60480582D01*
X207641000Y-60319567D01*
X207651814Y-60265202D01*
X207641000Y-60210837D01*
X207641000Y-49406365D01*
X207651814Y-49352000D01*
X207608972Y-49136620D01*
X207595114Y-49115880D01*
X207486970Y-48954030D01*
X207440880Y-48923234D01*
X206099149Y-47581503D01*
X206301850Y-47571396D01*
X206686949Y-47411883D01*
X206756782Y-47169387D01*
X205954000Y-46366605D01*
X205939858Y-46380748D01*
X205760253Y-46201143D01*
X205774395Y-46187000D01*
X206133605Y-46187000D01*
X206936387Y-46989782D01*
X207178883Y-46919949D01*
X207366132Y-46395414D01*
X207338396Y-45839150D01*
X207178883Y-45454051D01*
X206936387Y-45384218D01*
X206133605Y-46187000D01*
X205774395Y-46187000D01*
X204971613Y-45384218D01*
X204843775Y-45421032D01*
X204627356Y-45204613D01*
X205151218Y-45204613D01*
X205954000Y-46007395D01*
X206756782Y-45204613D01*
X206686949Y-44962117D01*
X206162414Y-44774868D01*
X205606150Y-44802604D01*
X205221051Y-44962117D01*
X205151218Y-45204613D01*
X204627356Y-45204613D01*
X204599214Y-45176471D01*
X204161104Y-44995000D01*
X203686896Y-44995000D01*
X203248786Y-45176471D01*
X202913471Y-45511786D01*
X202732000Y-45949896D01*
X202732000Y-46424104D01*
X202913471Y-46862214D01*
X203248786Y-47197529D01*
X203686896Y-47379000D01*
X204161104Y-47379000D01*
X204284318Y-47327963D01*
X206537000Y-49580646D01*
X206537001Y-58508588D01*
X206162414Y-58374868D01*
X205606150Y-58402604D01*
X205221051Y-58562117D01*
X205151218Y-58804613D01*
X205954000Y-59607395D01*
X205968143Y-59593253D01*
X206147748Y-59772858D01*
X206133605Y-59787000D01*
X206147748Y-59801143D01*
X205968143Y-59980748D01*
X205954000Y-59966605D01*
X205151218Y-60769387D01*
X205221051Y-61011883D01*
X205472066Y-61101491D01*
X204232557Y-62341000D01*
X202150645Y-62341000D01*
X203563683Y-60927963D01*
X203686896Y-60979000D01*
X204161104Y-60979000D01*
X204599214Y-60797529D01*
X204843775Y-60552968D01*
X204971613Y-60589782D01*
X205774395Y-59787000D01*
X204971613Y-58984218D01*
X204843775Y-59021032D01*
X204599214Y-58776471D01*
X204161104Y-58595000D01*
X203686896Y-58595000D01*
X203248786Y-58776471D01*
X202913471Y-59111786D01*
X202732000Y-59549896D01*
X202732000Y-60024104D01*
X202783037Y-60147317D01*
X201117854Y-61812501D01*
X199901746Y-61812501D01*
X200146348Y-61168899D01*
X200125075Y-60448155D01*
X199890185Y-59881080D01*
X199604908Y-59760697D01*
X198503605Y-60862000D01*
X198517748Y-60876143D01*
X198338143Y-61055748D01*
X198324000Y-61041605D01*
X198309858Y-61055748D01*
X198130253Y-60876143D01*
X198144395Y-60862000D01*
X197043092Y-59760697D01*
X196757815Y-59881080D01*
X196501652Y-60555101D01*
X196522925Y-61275845D01*
X196745215Y-61812501D01*
X196629146Y-61812501D01*
X196087769Y-61271124D01*
X196056970Y-61225030D01*
X195874380Y-61103028D01*
X195713365Y-61071000D01*
X195659000Y-61060186D01*
X195604635Y-61071000D01*
X169217646Y-61071000D01*
X169181000Y-61034354D01*
X169181000Y-60823499D01*
X169055097Y-60519542D01*
X168822458Y-60286903D01*
X168518501Y-60161000D01*
X168189499Y-60161000D01*
X167885542Y-60286903D01*
X167652903Y-60519542D01*
X167527000Y-60823499D01*
X134566000Y-60823499D01*
X134566000Y-57648499D01*
X164352000Y-57648499D01*
X164352000Y-57977501D01*
X164477903Y-58281458D01*
X164710542Y-58514097D01*
X165014499Y-58640000D01*
X165343501Y-58640000D01*
X165647458Y-58514097D01*
X165880097Y-58281458D01*
X166006000Y-57977501D01*
X166006000Y-57766645D01*
X167947646Y-55825000D01*
X168926355Y-55825000D01*
X167765355Y-56986000D01*
X167554499Y-56986000D01*
X167250542Y-57111903D01*
X167017903Y-57344542D01*
X166892000Y-57648499D01*
X166892000Y-57977501D01*
X167017903Y-58281458D01*
X167250542Y-58514097D01*
X167554499Y-58640000D01*
X167883501Y-58640000D01*
X168187458Y-58514097D01*
X168228304Y-58473251D01*
X191334000Y-58473251D01*
X191334000Y-58930749D01*
X191509077Y-59353423D01*
X191832577Y-59676923D01*
X192255251Y-59852000D01*
X192712749Y-59852000D01*
X193135423Y-59676923D01*
X193231254Y-59581092D01*
X197222697Y-59581092D01*
X198324000Y-60682395D01*
X199425303Y-59581092D01*
X199304920Y-59295815D01*
X198630899Y-59039652D01*
X197910155Y-59060925D01*
X197343080Y-59295815D01*
X197222697Y-59581092D01*
X193231254Y-59581092D01*
X193458923Y-59353423D01*
X193634000Y-58930749D01*
X193634000Y-58473251D01*
X193458923Y-58050577D01*
X193135423Y-57727077D01*
X192712749Y-57552000D01*
X192255251Y-57552000D01*
X191832577Y-57727077D01*
X191509077Y-58050577D01*
X191334000Y-58473251D01*
X168228304Y-58473251D01*
X168420097Y-58281458D01*
X168546000Y-57977501D01*
X168546000Y-57766645D01*
X169735377Y-56577268D01*
X172792571Y-56577268D01*
X172941668Y-56726365D01*
X173245625Y-56852268D01*
X173574627Y-56852268D01*
X173878584Y-56726365D01*
X174111223Y-56493726D01*
X174237126Y-56189769D01*
X174237126Y-56098498D01*
X174537458Y-55974097D01*
X174578304Y-55933251D01*
X191334000Y-55933251D01*
X191334000Y-56390749D01*
X191509077Y-56813423D01*
X191832577Y-57136923D01*
X192255251Y-57312000D01*
X192712749Y-57312000D01*
X192975292Y-57203251D01*
X193874000Y-57203251D01*
X193874000Y-57660749D01*
X194049077Y-58083423D01*
X194372577Y-58406923D01*
X194795251Y-58582000D01*
X195252749Y-58582000D01*
X195558273Y-58455448D01*
X200134500Y-58455448D01*
X200134500Y-58948552D01*
X200323203Y-59404120D01*
X200671880Y-59752797D01*
X201127448Y-59941500D01*
X201620552Y-59941500D01*
X202076120Y-59752797D01*
X202424797Y-59404120D01*
X202613500Y-58948552D01*
X202613500Y-58455448D01*
X202424797Y-57999880D01*
X202076120Y-57651203D01*
X201620552Y-57462500D01*
X201127448Y-57462500D01*
X200671880Y-57651203D01*
X200323203Y-57999880D01*
X200134500Y-58455448D01*
X195558273Y-58455448D01*
X195675423Y-58406923D01*
X195998923Y-58083423D01*
X196174000Y-57660749D01*
X196174000Y-57203251D01*
X195998923Y-56780577D01*
X195675423Y-56457077D01*
X195252749Y-56282000D01*
X194795251Y-56282000D01*
X194372577Y-56457077D01*
X194049077Y-56780577D01*
X193874000Y-57203251D01*
X192975292Y-57203251D01*
X193135423Y-57136923D01*
X193458923Y-56813423D01*
X193634000Y-56390749D01*
X193634000Y-55933251D01*
X193458923Y-55510577D01*
X193135423Y-55187077D01*
X192712749Y-55012000D01*
X192255251Y-55012000D01*
X191832577Y-55187077D01*
X191509077Y-55510577D01*
X191334000Y-55933251D01*
X174578304Y-55933251D01*
X174770097Y-55741458D01*
X174896000Y-55437501D01*
X174896000Y-55108499D01*
X174770097Y-54804542D01*
X174537458Y-54571903D01*
X174233501Y-54446000D01*
X173904499Y-54446000D01*
X173600542Y-54571903D01*
X173451445Y-54721000D01*
X167773364Y-54721000D01*
X167718999Y-54710186D01*
X167503620Y-54753028D01*
X167321030Y-54875030D01*
X167290233Y-54921121D01*
X165225355Y-56986000D01*
X165014499Y-56986000D01*
X164710542Y-57111903D01*
X164477903Y-57344542D01*
X164352000Y-57648499D01*
X134566000Y-57648499D01*
X134566000Y-52518000D01*
X149288635Y-52518000D01*
X149288635Y-54218000D01*
X149321775Y-54384607D01*
X149416150Y-54525850D01*
X149557393Y-54620225D01*
X149724000Y-54653365D01*
X151424000Y-54653365D01*
X151590607Y-54620225D01*
X151731850Y-54525850D01*
X151826225Y-54384607D01*
X151859365Y-54218000D01*
X151859365Y-54122764D01*
X151918817Y-54249358D01*
X152347076Y-54639645D01*
X152757110Y-54809476D01*
X152987000Y-54688155D01*
X152987000Y-53495000D01*
X152967000Y-53495000D01*
X152967000Y-53241000D01*
X152987000Y-53241000D01*
X152987000Y-52047845D01*
X153241000Y-52047845D01*
X153241000Y-53241000D01*
X153261000Y-53241000D01*
X153261000Y-53495000D01*
X153241000Y-53495000D01*
X153241000Y-54688155D01*
X153470890Y-54809476D01*
X153880924Y-54639645D01*
X154309183Y-54249358D01*
X154473410Y-53899660D01*
X154733335Y-54288665D01*
X155155740Y-54570907D01*
X155528231Y-54645000D01*
X155779769Y-54645000D01*
X156152260Y-54570907D01*
X156574665Y-54288665D01*
X156856907Y-53866260D01*
X156924000Y-53528960D01*
X156991093Y-53866260D01*
X157273335Y-54288665D01*
X157695740Y-54570907D01*
X158068231Y-54645000D01*
X158319769Y-54645000D01*
X158692260Y-54570907D01*
X159114665Y-54288665D01*
X159396907Y-53866260D01*
X159496017Y-53368000D01*
X159396907Y-52869740D01*
X159114665Y-52447335D01*
X158692260Y-52165093D01*
X158319769Y-52091000D01*
X158068231Y-52091000D01*
X157695740Y-52165093D01*
X157273335Y-52447335D01*
X156991093Y-52869740D01*
X156924000Y-53207040D01*
X156856907Y-52869740D01*
X156574665Y-52447335D01*
X156152260Y-52165093D01*
X155779769Y-52091000D01*
X155528231Y-52091000D01*
X155155740Y-52165093D01*
X154733335Y-52447335D01*
X154473410Y-52836340D01*
X154309183Y-52486642D01*
X153880924Y-52096355D01*
X153470890Y-51926524D01*
X153241000Y-52047845D01*
X152987000Y-52047845D01*
X152757110Y-51926524D01*
X152347076Y-52096355D01*
X151918817Y-52486642D01*
X151859365Y-52613236D01*
X151859365Y-52518000D01*
X151826225Y-52351393D01*
X151731850Y-52210150D01*
X151590607Y-52115775D01*
X151424000Y-52082635D01*
X149724000Y-52082635D01*
X149557393Y-52115775D01*
X149416150Y-52210150D01*
X149321775Y-52351393D01*
X149288635Y-52518000D01*
X134566000Y-52518000D01*
X134566000Y-48708000D01*
X135953635Y-48708000D01*
X135953635Y-50408000D01*
X135986775Y-50574607D01*
X136081150Y-50715850D01*
X136222393Y-50810225D01*
X136389000Y-50843365D01*
X138089000Y-50843365D01*
X138255607Y-50810225D01*
X138396850Y-50715850D01*
X138491225Y-50574607D01*
X138524365Y-50408000D01*
X138524365Y-50312764D01*
X138583817Y-50439358D01*
X139012076Y-50829645D01*
X139422110Y-50999476D01*
X139652000Y-50878155D01*
X139652000Y-49685000D01*
X139632000Y-49685000D01*
X139632000Y-49431000D01*
X139652000Y-49431000D01*
X139652000Y-48237845D01*
X139906000Y-48237845D01*
X139906000Y-49431000D01*
X139926000Y-49431000D01*
X139926000Y-49685000D01*
X139906000Y-49685000D01*
X139906000Y-50878155D01*
X140135890Y-50999476D01*
X140545924Y-50829645D01*
X140974183Y-50439358D01*
X141138410Y-50089660D01*
X141398335Y-50478665D01*
X141820740Y-50760907D01*
X142193231Y-50835000D01*
X142444769Y-50835000D01*
X142817260Y-50760907D01*
X143239665Y-50478665D01*
X143521907Y-50056260D01*
X143589000Y-49718960D01*
X143656093Y-50056260D01*
X143938335Y-50478665D01*
X144360740Y-50760907D01*
X144733231Y-50835000D01*
X144984769Y-50835000D01*
X145357260Y-50760907D01*
X145779665Y-50478665D01*
X146061907Y-50056260D01*
X146161017Y-49558000D01*
X146061907Y-49059740D01*
X145826882Y-48708000D01*
X149288635Y-48708000D01*
X149288635Y-50408000D01*
X149321775Y-50574607D01*
X149416150Y-50715850D01*
X149557393Y-50810225D01*
X149724000Y-50843365D01*
X151424000Y-50843365D01*
X151590607Y-50810225D01*
X151731850Y-50715850D01*
X151826225Y-50574607D01*
X151859365Y-50408000D01*
X151859365Y-50312764D01*
X151918817Y-50439358D01*
X152347076Y-50829645D01*
X152757110Y-50999476D01*
X152987000Y-50878155D01*
X152987000Y-49685000D01*
X152967000Y-49685000D01*
X152967000Y-49431000D01*
X152987000Y-49431000D01*
X152987000Y-48237845D01*
X153241000Y-48237845D01*
X153241000Y-49431000D01*
X153261000Y-49431000D01*
X153261000Y-49685000D01*
X153241000Y-49685000D01*
X153241000Y-50878155D01*
X153470890Y-50999476D01*
X153880924Y-50829645D01*
X154309183Y-50439358D01*
X154473410Y-50089660D01*
X154733335Y-50478665D01*
X155155740Y-50760907D01*
X155528231Y-50835000D01*
X155779769Y-50835000D01*
X156152260Y-50760907D01*
X156574665Y-50478665D01*
X156856907Y-50056260D01*
X156924000Y-49718960D01*
X156991093Y-50056260D01*
X157273335Y-50478665D01*
X157695740Y-50760907D01*
X158068231Y-50835000D01*
X158319769Y-50835000D01*
X158692260Y-50760907D01*
X159114665Y-50478665D01*
X159396907Y-50056260D01*
X159496017Y-49558000D01*
X159396907Y-49059740D01*
X159114665Y-48637335D01*
X158692260Y-48355093D01*
X158319769Y-48281000D01*
X158068231Y-48281000D01*
X157695740Y-48355093D01*
X157273335Y-48637335D01*
X156991093Y-49059740D01*
X156924000Y-49397040D01*
X156856907Y-49059740D01*
X156574665Y-48637335D01*
X156152260Y-48355093D01*
X155779769Y-48281000D01*
X155528231Y-48281000D01*
X155155740Y-48355093D01*
X154733335Y-48637335D01*
X154473410Y-49026340D01*
X154309183Y-48676642D01*
X153880924Y-48286355D01*
X153470890Y-48116524D01*
X153241000Y-48237845D01*
X152987000Y-48237845D01*
X152757110Y-48116524D01*
X152347076Y-48286355D01*
X151918817Y-48676642D01*
X151859365Y-48803236D01*
X151859365Y-48708000D01*
X151826225Y-48541393D01*
X151731850Y-48400150D01*
X151590607Y-48305775D01*
X151424000Y-48272635D01*
X149724000Y-48272635D01*
X149557393Y-48305775D01*
X149416150Y-48400150D01*
X149321775Y-48541393D01*
X149288635Y-48708000D01*
X145826882Y-48708000D01*
X145779665Y-48637335D01*
X145357260Y-48355093D01*
X144984769Y-48281000D01*
X144733231Y-48281000D01*
X144360740Y-48355093D01*
X143938335Y-48637335D01*
X143656093Y-49059740D01*
X143589000Y-49397040D01*
X143521907Y-49059740D01*
X143239665Y-48637335D01*
X142817260Y-48355093D01*
X142444769Y-48281000D01*
X142193231Y-48281000D01*
X141820740Y-48355093D01*
X141398335Y-48637335D01*
X141138410Y-49026340D01*
X140974183Y-48676642D01*
X140545924Y-48286355D01*
X140135890Y-48116524D01*
X139906000Y-48237845D01*
X139652000Y-48237845D01*
X139422110Y-48116524D01*
X139012076Y-48286355D01*
X138583817Y-48676642D01*
X138524365Y-48803236D01*
X138524365Y-48708000D01*
X138491225Y-48541393D01*
X138396850Y-48400150D01*
X138255607Y-48305775D01*
X138089000Y-48272635D01*
X136389000Y-48272635D01*
X136222393Y-48305775D01*
X136081150Y-48400150D01*
X135986775Y-48541393D01*
X135953635Y-48708000D01*
X134566000Y-48708000D01*
X134566000Y-44898000D01*
X135953635Y-44898000D01*
X135953635Y-46598000D01*
X135986775Y-46764607D01*
X136081150Y-46905850D01*
X136222393Y-47000225D01*
X136389000Y-47033365D01*
X138089000Y-47033365D01*
X138255607Y-47000225D01*
X138396850Y-46905850D01*
X138491225Y-46764607D01*
X138524365Y-46598000D01*
X138524365Y-46502764D01*
X138583817Y-46629358D01*
X139012076Y-47019645D01*
X139422110Y-47189476D01*
X139652000Y-47068155D01*
X139652000Y-45875000D01*
X139632000Y-45875000D01*
X139632000Y-45621000D01*
X139652000Y-45621000D01*
X139652000Y-44427845D01*
X139906000Y-44427845D01*
X139906000Y-45621000D01*
X139926000Y-45621000D01*
X139926000Y-45875000D01*
X139906000Y-45875000D01*
X139906000Y-47068155D01*
X140135890Y-47189476D01*
X140545924Y-47019645D01*
X140974183Y-46629358D01*
X141138410Y-46279660D01*
X141398335Y-46668665D01*
X141820740Y-46950907D01*
X142193231Y-47025000D01*
X142444769Y-47025000D01*
X142817260Y-46950907D01*
X143239665Y-46668665D01*
X143521907Y-46246260D01*
X143589000Y-45908960D01*
X143656093Y-46246260D01*
X143938335Y-46668665D01*
X144360740Y-46950907D01*
X144733231Y-47025000D01*
X144984769Y-47025000D01*
X145357260Y-46950907D01*
X145779665Y-46668665D01*
X146061907Y-46246260D01*
X146161017Y-45748000D01*
X146061907Y-45249740D01*
X145826882Y-44898000D01*
X149288635Y-44898000D01*
X149288635Y-46598000D01*
X149321775Y-46764607D01*
X149416150Y-46905850D01*
X149557393Y-47000225D01*
X149724000Y-47033365D01*
X151424000Y-47033365D01*
X151590607Y-47000225D01*
X151731850Y-46905850D01*
X151826225Y-46764607D01*
X151859365Y-46598000D01*
X151859365Y-46502764D01*
X151918817Y-46629358D01*
X152347076Y-47019645D01*
X152757110Y-47189476D01*
X152987000Y-47068155D01*
X152987000Y-45875000D01*
X152967000Y-45875000D01*
X152967000Y-45621000D01*
X152987000Y-45621000D01*
X152987000Y-44427845D01*
X153241000Y-44427845D01*
X153241000Y-45621000D01*
X153261000Y-45621000D01*
X153261000Y-45875000D01*
X153241000Y-45875000D01*
X153241000Y-47068155D01*
X153470890Y-47189476D01*
X153880924Y-47019645D01*
X154309183Y-46629358D01*
X154473410Y-46279660D01*
X154733335Y-46668665D01*
X155155740Y-46950907D01*
X155528231Y-47025000D01*
X155779769Y-47025000D01*
X156152260Y-46950907D01*
X156574665Y-46668665D01*
X156856907Y-46246260D01*
X156924000Y-45908960D01*
X156991093Y-46246260D01*
X157273335Y-46668665D01*
X157695740Y-46950907D01*
X158068231Y-47025000D01*
X158319769Y-47025000D01*
X158692260Y-46950907D01*
X159114665Y-46668665D01*
X159396907Y-46246260D01*
X159496017Y-45748000D01*
X159396907Y-45249740D01*
X159114665Y-44827335D01*
X158692260Y-44545093D01*
X158319769Y-44471000D01*
X158068231Y-44471000D01*
X157695740Y-44545093D01*
X157273335Y-44827335D01*
X156991093Y-45249740D01*
X156924000Y-45587040D01*
X156856907Y-45249740D01*
X156574665Y-44827335D01*
X156152260Y-44545093D01*
X155779769Y-44471000D01*
X155528231Y-44471000D01*
X155155740Y-44545093D01*
X154733335Y-44827335D01*
X154473410Y-45216340D01*
X154309183Y-44866642D01*
X153880924Y-44476355D01*
X153470890Y-44306524D01*
X153241000Y-44427845D01*
X152987000Y-44427845D01*
X152757110Y-44306524D01*
X152347076Y-44476355D01*
X151918817Y-44866642D01*
X151859365Y-44993236D01*
X151859365Y-44898000D01*
X151826225Y-44731393D01*
X151731850Y-44590150D01*
X151590607Y-44495775D01*
X151424000Y-44462635D01*
X149724000Y-44462635D01*
X149557393Y-44495775D01*
X149416150Y-44590150D01*
X149321775Y-44731393D01*
X149288635Y-44898000D01*
X145826882Y-44898000D01*
X145779665Y-44827335D01*
X145357260Y-44545093D01*
X144984769Y-44471000D01*
X144733231Y-44471000D01*
X144360740Y-44545093D01*
X143938335Y-44827335D01*
X143656093Y-45249740D01*
X143589000Y-45587040D01*
X143521907Y-45249740D01*
X143239665Y-44827335D01*
X142817260Y-44545093D01*
X142444769Y-44471000D01*
X142193231Y-44471000D01*
X141820740Y-44545093D01*
X141398335Y-44827335D01*
X141138410Y-45216340D01*
X140974183Y-44866642D01*
X140545924Y-44476355D01*
X140135890Y-44306524D01*
X139906000Y-44427845D01*
X139652000Y-44427845D01*
X139422110Y-44306524D01*
X139012076Y-44476355D01*
X138583817Y-44866642D01*
X138524365Y-44993236D01*
X138524365Y-44898000D01*
X138491225Y-44731393D01*
X138396850Y-44590150D01*
X138255607Y-44495775D01*
X138089000Y-44462635D01*
X136389000Y-44462635D01*
X136222393Y-44495775D01*
X136081150Y-44590150D01*
X135986775Y-44731393D01*
X135953635Y-44898000D01*
X134566000Y-44898000D01*
X134566000Y-38048000D01*
X140261983Y-38048000D01*
X140361093Y-38546260D01*
X140643335Y-38968665D01*
X141065740Y-39250907D01*
X141325794Y-39302635D01*
X140714000Y-39302635D01*
X140547393Y-39335775D01*
X140406150Y-39430150D01*
X140311775Y-39571393D01*
X140278635Y-39738000D01*
X140278635Y-41438000D01*
X140311775Y-41604607D01*
X140406150Y-41745850D01*
X140547393Y-41840225D01*
X140714000Y-41873365D01*
X142414000Y-41873365D01*
X142580607Y-41840225D01*
X142721850Y-41745850D01*
X142816225Y-41604607D01*
X142849365Y-41438000D01*
X142849365Y-40826206D01*
X142901093Y-41086260D01*
X143183335Y-41508665D01*
X143605740Y-41790907D01*
X143978231Y-41865000D01*
X144229769Y-41865000D01*
X144602260Y-41790907D01*
X145024665Y-41508665D01*
X145306907Y-41086260D01*
X145374000Y-40748960D01*
X145441093Y-41086260D01*
X145723335Y-41508665D01*
X146145740Y-41790907D01*
X146518231Y-41865000D01*
X146769769Y-41865000D01*
X147142260Y-41790907D01*
X147564665Y-41508665D01*
X147846907Y-41086260D01*
X147914000Y-40748960D01*
X147981093Y-41086260D01*
X148263335Y-41508665D01*
X148685740Y-41790907D01*
X149058231Y-41865000D01*
X149309769Y-41865000D01*
X149682260Y-41790907D01*
X150104665Y-41508665D01*
X150386907Y-41086260D01*
X150454000Y-40748960D01*
X150521093Y-41086260D01*
X150803335Y-41508665D01*
X151225740Y-41790907D01*
X151598231Y-41865000D01*
X151849769Y-41865000D01*
X152222260Y-41790907D01*
X152644665Y-41508665D01*
X152926907Y-41086260D01*
X152994000Y-40748960D01*
X153061093Y-41086260D01*
X153343335Y-41508665D01*
X153765740Y-41790907D01*
X154138231Y-41865000D01*
X154389769Y-41865000D01*
X154762260Y-41790907D01*
X155184665Y-41508665D01*
X155466907Y-41086260D01*
X155534000Y-40748960D01*
X155601093Y-41086260D01*
X155883335Y-41508665D01*
X156305740Y-41790907D01*
X156678231Y-41865000D01*
X156929769Y-41865000D01*
X157302260Y-41790907D01*
X157724665Y-41508665D01*
X158006907Y-41086260D01*
X158074000Y-40748960D01*
X158141093Y-41086260D01*
X158423335Y-41508665D01*
X158845740Y-41790907D01*
X159218231Y-41865000D01*
X159469769Y-41865000D01*
X159842260Y-41790907D01*
X160264665Y-41508665D01*
X160546907Y-41086260D01*
X160614000Y-40748960D01*
X160681093Y-41086260D01*
X160963335Y-41508665D01*
X161385740Y-41790907D01*
X161758231Y-41865000D01*
X162009769Y-41865000D01*
X162382260Y-41790907D01*
X162804665Y-41508665D01*
X162814048Y-41494623D01*
X162851030Y-41549971D01*
X162897120Y-41580767D01*
X163431232Y-42114880D01*
X163462029Y-42160971D01*
X163617529Y-42264872D01*
X163644619Y-42282973D01*
X163859998Y-42325815D01*
X163914363Y-42315001D01*
X164733946Y-42315001D01*
X165433845Y-43014901D01*
X165464642Y-43060992D01*
X165585735Y-43141903D01*
X165647232Y-43182994D01*
X165862612Y-43225836D01*
X165916977Y-43215022D01*
X171390377Y-43215022D01*
X172526354Y-44351000D01*
X164544000Y-44351000D01*
X164495399Y-44360667D01*
X164454197Y-44388197D01*
X164426667Y-44429399D01*
X164417000Y-44478000D01*
X164417000Y-48923000D01*
X164426667Y-48971601D01*
X164454197Y-49012803D01*
X164495399Y-49040333D01*
X164544000Y-49050000D01*
X172799000Y-49050000D01*
X172847601Y-49040333D01*
X172888803Y-49012803D01*
X172916333Y-48971601D01*
X172926000Y-48923000D01*
X172926000Y-46020645D01*
X178290382Y-51385028D01*
X178240398Y-51505700D01*
X178240398Y-51834702D01*
X178366301Y-52138659D01*
X178598940Y-52371298D01*
X178902897Y-52497201D01*
X179231899Y-52497201D01*
X179535856Y-52371298D01*
X179768495Y-52138659D01*
X179894398Y-51834702D01*
X179894398Y-51792601D01*
X180056220Y-51792601D01*
X180360177Y-51666698D01*
X180541660Y-51485215D01*
X180585542Y-51529097D01*
X180889499Y-51655000D01*
X181218501Y-51655000D01*
X181522458Y-51529097D01*
X181755097Y-51296458D01*
X181772001Y-51255649D01*
X181772001Y-53783633D01*
X181772000Y-53783638D01*
X181772000Y-54020445D01*
X181622903Y-54169542D01*
X181497000Y-54473499D01*
X181497000Y-54802501D01*
X181622903Y-55106458D01*
X181855542Y-55339097D01*
X182159499Y-55465000D01*
X182488501Y-55465000D01*
X182792458Y-55339097D01*
X183025097Y-55106458D01*
X183151000Y-54802501D01*
X183151000Y-54473499D01*
X183025097Y-54169542D01*
X182876000Y-54020445D01*
X182876000Y-53393251D01*
X191334000Y-53393251D01*
X191334000Y-53850749D01*
X191509077Y-54273423D01*
X191832577Y-54596923D01*
X192255251Y-54772000D01*
X192712749Y-54772000D01*
X192975292Y-54663251D01*
X193874000Y-54663251D01*
X193874000Y-55120749D01*
X194049077Y-55543423D01*
X194372577Y-55866923D01*
X194795251Y-56042000D01*
X195252749Y-56042000D01*
X195675423Y-55866923D01*
X195998923Y-55543423D01*
X196174000Y-55120749D01*
X196174000Y-54663251D01*
X195998923Y-54240577D01*
X195675423Y-53917077D01*
X195252749Y-53742000D01*
X194795251Y-53742000D01*
X194372577Y-53917077D01*
X194049077Y-54240577D01*
X193874000Y-54663251D01*
X192975292Y-54663251D01*
X193135423Y-54596923D01*
X193458923Y-54273423D01*
X193634000Y-53850749D01*
X193634000Y-53393251D01*
X193458923Y-52970577D01*
X193135423Y-52647077D01*
X192712749Y-52472000D01*
X192255251Y-52472000D01*
X191832577Y-52647077D01*
X191509077Y-52970577D01*
X191334000Y-53393251D01*
X182876000Y-53393251D01*
X182876000Y-47569456D01*
X182886814Y-47515091D01*
X182843972Y-47299711D01*
X182721970Y-47117121D01*
X182639984Y-47062340D01*
X182229415Y-46651771D01*
X190873185Y-46651771D01*
X190884000Y-46706141D01*
X190883999Y-49979634D01*
X190873185Y-50033999D01*
X190883999Y-50088363D01*
X190916027Y-50249378D01*
X191038029Y-50431969D01*
X191084122Y-50462767D01*
X191375182Y-50753828D01*
X191334000Y-50853251D01*
X191334000Y-51310749D01*
X191509077Y-51733423D01*
X191832577Y-52056923D01*
X192255251Y-52232000D01*
X192712749Y-52232000D01*
X193135423Y-52056923D01*
X193458923Y-51733423D01*
X193584210Y-51430953D01*
X193677376Y-51493204D01*
X193838391Y-51525232D01*
X193892756Y-51536046D01*
X193947121Y-51525232D01*
X194224422Y-51525232D01*
X194049077Y-51700577D01*
X193874000Y-52123251D01*
X193874000Y-52580749D01*
X194049077Y-53003423D01*
X194372577Y-53326923D01*
X194795251Y-53502000D01*
X195252749Y-53502000D01*
X195675423Y-53326923D01*
X195998923Y-53003423D01*
X196174000Y-52580749D01*
X196174000Y-52123251D01*
X195998923Y-51700577D01*
X195974019Y-51675673D01*
X196274731Y-51800232D01*
X196603733Y-51800232D01*
X196907690Y-51674329D01*
X197140329Y-51441690D01*
X197266232Y-51137733D01*
X197266232Y-50808731D01*
X197140329Y-50504774D01*
X196907690Y-50272135D01*
X196603733Y-50146232D01*
X196274731Y-50146232D01*
X196100397Y-50218444D01*
X196174000Y-50040749D01*
X196174000Y-49583251D01*
X195998923Y-49160577D01*
X195675423Y-48837077D01*
X195252749Y-48662000D01*
X194795251Y-48662000D01*
X194695828Y-48703182D01*
X194527999Y-48535354D01*
X194527999Y-48311301D01*
X194795251Y-48422000D01*
X195252749Y-48422000D01*
X195675423Y-48246923D01*
X195998923Y-47923423D01*
X196174000Y-47500749D01*
X196174000Y-47043251D01*
X196166626Y-47025448D01*
X200134500Y-47025448D01*
X200134500Y-47518552D01*
X200323203Y-47974120D01*
X200671880Y-48322797D01*
X201127448Y-48511500D01*
X201620552Y-48511500D01*
X202076120Y-48322797D01*
X202424797Y-47974120D01*
X202613500Y-47518552D01*
X202613500Y-47025448D01*
X202424797Y-46569880D01*
X202076120Y-46221203D01*
X201620552Y-46032500D01*
X201127448Y-46032500D01*
X200671880Y-46221203D01*
X200323203Y-46569880D01*
X200134500Y-47025448D01*
X196166626Y-47025448D01*
X195998923Y-46620577D01*
X195771254Y-46392908D01*
X197222697Y-46392908D01*
X197343080Y-46678185D01*
X198017101Y-46934348D01*
X198737845Y-46913075D01*
X199304920Y-46678185D01*
X199425303Y-46392908D01*
X198324000Y-45291605D01*
X197222697Y-46392908D01*
X195771254Y-46392908D01*
X195675423Y-46297077D01*
X195576000Y-46255895D01*
X195576000Y-46120875D01*
X196319761Y-45377115D01*
X196518535Y-45377115D01*
X196522925Y-45525845D01*
X196757815Y-46092920D01*
X197043092Y-46213303D01*
X198144395Y-45112000D01*
X198503605Y-45112000D01*
X199604908Y-46213303D01*
X199890185Y-46092920D01*
X200146348Y-45418899D01*
X200125075Y-44698155D01*
X199890185Y-44131080D01*
X199604908Y-44010697D01*
X198503605Y-45112000D01*
X198144395Y-45112000D01*
X197043092Y-44010697D01*
X197010152Y-44024597D01*
X196834573Y-43849018D01*
X196791296Y-43831092D01*
X197222697Y-43831092D01*
X198324000Y-44932395D01*
X199425303Y-43831092D01*
X199304920Y-43545815D01*
X198630899Y-43289652D01*
X197910155Y-43310925D01*
X197343080Y-43545815D01*
X197222697Y-43831092D01*
X196791296Y-43831092D01*
X196530616Y-43723115D01*
X196486000Y-43723115D01*
X196486000Y-43678499D01*
X196360097Y-43374542D01*
X196127458Y-43141903D01*
X195823501Y-43016000D01*
X195778885Y-43016000D01*
X195778885Y-42971384D01*
X195652982Y-42667427D01*
X195420343Y-42434788D01*
X195116386Y-42308885D01*
X194787384Y-42308885D01*
X194483427Y-42434788D01*
X194250788Y-42667427D01*
X194124885Y-42971384D01*
X194124885Y-43182239D01*
X191084120Y-46223005D01*
X191038030Y-46253801D01*
X190962657Y-46366605D01*
X190916027Y-46436392D01*
X190873185Y-46651771D01*
X182229415Y-46651771D01*
X177410643Y-41833000D01*
X177622260Y-41790907D01*
X178044665Y-41508665D01*
X178326907Y-41086260D01*
X178394000Y-40748960D01*
X178461093Y-41086260D01*
X178743335Y-41508665D01*
X179165740Y-41790907D01*
X179538231Y-41865000D01*
X179789769Y-41865000D01*
X180162260Y-41790907D01*
X180584665Y-41508665D01*
X180866907Y-41086260D01*
X180934000Y-40748960D01*
X181001093Y-41086260D01*
X181283335Y-41508665D01*
X181705740Y-41790907D01*
X182078231Y-41865000D01*
X182329769Y-41865000D01*
X182702260Y-41790907D01*
X183124665Y-41508665D01*
X183406907Y-41086260D01*
X183474000Y-40748960D01*
X183541093Y-41086260D01*
X183823335Y-41508665D01*
X184245740Y-41790907D01*
X184618231Y-41865000D01*
X184869769Y-41865000D01*
X185242260Y-41790907D01*
X185664665Y-41508665D01*
X185946907Y-41086260D01*
X186014000Y-40748960D01*
X186081093Y-41086260D01*
X186363335Y-41508665D01*
X186785740Y-41790907D01*
X187158231Y-41865000D01*
X187409769Y-41865000D01*
X187782260Y-41790907D01*
X188204665Y-41508665D01*
X188486907Y-41086260D01*
X188554000Y-40748960D01*
X188621093Y-41086260D01*
X188903335Y-41508665D01*
X189325740Y-41790907D01*
X189698231Y-41865000D01*
X189949769Y-41865000D01*
X190322260Y-41790907D01*
X190744665Y-41508665D01*
X191026907Y-41086260D01*
X191126017Y-40588000D01*
X191026907Y-40089740D01*
X190744665Y-39667335D01*
X190322260Y-39385093D01*
X189984960Y-39318000D01*
X190322260Y-39250907D01*
X190744665Y-38968665D01*
X191026907Y-38546260D01*
X191126017Y-38048000D01*
X191026907Y-37549740D01*
X190744665Y-37127335D01*
X190322260Y-36845093D01*
X189949769Y-36771000D01*
X189698231Y-36771000D01*
X189325740Y-36845093D01*
X188903335Y-37127335D01*
X188621093Y-37549740D01*
X188554000Y-37887040D01*
X188486907Y-37549740D01*
X188204665Y-37127335D01*
X187782260Y-36845093D01*
X187409769Y-36771000D01*
X187158231Y-36771000D01*
X186785740Y-36845093D01*
X186363335Y-37127335D01*
X186081093Y-37549740D01*
X186014000Y-37887040D01*
X185946907Y-37549740D01*
X185664665Y-37127335D01*
X185242260Y-36845093D01*
X184869769Y-36771000D01*
X184618231Y-36771000D01*
X184245740Y-36845093D01*
X183823335Y-37127335D01*
X183541093Y-37549740D01*
X183474000Y-37887040D01*
X183406907Y-37549740D01*
X183124665Y-37127335D01*
X182702260Y-36845093D01*
X182329769Y-36771000D01*
X182078231Y-36771000D01*
X181705740Y-36845093D01*
X181283335Y-37127335D01*
X181001093Y-37549740D01*
X180934000Y-37887040D01*
X180866907Y-37549740D01*
X180584665Y-37127335D01*
X180162260Y-36845093D01*
X179789769Y-36771000D01*
X179538231Y-36771000D01*
X179165740Y-36845093D01*
X178743335Y-37127335D01*
X178461093Y-37549740D01*
X178394000Y-37887040D01*
X178326907Y-37549740D01*
X178044665Y-37127335D01*
X177622260Y-36845093D01*
X177249769Y-36771000D01*
X176998231Y-36771000D01*
X176625740Y-36845093D01*
X176203335Y-37127335D01*
X175921093Y-37549740D01*
X175854000Y-37887040D01*
X175786907Y-37549740D01*
X175504665Y-37127335D01*
X175082260Y-36845093D01*
X174709769Y-36771000D01*
X174458231Y-36771000D01*
X174085740Y-36845093D01*
X173663335Y-37127335D01*
X173655183Y-37139535D01*
X173036769Y-36521122D01*
X173005971Y-36475029D01*
X172823381Y-36353027D01*
X172662366Y-36320999D01*
X172608001Y-36310185D01*
X172553636Y-36320999D01*
X168193365Y-36320999D01*
X168139000Y-36310185D01*
X167923621Y-36353027D01*
X167741031Y-36475029D01*
X167710234Y-36521120D01*
X167398870Y-36832484D01*
X167089769Y-36771000D01*
X166838231Y-36771000D01*
X166465740Y-36845093D01*
X166043335Y-37127335D01*
X165783410Y-37516340D01*
X165619183Y-37166642D01*
X165190924Y-36776355D01*
X164780890Y-36606524D01*
X164551000Y-36727845D01*
X164551000Y-37921000D01*
X164571000Y-37921000D01*
X164571000Y-38175000D01*
X164551000Y-38175000D01*
X164551000Y-38195000D01*
X164297000Y-38195000D01*
X164297000Y-38175000D01*
X164277000Y-38175000D01*
X164277000Y-37921000D01*
X164297000Y-37921000D01*
X164297000Y-36727845D01*
X164067110Y-36606524D01*
X163657076Y-36776355D01*
X163228817Y-37166642D01*
X163064590Y-37516340D01*
X162804665Y-37127335D01*
X162382260Y-36845093D01*
X162009769Y-36771000D01*
X161758231Y-36771000D01*
X161385740Y-36845093D01*
X160963335Y-37127335D01*
X160681093Y-37549740D01*
X160614000Y-37887040D01*
X160546907Y-37549740D01*
X160264665Y-37127335D01*
X159842260Y-36845093D01*
X159469769Y-36771000D01*
X159218231Y-36771000D01*
X158845740Y-36845093D01*
X158423335Y-37127335D01*
X158141093Y-37549740D01*
X158074000Y-37887040D01*
X158006907Y-37549740D01*
X157724665Y-37127335D01*
X157302260Y-36845093D01*
X156929769Y-36771000D01*
X156678231Y-36771000D01*
X156305740Y-36845093D01*
X155883335Y-37127335D01*
X155601093Y-37549740D01*
X155534000Y-37887040D01*
X155466907Y-37549740D01*
X155184665Y-37127335D01*
X154762260Y-36845093D01*
X154389769Y-36771000D01*
X154138231Y-36771000D01*
X153765740Y-36845093D01*
X153343335Y-37127335D01*
X153061093Y-37549740D01*
X152994000Y-37887040D01*
X152926907Y-37549740D01*
X152644665Y-37127335D01*
X152222260Y-36845093D01*
X151849769Y-36771000D01*
X151598231Y-36771000D01*
X151225740Y-36845093D01*
X150803335Y-37127335D01*
X150521093Y-37549740D01*
X150454000Y-37887040D01*
X150386907Y-37549740D01*
X150104665Y-37127335D01*
X149682260Y-36845093D01*
X149309769Y-36771000D01*
X149058231Y-36771000D01*
X148685740Y-36845093D01*
X148263335Y-37127335D01*
X147981093Y-37549740D01*
X147914000Y-37887040D01*
X147846907Y-37549740D01*
X147564665Y-37127335D01*
X147142260Y-36845093D01*
X146769769Y-36771000D01*
X146518231Y-36771000D01*
X146145740Y-36845093D01*
X145723335Y-37127335D01*
X145441093Y-37549740D01*
X145374000Y-37887040D01*
X145306907Y-37549740D01*
X145024665Y-37127335D01*
X144602260Y-36845093D01*
X144229769Y-36771000D01*
X143978231Y-36771000D01*
X143605740Y-36845093D01*
X143183335Y-37127335D01*
X142901093Y-37549740D01*
X142834000Y-37887040D01*
X142766907Y-37549740D01*
X142484665Y-37127335D01*
X142062260Y-36845093D01*
X141689769Y-36771000D01*
X141438231Y-36771000D01*
X141065740Y-36845093D01*
X140643335Y-37127335D01*
X140361093Y-37549740D01*
X140261983Y-38048000D01*
X134566000Y-38048000D01*
X134566000Y-36090000D01*
X209762000Y-36090000D01*
X209762001Y-65566000D01*
X209762001Y-65566000D01*
G37*
X209762001Y-65566000D02*
X134566000Y-65566000D01*
X134566000Y-63528000D01*
X134946983Y-63528000D01*
X135046093Y-64026260D01*
X135328335Y-64448665D01*
X135750740Y-64730907D01*
X136123231Y-64805000D01*
X136374769Y-64805000D01*
X136747260Y-64730907D01*
X137169665Y-64448665D01*
X137451907Y-64026260D01*
X137519000Y-63688960D01*
X137586093Y-64026260D01*
X137868335Y-64448665D01*
X138290740Y-64730907D01*
X138663231Y-64805000D01*
X138914769Y-64805000D01*
X139287260Y-64730907D01*
X139709665Y-64448665D01*
X139991907Y-64026260D01*
X140059000Y-63688960D01*
X140126093Y-64026260D01*
X140408335Y-64448665D01*
X140830740Y-64730907D01*
X141203231Y-64805000D01*
X141454769Y-64805000D01*
X141827260Y-64730907D01*
X142249665Y-64448665D01*
X142384000Y-64247618D01*
X142384000Y-64504309D01*
X142480673Y-64737698D01*
X142659301Y-64916327D01*
X142892690Y-65013000D01*
X143583250Y-65013000D01*
X143742000Y-64854250D01*
X143742000Y-63655000D01*
X143996000Y-63655000D01*
X143996000Y-64854250D01*
X144154750Y-65013000D01*
X144845310Y-65013000D01*
X145078699Y-64916327D01*
X145257327Y-64737698D01*
X145354000Y-64504309D01*
X145354000Y-63813750D01*
X145195250Y-63655000D01*
X143996000Y-63655000D01*
X143742000Y-63655000D01*
X143722000Y-63655000D01*
X143722000Y-63401000D01*
X143742000Y-63401000D01*
X143742000Y-62201750D01*
X143996000Y-62201750D01*
X143996000Y-63401000D01*
X145195250Y-63401000D01*
X145354000Y-63242250D01*
X145354000Y-62551691D01*
X145257327Y-62318302D01*
X145078699Y-62139673D01*
X144845310Y-62043000D01*
X144154750Y-62043000D01*
X143996000Y-62201750D01*
X143742000Y-62201750D01*
X143583250Y-62043000D01*
X142892690Y-62043000D01*
X142659301Y-62139673D01*
X142480673Y-62318302D01*
X142384000Y-62551691D01*
X142384000Y-62808382D01*
X142249665Y-62607335D01*
X141827260Y-62325093D01*
X141454769Y-62251000D01*
X141203231Y-62251000D01*
X140830740Y-62325093D01*
X140408335Y-62607335D01*
X140126093Y-63029740D01*
X140059000Y-63367040D01*
X139991907Y-63029740D01*
X139709665Y-62607335D01*
X139287260Y-62325093D01*
X138914769Y-62251000D01*
X138663231Y-62251000D01*
X138290740Y-62325093D01*
X137868335Y-62607335D01*
X137586093Y-63029740D01*
X137519000Y-63367040D01*
X137451907Y-63029740D01*
X137169665Y-62607335D01*
X136747260Y-62325093D01*
X136374769Y-62251000D01*
X136123231Y-62251000D01*
X135750740Y-62325093D01*
X135328335Y-62607335D01*
X135046093Y-63029740D01*
X134946983Y-63528000D01*
X134566000Y-63528000D01*
X134566000Y-60823499D01*
X167527000Y-60823499D01*
X167527000Y-61152501D01*
X167652903Y-61456458D01*
X167885542Y-61689097D01*
X168189499Y-61815000D01*
X168352455Y-61815000D01*
X168287903Y-61879552D01*
X168162000Y-62183509D01*
X168162000Y-62512511D01*
X168287903Y-62816468D01*
X168520542Y-63049107D01*
X168824499Y-63175010D01*
X169153501Y-63175010D01*
X169457458Y-63049107D01*
X169605935Y-62900630D01*
X169609050Y-62900010D01*
X169770065Y-62867982D01*
X169952655Y-62745980D01*
X169983454Y-62699886D01*
X170058329Y-62625011D01*
X173136524Y-62625011D01*
X172866093Y-63029740D01*
X172766983Y-63528000D01*
X172866093Y-64026260D01*
X173148335Y-64448665D01*
X173570740Y-64730907D01*
X173943231Y-64805000D01*
X174194769Y-64805000D01*
X174567260Y-64730907D01*
X174989665Y-64448665D01*
X175271907Y-64026260D01*
X175339000Y-63688960D01*
X175406093Y-64026260D01*
X175688335Y-64448665D01*
X176110740Y-64730907D01*
X176483231Y-64805000D01*
X176734769Y-64805000D01*
X177107260Y-64730907D01*
X177529665Y-64448665D01*
X177811907Y-64026260D01*
X177879000Y-63688960D01*
X177946093Y-64026260D01*
X178228335Y-64448665D01*
X178650740Y-64730907D01*
X179023231Y-64805000D01*
X179274769Y-64805000D01*
X179647260Y-64730907D01*
X180069665Y-64448665D01*
X180351907Y-64026260D01*
X180419000Y-63688960D01*
X180486093Y-64026260D01*
X180768335Y-64448665D01*
X181190740Y-64730907D01*
X181563231Y-64805000D01*
X181814769Y-64805000D01*
X182187260Y-64730907D01*
X182609665Y-64448665D01*
X182891907Y-64026260D01*
X182959000Y-63688960D01*
X183026093Y-64026260D01*
X183308335Y-64448665D01*
X183730740Y-64730907D01*
X184103231Y-64805000D01*
X184354769Y-64805000D01*
X184727260Y-64730907D01*
X185149665Y-64448665D01*
X185431907Y-64026260D01*
X185483635Y-63766206D01*
X185483635Y-64378000D01*
X185516775Y-64544607D01*
X185611150Y-64685850D01*
X185752393Y-64780225D01*
X185919000Y-64813365D01*
X187619000Y-64813365D01*
X187785607Y-64780225D01*
X187926850Y-64685850D01*
X188021225Y-64544607D01*
X188054365Y-64378000D01*
X188054365Y-62678000D01*
X188043825Y-62625011D01*
X195243956Y-62625011D01*
X195863823Y-63244879D01*
X195894620Y-63290970D01*
X196077210Y-63412972D01*
X196238225Y-63445000D01*
X196292590Y-63455814D01*
X196346955Y-63445000D01*
X204406837Y-63445000D01*
X204461202Y-63455814D01*
X204515567Y-63445000D01*
X204676582Y-63412972D01*
X204859172Y-63290970D01*
X204889970Y-63244877D01*
X207440879Y-60693969D01*
X207486970Y-60663172D01*
X207608972Y-60480582D01*
X207641000Y-60319567D01*
X207651814Y-60265202D01*
X207641000Y-60210837D01*
X207641000Y-49406365D01*
X207651814Y-49352000D01*
X207608972Y-49136620D01*
X207595114Y-49115880D01*
X207486970Y-48954030D01*
X207440880Y-48923234D01*
X206099149Y-47581503D01*
X206301850Y-47571396D01*
X206686949Y-47411883D01*
X206756782Y-47169387D01*
X205954000Y-46366605D01*
X205939858Y-46380748D01*
X205760253Y-46201143D01*
X205774395Y-46187000D01*
X206133605Y-46187000D01*
X206936387Y-46989782D01*
X207178883Y-46919949D01*
X207366132Y-46395414D01*
X207338396Y-45839150D01*
X207178883Y-45454051D01*
X206936387Y-45384218D01*
X206133605Y-46187000D01*
X205774395Y-46187000D01*
X204971613Y-45384218D01*
X204843775Y-45421032D01*
X204627356Y-45204613D01*
X205151218Y-45204613D01*
X205954000Y-46007395D01*
X206756782Y-45204613D01*
X206686949Y-44962117D01*
X206162414Y-44774868D01*
X205606150Y-44802604D01*
X205221051Y-44962117D01*
X205151218Y-45204613D01*
X204627356Y-45204613D01*
X204599214Y-45176471D01*
X204161104Y-44995000D01*
X203686896Y-44995000D01*
X203248786Y-45176471D01*
X202913471Y-45511786D01*
X202732000Y-45949896D01*
X202732000Y-46424104D01*
X202913471Y-46862214D01*
X203248786Y-47197529D01*
X203686896Y-47379000D01*
X204161104Y-47379000D01*
X204284318Y-47327963D01*
X206537000Y-49580646D01*
X206537001Y-58508588D01*
X206162414Y-58374868D01*
X205606150Y-58402604D01*
X205221051Y-58562117D01*
X205151218Y-58804613D01*
X205954000Y-59607395D01*
X205968143Y-59593253D01*
X206147748Y-59772858D01*
X206133605Y-59787000D01*
X206147748Y-59801143D01*
X205968143Y-59980748D01*
X205954000Y-59966605D01*
X205151218Y-60769387D01*
X205221051Y-61011883D01*
X205472066Y-61101491D01*
X204232557Y-62341000D01*
X202150645Y-62341000D01*
X203563683Y-60927963D01*
X203686896Y-60979000D01*
X204161104Y-60979000D01*
X204599214Y-60797529D01*
X204843775Y-60552968D01*
X204971613Y-60589782D01*
X205774395Y-59787000D01*
X204971613Y-58984218D01*
X204843775Y-59021032D01*
X204599214Y-58776471D01*
X204161104Y-58595000D01*
X203686896Y-58595000D01*
X203248786Y-58776471D01*
X202913471Y-59111786D01*
X202732000Y-59549896D01*
X202732000Y-60024104D01*
X202783037Y-60147317D01*
X201117854Y-61812501D01*
X199901746Y-61812501D01*
X200146348Y-61168899D01*
X200125075Y-60448155D01*
X199890185Y-59881080D01*
X199604908Y-59760697D01*
X198503605Y-60862000D01*
X198517748Y-60876143D01*
X198338143Y-61055748D01*
X198324000Y-61041605D01*
X198309858Y-61055748D01*
X198130253Y-60876143D01*
X198144395Y-60862000D01*
X197043092Y-59760697D01*
X196757815Y-59881080D01*
X196501652Y-60555101D01*
X196522925Y-61275845D01*
X196745215Y-61812501D01*
X196629146Y-61812501D01*
X196087769Y-61271124D01*
X196056970Y-61225030D01*
X195874380Y-61103028D01*
X195713365Y-61071000D01*
X195659000Y-61060186D01*
X195604635Y-61071000D01*
X169217646Y-61071000D01*
X169181000Y-61034354D01*
X169181000Y-60823499D01*
X169055097Y-60519542D01*
X168822458Y-60286903D01*
X168518501Y-60161000D01*
X168189499Y-60161000D01*
X167885542Y-60286903D01*
X167652903Y-60519542D01*
X167527000Y-60823499D01*
X134566000Y-60823499D01*
X134566000Y-57648499D01*
X164352000Y-57648499D01*
X164352000Y-57977501D01*
X164477903Y-58281458D01*
X164710542Y-58514097D01*
X165014499Y-58640000D01*
X165343501Y-58640000D01*
X165647458Y-58514097D01*
X165880097Y-58281458D01*
X166006000Y-57977501D01*
X166006000Y-57766645D01*
X167947646Y-55825000D01*
X168926355Y-55825000D01*
X167765355Y-56986000D01*
X167554499Y-56986000D01*
X167250542Y-57111903D01*
X167017903Y-57344542D01*
X166892000Y-57648499D01*
X166892000Y-57977501D01*
X167017903Y-58281458D01*
X167250542Y-58514097D01*
X167554499Y-58640000D01*
X167883501Y-58640000D01*
X168187458Y-58514097D01*
X168228304Y-58473251D01*
X191334000Y-58473251D01*
X191334000Y-58930749D01*
X191509077Y-59353423D01*
X191832577Y-59676923D01*
X192255251Y-59852000D01*
X192712749Y-59852000D01*
X193135423Y-59676923D01*
X193231254Y-59581092D01*
X197222697Y-59581092D01*
X198324000Y-60682395D01*
X199425303Y-59581092D01*
X199304920Y-59295815D01*
X198630899Y-59039652D01*
X197910155Y-59060925D01*
X197343080Y-59295815D01*
X197222697Y-59581092D01*
X193231254Y-59581092D01*
X193458923Y-59353423D01*
X193634000Y-58930749D01*
X193634000Y-58473251D01*
X193458923Y-58050577D01*
X193135423Y-57727077D01*
X192712749Y-57552000D01*
X192255251Y-57552000D01*
X191832577Y-57727077D01*
X191509077Y-58050577D01*
X191334000Y-58473251D01*
X168228304Y-58473251D01*
X168420097Y-58281458D01*
X168546000Y-57977501D01*
X168546000Y-57766645D01*
X169735377Y-56577268D01*
X172792571Y-56577268D01*
X172941668Y-56726365D01*
X173245625Y-56852268D01*
X173574627Y-56852268D01*
X173878584Y-56726365D01*
X174111223Y-56493726D01*
X174237126Y-56189769D01*
X174237126Y-56098498D01*
X174537458Y-55974097D01*
X174578304Y-55933251D01*
X191334000Y-55933251D01*
X191334000Y-56390749D01*
X191509077Y-56813423D01*
X191832577Y-57136923D01*
X192255251Y-57312000D01*
X192712749Y-57312000D01*
X192975292Y-57203251D01*
X193874000Y-57203251D01*
X193874000Y-57660749D01*
X194049077Y-58083423D01*
X194372577Y-58406923D01*
X194795251Y-58582000D01*
X195252749Y-58582000D01*
X195558273Y-58455448D01*
X200134500Y-58455448D01*
X200134500Y-58948552D01*
X200323203Y-59404120D01*
X200671880Y-59752797D01*
X201127448Y-59941500D01*
X201620552Y-59941500D01*
X202076120Y-59752797D01*
X202424797Y-59404120D01*
X202613500Y-58948552D01*
X202613500Y-58455448D01*
X202424797Y-57999880D01*
X202076120Y-57651203D01*
X201620552Y-57462500D01*
X201127448Y-57462500D01*
X200671880Y-57651203D01*
X200323203Y-57999880D01*
X200134500Y-58455448D01*
X195558273Y-58455448D01*
X195675423Y-58406923D01*
X195998923Y-58083423D01*
X196174000Y-57660749D01*
X196174000Y-57203251D01*
X195998923Y-56780577D01*
X195675423Y-56457077D01*
X195252749Y-56282000D01*
X194795251Y-56282000D01*
X194372577Y-56457077D01*
X194049077Y-56780577D01*
X193874000Y-57203251D01*
X192975292Y-57203251D01*
X193135423Y-57136923D01*
X193458923Y-56813423D01*
X193634000Y-56390749D01*
X193634000Y-55933251D01*
X193458923Y-55510577D01*
X193135423Y-55187077D01*
X192712749Y-55012000D01*
X192255251Y-55012000D01*
X191832577Y-55187077D01*
X191509077Y-55510577D01*
X191334000Y-55933251D01*
X174578304Y-55933251D01*
X174770097Y-55741458D01*
X174896000Y-55437501D01*
X174896000Y-55108499D01*
X174770097Y-54804542D01*
X174537458Y-54571903D01*
X174233501Y-54446000D01*
X173904499Y-54446000D01*
X173600542Y-54571903D01*
X173451445Y-54721000D01*
X167773364Y-54721000D01*
X167718999Y-54710186D01*
X167503620Y-54753028D01*
X167321030Y-54875030D01*
X167290233Y-54921121D01*
X165225355Y-56986000D01*
X165014499Y-56986000D01*
X164710542Y-57111903D01*
X164477903Y-57344542D01*
X164352000Y-57648499D01*
X134566000Y-57648499D01*
X134566000Y-52518000D01*
X149288635Y-52518000D01*
X149288635Y-54218000D01*
X149321775Y-54384607D01*
X149416150Y-54525850D01*
X149557393Y-54620225D01*
X149724000Y-54653365D01*
X151424000Y-54653365D01*
X151590607Y-54620225D01*
X151731850Y-54525850D01*
X151826225Y-54384607D01*
X151859365Y-54218000D01*
X151859365Y-54122764D01*
X151918817Y-54249358D01*
X152347076Y-54639645D01*
X152757110Y-54809476D01*
X152987000Y-54688155D01*
X152987000Y-53495000D01*
X152967000Y-53495000D01*
X152967000Y-53241000D01*
X152987000Y-53241000D01*
X152987000Y-52047845D01*
X153241000Y-52047845D01*
X153241000Y-53241000D01*
X153261000Y-53241000D01*
X153261000Y-53495000D01*
X153241000Y-53495000D01*
X153241000Y-54688155D01*
X153470890Y-54809476D01*
X153880924Y-54639645D01*
X154309183Y-54249358D01*
X154473410Y-53899660D01*
X154733335Y-54288665D01*
X155155740Y-54570907D01*
X155528231Y-54645000D01*
X155779769Y-54645000D01*
X156152260Y-54570907D01*
X156574665Y-54288665D01*
X156856907Y-53866260D01*
X156924000Y-53528960D01*
X156991093Y-53866260D01*
X157273335Y-54288665D01*
X157695740Y-54570907D01*
X158068231Y-54645000D01*
X158319769Y-54645000D01*
X158692260Y-54570907D01*
X159114665Y-54288665D01*
X159396907Y-53866260D01*
X159496017Y-53368000D01*
X159396907Y-52869740D01*
X159114665Y-52447335D01*
X158692260Y-52165093D01*
X158319769Y-52091000D01*
X158068231Y-52091000D01*
X157695740Y-52165093D01*
X157273335Y-52447335D01*
X156991093Y-52869740D01*
X156924000Y-53207040D01*
X156856907Y-52869740D01*
X156574665Y-52447335D01*
X156152260Y-52165093D01*
X155779769Y-52091000D01*
X155528231Y-52091000D01*
X155155740Y-52165093D01*
X154733335Y-52447335D01*
X154473410Y-52836340D01*
X154309183Y-52486642D01*
X153880924Y-52096355D01*
X153470890Y-51926524D01*
X153241000Y-52047845D01*
X152987000Y-52047845D01*
X152757110Y-51926524D01*
X152347076Y-52096355D01*
X151918817Y-52486642D01*
X151859365Y-52613236D01*
X151859365Y-52518000D01*
X151826225Y-52351393D01*
X151731850Y-52210150D01*
X151590607Y-52115775D01*
X151424000Y-52082635D01*
X149724000Y-52082635D01*
X149557393Y-52115775D01*
X149416150Y-52210150D01*
X149321775Y-52351393D01*
X149288635Y-52518000D01*
X134566000Y-52518000D01*
X134566000Y-48708000D01*
X135953635Y-48708000D01*
X135953635Y-50408000D01*
X135986775Y-50574607D01*
X136081150Y-50715850D01*
X136222393Y-50810225D01*
X136389000Y-50843365D01*
X138089000Y-50843365D01*
X138255607Y-50810225D01*
X138396850Y-50715850D01*
X138491225Y-50574607D01*
X138524365Y-50408000D01*
X138524365Y-50312764D01*
X138583817Y-50439358D01*
X139012076Y-50829645D01*
X139422110Y-50999476D01*
X139652000Y-50878155D01*
X139652000Y-49685000D01*
X139632000Y-49685000D01*
X139632000Y-49431000D01*
X139652000Y-49431000D01*
X139652000Y-48237845D01*
X139906000Y-48237845D01*
X139906000Y-49431000D01*
X139926000Y-49431000D01*
X139926000Y-49685000D01*
X139906000Y-49685000D01*
X139906000Y-50878155D01*
X140135890Y-50999476D01*
X140545924Y-50829645D01*
X140974183Y-50439358D01*
X141138410Y-50089660D01*
X141398335Y-50478665D01*
X141820740Y-50760907D01*
X142193231Y-50835000D01*
X142444769Y-50835000D01*
X142817260Y-50760907D01*
X143239665Y-50478665D01*
X143521907Y-50056260D01*
X143589000Y-49718960D01*
X143656093Y-50056260D01*
X143938335Y-50478665D01*
X144360740Y-50760907D01*
X144733231Y-50835000D01*
X144984769Y-50835000D01*
X145357260Y-50760907D01*
X145779665Y-50478665D01*
X146061907Y-50056260D01*
X146161017Y-49558000D01*
X146061907Y-49059740D01*
X145826882Y-48708000D01*
X149288635Y-48708000D01*
X149288635Y-50408000D01*
X149321775Y-50574607D01*
X149416150Y-50715850D01*
X149557393Y-50810225D01*
X149724000Y-50843365D01*
X151424000Y-50843365D01*
X151590607Y-50810225D01*
X151731850Y-50715850D01*
X151826225Y-50574607D01*
X151859365Y-50408000D01*
X151859365Y-50312764D01*
X151918817Y-50439358D01*
X152347076Y-50829645D01*
X152757110Y-50999476D01*
X152987000Y-50878155D01*
X152987000Y-49685000D01*
X152967000Y-49685000D01*
X152967000Y-49431000D01*
X152987000Y-49431000D01*
X152987000Y-48237845D01*
X153241000Y-48237845D01*
X153241000Y-49431000D01*
X153261000Y-49431000D01*
X153261000Y-49685000D01*
X153241000Y-49685000D01*
X153241000Y-50878155D01*
X153470890Y-50999476D01*
X153880924Y-50829645D01*
X154309183Y-50439358D01*
X154473410Y-50089660D01*
X154733335Y-50478665D01*
X155155740Y-50760907D01*
X155528231Y-50835000D01*
X155779769Y-50835000D01*
X156152260Y-50760907D01*
X156574665Y-50478665D01*
X156856907Y-50056260D01*
X156924000Y-49718960D01*
X156991093Y-50056260D01*
X157273335Y-50478665D01*
X157695740Y-50760907D01*
X158068231Y-50835000D01*
X158319769Y-50835000D01*
X158692260Y-50760907D01*
X159114665Y-50478665D01*
X159396907Y-50056260D01*
X159496017Y-49558000D01*
X159396907Y-49059740D01*
X159114665Y-48637335D01*
X158692260Y-48355093D01*
X158319769Y-48281000D01*
X158068231Y-48281000D01*
X157695740Y-48355093D01*
X157273335Y-48637335D01*
X156991093Y-49059740D01*
X156924000Y-49397040D01*
X156856907Y-49059740D01*
X156574665Y-48637335D01*
X156152260Y-48355093D01*
X155779769Y-48281000D01*
X155528231Y-48281000D01*
X155155740Y-48355093D01*
X154733335Y-48637335D01*
X154473410Y-49026340D01*
X154309183Y-48676642D01*
X153880924Y-48286355D01*
X153470890Y-48116524D01*
X153241000Y-48237845D01*
X152987000Y-48237845D01*
X152757110Y-48116524D01*
X152347076Y-48286355D01*
X151918817Y-48676642D01*
X151859365Y-48803236D01*
X151859365Y-48708000D01*
X151826225Y-48541393D01*
X151731850Y-48400150D01*
X151590607Y-48305775D01*
X151424000Y-48272635D01*
X149724000Y-48272635D01*
X149557393Y-48305775D01*
X149416150Y-48400150D01*
X149321775Y-48541393D01*
X149288635Y-48708000D01*
X145826882Y-48708000D01*
X145779665Y-48637335D01*
X145357260Y-48355093D01*
X144984769Y-48281000D01*
X144733231Y-48281000D01*
X144360740Y-48355093D01*
X143938335Y-48637335D01*
X143656093Y-49059740D01*
X143589000Y-49397040D01*
X143521907Y-49059740D01*
X143239665Y-48637335D01*
X142817260Y-48355093D01*
X142444769Y-48281000D01*
X142193231Y-48281000D01*
X141820740Y-48355093D01*
X141398335Y-48637335D01*
X141138410Y-49026340D01*
X140974183Y-48676642D01*
X140545924Y-48286355D01*
X140135890Y-48116524D01*
X139906000Y-48237845D01*
X139652000Y-48237845D01*
X139422110Y-48116524D01*
X139012076Y-48286355D01*
X138583817Y-48676642D01*
X138524365Y-48803236D01*
X138524365Y-48708000D01*
X138491225Y-48541393D01*
X138396850Y-48400150D01*
X138255607Y-48305775D01*
X138089000Y-48272635D01*
X136389000Y-48272635D01*
X136222393Y-48305775D01*
X136081150Y-48400150D01*
X135986775Y-48541393D01*
X135953635Y-48708000D01*
X134566000Y-48708000D01*
X134566000Y-44898000D01*
X135953635Y-44898000D01*
X135953635Y-46598000D01*
X135986775Y-46764607D01*
X136081150Y-46905850D01*
X136222393Y-47000225D01*
X136389000Y-47033365D01*
X138089000Y-47033365D01*
X138255607Y-47000225D01*
X138396850Y-46905850D01*
X138491225Y-46764607D01*
X138524365Y-46598000D01*
X138524365Y-46502764D01*
X138583817Y-46629358D01*
X139012076Y-47019645D01*
X139422110Y-47189476D01*
X139652000Y-47068155D01*
X139652000Y-45875000D01*
X139632000Y-45875000D01*
X139632000Y-45621000D01*
X139652000Y-45621000D01*
X139652000Y-44427845D01*
X139906000Y-44427845D01*
X139906000Y-45621000D01*
X139926000Y-45621000D01*
X139926000Y-45875000D01*
X139906000Y-45875000D01*
X139906000Y-47068155D01*
X140135890Y-47189476D01*
X140545924Y-47019645D01*
X140974183Y-46629358D01*
X141138410Y-46279660D01*
X141398335Y-46668665D01*
X141820740Y-46950907D01*
X142193231Y-47025000D01*
X142444769Y-47025000D01*
X142817260Y-46950907D01*
X143239665Y-46668665D01*
X143521907Y-46246260D01*
X143589000Y-45908960D01*
X143656093Y-46246260D01*
X143938335Y-46668665D01*
X144360740Y-46950907D01*
X144733231Y-47025000D01*
X144984769Y-47025000D01*
X145357260Y-46950907D01*
X145779665Y-46668665D01*
X146061907Y-46246260D01*
X146161017Y-45748000D01*
X146061907Y-45249740D01*
X145826882Y-44898000D01*
X149288635Y-44898000D01*
X149288635Y-46598000D01*
X149321775Y-46764607D01*
X149416150Y-46905850D01*
X149557393Y-47000225D01*
X149724000Y-47033365D01*
X151424000Y-47033365D01*
X151590607Y-47000225D01*
X151731850Y-46905850D01*
X151826225Y-46764607D01*
X151859365Y-46598000D01*
X151859365Y-46502764D01*
X151918817Y-46629358D01*
X152347076Y-47019645D01*
X152757110Y-47189476D01*
X152987000Y-47068155D01*
X152987000Y-45875000D01*
X152967000Y-45875000D01*
X152967000Y-45621000D01*
X152987000Y-45621000D01*
X152987000Y-44427845D01*
X153241000Y-44427845D01*
X153241000Y-45621000D01*
X153261000Y-45621000D01*
X153261000Y-45875000D01*
X153241000Y-45875000D01*
X153241000Y-47068155D01*
X153470890Y-47189476D01*
X153880924Y-47019645D01*
X154309183Y-46629358D01*
X154473410Y-46279660D01*
X154733335Y-46668665D01*
X155155740Y-46950907D01*
X155528231Y-47025000D01*
X155779769Y-47025000D01*
X156152260Y-46950907D01*
X156574665Y-46668665D01*
X156856907Y-46246260D01*
X156924000Y-45908960D01*
X156991093Y-46246260D01*
X157273335Y-46668665D01*
X157695740Y-46950907D01*
X158068231Y-47025000D01*
X158319769Y-47025000D01*
X158692260Y-46950907D01*
X159114665Y-46668665D01*
X159396907Y-46246260D01*
X159496017Y-45748000D01*
X159396907Y-45249740D01*
X159114665Y-44827335D01*
X158692260Y-44545093D01*
X158319769Y-44471000D01*
X158068231Y-44471000D01*
X157695740Y-44545093D01*
X157273335Y-44827335D01*
X156991093Y-45249740D01*
X156924000Y-45587040D01*
X156856907Y-45249740D01*
X156574665Y-44827335D01*
X156152260Y-44545093D01*
X155779769Y-44471000D01*
X155528231Y-44471000D01*
X155155740Y-44545093D01*
X154733335Y-44827335D01*
X154473410Y-45216340D01*
X154309183Y-44866642D01*
X153880924Y-44476355D01*
X153470890Y-44306524D01*
X153241000Y-44427845D01*
X152987000Y-44427845D01*
X152757110Y-44306524D01*
X152347076Y-44476355D01*
X151918817Y-44866642D01*
X151859365Y-44993236D01*
X151859365Y-44898000D01*
X151826225Y-44731393D01*
X151731850Y-44590150D01*
X151590607Y-44495775D01*
X151424000Y-44462635D01*
X149724000Y-44462635D01*
X149557393Y-44495775D01*
X149416150Y-44590150D01*
X149321775Y-44731393D01*
X149288635Y-44898000D01*
X145826882Y-44898000D01*
X145779665Y-44827335D01*
X145357260Y-44545093D01*
X144984769Y-44471000D01*
X144733231Y-44471000D01*
X144360740Y-44545093D01*
X143938335Y-44827335D01*
X143656093Y-45249740D01*
X143589000Y-45587040D01*
X143521907Y-45249740D01*
X143239665Y-44827335D01*
X142817260Y-44545093D01*
X142444769Y-44471000D01*
X142193231Y-44471000D01*
X141820740Y-44545093D01*
X141398335Y-44827335D01*
X141138410Y-45216340D01*
X140974183Y-44866642D01*
X140545924Y-44476355D01*
X140135890Y-44306524D01*
X139906000Y-44427845D01*
X139652000Y-44427845D01*
X139422110Y-44306524D01*
X139012076Y-44476355D01*
X138583817Y-44866642D01*
X138524365Y-44993236D01*
X138524365Y-44898000D01*
X138491225Y-44731393D01*
X138396850Y-44590150D01*
X138255607Y-44495775D01*
X138089000Y-44462635D01*
X136389000Y-44462635D01*
X136222393Y-44495775D01*
X136081150Y-44590150D01*
X135986775Y-44731393D01*
X135953635Y-44898000D01*
X134566000Y-44898000D01*
X134566000Y-38048000D01*
X140261983Y-38048000D01*
X140361093Y-38546260D01*
X140643335Y-38968665D01*
X141065740Y-39250907D01*
X141325794Y-39302635D01*
X140714000Y-39302635D01*
X140547393Y-39335775D01*
X140406150Y-39430150D01*
X140311775Y-39571393D01*
X140278635Y-39738000D01*
X140278635Y-41438000D01*
X140311775Y-41604607D01*
X140406150Y-41745850D01*
X140547393Y-41840225D01*
X140714000Y-41873365D01*
X142414000Y-41873365D01*
X142580607Y-41840225D01*
X142721850Y-41745850D01*
X142816225Y-41604607D01*
X142849365Y-41438000D01*
X142849365Y-40826206D01*
X142901093Y-41086260D01*
X143183335Y-41508665D01*
X143605740Y-41790907D01*
X143978231Y-41865000D01*
X144229769Y-41865000D01*
X144602260Y-41790907D01*
X145024665Y-41508665D01*
X145306907Y-41086260D01*
X145374000Y-40748960D01*
X145441093Y-41086260D01*
X145723335Y-41508665D01*
X146145740Y-41790907D01*
X146518231Y-41865000D01*
X146769769Y-41865000D01*
X147142260Y-41790907D01*
X147564665Y-41508665D01*
X147846907Y-41086260D01*
X147914000Y-40748960D01*
X147981093Y-41086260D01*
X148263335Y-41508665D01*
X148685740Y-41790907D01*
X149058231Y-41865000D01*
X149309769Y-41865000D01*
X149682260Y-41790907D01*
X150104665Y-41508665D01*
X150386907Y-41086260D01*
X150454000Y-40748960D01*
X150521093Y-41086260D01*
X150803335Y-41508665D01*
X151225740Y-41790907D01*
X151598231Y-41865000D01*
X151849769Y-41865000D01*
X152222260Y-41790907D01*
X152644665Y-41508665D01*
X152926907Y-41086260D01*
X152994000Y-40748960D01*
X153061093Y-41086260D01*
X153343335Y-41508665D01*
X153765740Y-41790907D01*
X154138231Y-41865000D01*
X154389769Y-41865000D01*
X154762260Y-41790907D01*
X155184665Y-41508665D01*
X155466907Y-41086260D01*
X155534000Y-40748960D01*
X155601093Y-41086260D01*
X155883335Y-41508665D01*
X156305740Y-41790907D01*
X156678231Y-41865000D01*
X156929769Y-41865000D01*
X157302260Y-41790907D01*
X157724665Y-41508665D01*
X158006907Y-41086260D01*
X158074000Y-40748960D01*
X158141093Y-41086260D01*
X158423335Y-41508665D01*
X158845740Y-41790907D01*
X159218231Y-41865000D01*
X159469769Y-41865000D01*
X159842260Y-41790907D01*
X160264665Y-41508665D01*
X160546907Y-41086260D01*
X160614000Y-40748960D01*
X160681093Y-41086260D01*
X160963335Y-41508665D01*
X161385740Y-41790907D01*
X161758231Y-41865000D01*
X162009769Y-41865000D01*
X162382260Y-41790907D01*
X162804665Y-41508665D01*
X162814048Y-41494623D01*
X162851030Y-41549971D01*
X162897120Y-41580767D01*
X163431232Y-42114880D01*
X163462029Y-42160971D01*
X163617529Y-42264872D01*
X163644619Y-42282973D01*
X163859998Y-42325815D01*
X163914363Y-42315001D01*
X164733946Y-42315001D01*
X165433845Y-43014901D01*
X165464642Y-43060992D01*
X165585735Y-43141903D01*
X165647232Y-43182994D01*
X165862612Y-43225836D01*
X165916977Y-43215022D01*
X171390377Y-43215022D01*
X172526354Y-44351000D01*
X164544000Y-44351000D01*
X164495399Y-44360667D01*
X164454197Y-44388197D01*
X164426667Y-44429399D01*
X164417000Y-44478000D01*
X164417000Y-48923000D01*
X164426667Y-48971601D01*
X164454197Y-49012803D01*
X164495399Y-49040333D01*
X164544000Y-49050000D01*
X172799000Y-49050000D01*
X172847601Y-49040333D01*
X172888803Y-49012803D01*
X172916333Y-48971601D01*
X172926000Y-48923000D01*
X172926000Y-46020645D01*
X178290382Y-51385028D01*
X178240398Y-51505700D01*
X178240398Y-51834702D01*
X178366301Y-52138659D01*
X178598940Y-52371298D01*
X178902897Y-52497201D01*
X179231899Y-52497201D01*
X179535856Y-52371298D01*
X179768495Y-52138659D01*
X179894398Y-51834702D01*
X179894398Y-51792601D01*
X180056220Y-51792601D01*
X180360177Y-51666698D01*
X180541660Y-51485215D01*
X180585542Y-51529097D01*
X180889499Y-51655000D01*
X181218501Y-51655000D01*
X181522458Y-51529097D01*
X181755097Y-51296458D01*
X181772001Y-51255649D01*
X181772001Y-53783633D01*
X181772000Y-53783638D01*
X181772000Y-54020445D01*
X181622903Y-54169542D01*
X181497000Y-54473499D01*
X181497000Y-54802501D01*
X181622903Y-55106458D01*
X181855542Y-55339097D01*
X182159499Y-55465000D01*
X182488501Y-55465000D01*
X182792458Y-55339097D01*
X183025097Y-55106458D01*
X183151000Y-54802501D01*
X183151000Y-54473499D01*
X183025097Y-54169542D01*
X182876000Y-54020445D01*
X182876000Y-53393251D01*
X191334000Y-53393251D01*
X191334000Y-53850749D01*
X191509077Y-54273423D01*
X191832577Y-54596923D01*
X192255251Y-54772000D01*
X192712749Y-54772000D01*
X192975292Y-54663251D01*
X193874000Y-54663251D01*
X193874000Y-55120749D01*
X194049077Y-55543423D01*
X194372577Y-55866923D01*
X194795251Y-56042000D01*
X195252749Y-56042000D01*
X195675423Y-55866923D01*
X195998923Y-55543423D01*
X196174000Y-55120749D01*
X196174000Y-54663251D01*
X195998923Y-54240577D01*
X195675423Y-53917077D01*
X195252749Y-53742000D01*
X194795251Y-53742000D01*
X194372577Y-53917077D01*
X194049077Y-54240577D01*
X193874000Y-54663251D01*
X192975292Y-54663251D01*
X193135423Y-54596923D01*
X193458923Y-54273423D01*
X193634000Y-53850749D01*
X193634000Y-53393251D01*
X193458923Y-52970577D01*
X193135423Y-52647077D01*
X192712749Y-52472000D01*
X192255251Y-52472000D01*
X191832577Y-52647077D01*
X191509077Y-52970577D01*
X191334000Y-53393251D01*
X182876000Y-53393251D01*
X182876000Y-47569456D01*
X182886814Y-47515091D01*
X182843972Y-47299711D01*
X182721970Y-47117121D01*
X182639984Y-47062340D01*
X182229415Y-46651771D01*
X190873185Y-46651771D01*
X190884000Y-46706141D01*
X190883999Y-49979634D01*
X190873185Y-50033999D01*
X190883999Y-50088363D01*
X190916027Y-50249378D01*
X191038029Y-50431969D01*
X191084122Y-50462767D01*
X191375182Y-50753828D01*
X191334000Y-50853251D01*
X191334000Y-51310749D01*
X191509077Y-51733423D01*
X191832577Y-52056923D01*
X192255251Y-52232000D01*
X192712749Y-52232000D01*
X193135423Y-52056923D01*
X193458923Y-51733423D01*
X193584210Y-51430953D01*
X193677376Y-51493204D01*
X193838391Y-51525232D01*
X193892756Y-51536046D01*
X193947121Y-51525232D01*
X194224422Y-51525232D01*
X194049077Y-51700577D01*
X193874000Y-52123251D01*
X193874000Y-52580749D01*
X194049077Y-53003423D01*
X194372577Y-53326923D01*
X194795251Y-53502000D01*
X195252749Y-53502000D01*
X195675423Y-53326923D01*
X195998923Y-53003423D01*
X196174000Y-52580749D01*
X196174000Y-52123251D01*
X195998923Y-51700577D01*
X195974019Y-51675673D01*
X196274731Y-51800232D01*
X196603733Y-51800232D01*
X196907690Y-51674329D01*
X197140329Y-51441690D01*
X197266232Y-51137733D01*
X197266232Y-50808731D01*
X197140329Y-50504774D01*
X196907690Y-50272135D01*
X196603733Y-50146232D01*
X196274731Y-50146232D01*
X196100397Y-50218444D01*
X196174000Y-50040749D01*
X196174000Y-49583251D01*
X195998923Y-49160577D01*
X195675423Y-48837077D01*
X195252749Y-48662000D01*
X194795251Y-48662000D01*
X194695828Y-48703182D01*
X194527999Y-48535354D01*
X194527999Y-48311301D01*
X194795251Y-48422000D01*
X195252749Y-48422000D01*
X195675423Y-48246923D01*
X195998923Y-47923423D01*
X196174000Y-47500749D01*
X196174000Y-47043251D01*
X196166626Y-47025448D01*
X200134500Y-47025448D01*
X200134500Y-47518552D01*
X200323203Y-47974120D01*
X200671880Y-48322797D01*
X201127448Y-48511500D01*
X201620552Y-48511500D01*
X202076120Y-48322797D01*
X202424797Y-47974120D01*
X202613500Y-47518552D01*
X202613500Y-47025448D01*
X202424797Y-46569880D01*
X202076120Y-46221203D01*
X201620552Y-46032500D01*
X201127448Y-46032500D01*
X200671880Y-46221203D01*
X200323203Y-46569880D01*
X200134500Y-47025448D01*
X196166626Y-47025448D01*
X195998923Y-46620577D01*
X195771254Y-46392908D01*
X197222697Y-46392908D01*
X197343080Y-46678185D01*
X198017101Y-46934348D01*
X198737845Y-46913075D01*
X199304920Y-46678185D01*
X199425303Y-46392908D01*
X198324000Y-45291605D01*
X197222697Y-46392908D01*
X195771254Y-46392908D01*
X195675423Y-46297077D01*
X195576000Y-46255895D01*
X195576000Y-46120875D01*
X196319761Y-45377115D01*
X196518535Y-45377115D01*
X196522925Y-45525845D01*
X196757815Y-46092920D01*
X197043092Y-46213303D01*
X198144395Y-45112000D01*
X198503605Y-45112000D01*
X199604908Y-46213303D01*
X199890185Y-46092920D01*
X200146348Y-45418899D01*
X200125075Y-44698155D01*
X199890185Y-44131080D01*
X199604908Y-44010697D01*
X198503605Y-45112000D01*
X198144395Y-45112000D01*
X197043092Y-44010697D01*
X197010152Y-44024597D01*
X196834573Y-43849018D01*
X196791296Y-43831092D01*
X197222697Y-43831092D01*
X198324000Y-44932395D01*
X199425303Y-43831092D01*
X199304920Y-43545815D01*
X198630899Y-43289652D01*
X197910155Y-43310925D01*
X197343080Y-43545815D01*
X197222697Y-43831092D01*
X196791296Y-43831092D01*
X196530616Y-43723115D01*
X196486000Y-43723115D01*
X196486000Y-43678499D01*
X196360097Y-43374542D01*
X196127458Y-43141903D01*
X195823501Y-43016000D01*
X195778885Y-43016000D01*
X195778885Y-42971384D01*
X195652982Y-42667427D01*
X195420343Y-42434788D01*
X195116386Y-42308885D01*
X194787384Y-42308885D01*
X194483427Y-42434788D01*
X194250788Y-42667427D01*
X194124885Y-42971384D01*
X194124885Y-43182239D01*
X191084120Y-46223005D01*
X191038030Y-46253801D01*
X190962657Y-46366605D01*
X190916027Y-46436392D01*
X190873185Y-46651771D01*
X182229415Y-46651771D01*
X177410643Y-41833000D01*
X177622260Y-41790907D01*
X178044665Y-41508665D01*
X178326907Y-41086260D01*
X178394000Y-40748960D01*
X178461093Y-41086260D01*
X178743335Y-41508665D01*
X179165740Y-41790907D01*
X179538231Y-41865000D01*
X179789769Y-41865000D01*
X180162260Y-41790907D01*
X180584665Y-41508665D01*
X180866907Y-41086260D01*
X180934000Y-40748960D01*
X181001093Y-41086260D01*
X181283335Y-41508665D01*
X181705740Y-41790907D01*
X182078231Y-41865000D01*
X182329769Y-41865000D01*
X182702260Y-41790907D01*
X183124665Y-41508665D01*
X183406907Y-41086260D01*
X183474000Y-40748960D01*
X183541093Y-41086260D01*
X183823335Y-41508665D01*
X184245740Y-41790907D01*
X184618231Y-41865000D01*
X184869769Y-41865000D01*
X185242260Y-41790907D01*
X185664665Y-41508665D01*
X185946907Y-41086260D01*
X186014000Y-40748960D01*
X186081093Y-41086260D01*
X186363335Y-41508665D01*
X186785740Y-41790907D01*
X187158231Y-41865000D01*
X187409769Y-41865000D01*
X187782260Y-41790907D01*
X188204665Y-41508665D01*
X188486907Y-41086260D01*
X188554000Y-40748960D01*
X188621093Y-41086260D01*
X188903335Y-41508665D01*
X189325740Y-41790907D01*
X189698231Y-41865000D01*
X189949769Y-41865000D01*
X190322260Y-41790907D01*
X190744665Y-41508665D01*
X191026907Y-41086260D01*
X191126017Y-40588000D01*
X191026907Y-40089740D01*
X190744665Y-39667335D01*
X190322260Y-39385093D01*
X189984960Y-39318000D01*
X190322260Y-39250907D01*
X190744665Y-38968665D01*
X191026907Y-38546260D01*
X191126017Y-38048000D01*
X191026907Y-37549740D01*
X190744665Y-37127335D01*
X190322260Y-36845093D01*
X189949769Y-36771000D01*
X189698231Y-36771000D01*
X189325740Y-36845093D01*
X188903335Y-37127335D01*
X188621093Y-37549740D01*
X188554000Y-37887040D01*
X188486907Y-37549740D01*
X188204665Y-37127335D01*
X187782260Y-36845093D01*
X187409769Y-36771000D01*
X187158231Y-36771000D01*
X186785740Y-36845093D01*
X186363335Y-37127335D01*
X186081093Y-37549740D01*
X186014000Y-37887040D01*
X185946907Y-37549740D01*
X185664665Y-37127335D01*
X185242260Y-36845093D01*
X184869769Y-36771000D01*
X184618231Y-36771000D01*
X184245740Y-36845093D01*
X183823335Y-37127335D01*
X183541093Y-37549740D01*
X183474000Y-37887040D01*
X183406907Y-37549740D01*
X183124665Y-37127335D01*
X182702260Y-36845093D01*
X182329769Y-36771000D01*
X182078231Y-36771000D01*
X181705740Y-36845093D01*
X181283335Y-37127335D01*
X181001093Y-37549740D01*
X180934000Y-37887040D01*
X180866907Y-37549740D01*
X180584665Y-37127335D01*
X180162260Y-36845093D01*
X179789769Y-36771000D01*
X179538231Y-36771000D01*
X179165740Y-36845093D01*
X178743335Y-37127335D01*
X178461093Y-37549740D01*
X178394000Y-37887040D01*
X178326907Y-37549740D01*
X178044665Y-37127335D01*
X177622260Y-36845093D01*
X177249769Y-36771000D01*
X176998231Y-36771000D01*
X176625740Y-36845093D01*
X176203335Y-37127335D01*
X175921093Y-37549740D01*
X175854000Y-37887040D01*
X175786907Y-37549740D01*
X175504665Y-37127335D01*
X175082260Y-36845093D01*
X174709769Y-36771000D01*
X174458231Y-36771000D01*
X174085740Y-36845093D01*
X173663335Y-37127335D01*
X173655183Y-37139535D01*
X173036769Y-36521122D01*
X173005971Y-36475029D01*
X172823381Y-36353027D01*
X172662366Y-36320999D01*
X172608001Y-36310185D01*
X172553636Y-36320999D01*
X168193365Y-36320999D01*
X168139000Y-36310185D01*
X167923621Y-36353027D01*
X167741031Y-36475029D01*
X167710234Y-36521120D01*
X167398870Y-36832484D01*
X167089769Y-36771000D01*
X166838231Y-36771000D01*
X166465740Y-36845093D01*
X166043335Y-37127335D01*
X165783410Y-37516340D01*
X165619183Y-37166642D01*
X165190924Y-36776355D01*
X164780890Y-36606524D01*
X164551000Y-36727845D01*
X164551000Y-37921000D01*
X164571000Y-37921000D01*
X164571000Y-38175000D01*
X164551000Y-38175000D01*
X164551000Y-38195000D01*
X164297000Y-38195000D01*
X164297000Y-38175000D01*
X164277000Y-38175000D01*
X164277000Y-37921000D01*
X164297000Y-37921000D01*
X164297000Y-36727845D01*
X164067110Y-36606524D01*
X163657076Y-36776355D01*
X163228817Y-37166642D01*
X163064590Y-37516340D01*
X162804665Y-37127335D01*
X162382260Y-36845093D01*
X162009769Y-36771000D01*
X161758231Y-36771000D01*
X161385740Y-36845093D01*
X160963335Y-37127335D01*
X160681093Y-37549740D01*
X160614000Y-37887040D01*
X160546907Y-37549740D01*
X160264665Y-37127335D01*
X159842260Y-36845093D01*
X159469769Y-36771000D01*
X159218231Y-36771000D01*
X158845740Y-36845093D01*
X158423335Y-37127335D01*
X158141093Y-37549740D01*
X158074000Y-37887040D01*
X158006907Y-37549740D01*
X157724665Y-37127335D01*
X157302260Y-36845093D01*
X156929769Y-36771000D01*
X156678231Y-36771000D01*
X156305740Y-36845093D01*
X155883335Y-37127335D01*
X155601093Y-37549740D01*
X155534000Y-37887040D01*
X155466907Y-37549740D01*
X155184665Y-37127335D01*
X154762260Y-36845093D01*
X154389769Y-36771000D01*
X154138231Y-36771000D01*
X153765740Y-36845093D01*
X153343335Y-37127335D01*
X153061093Y-37549740D01*
X152994000Y-37887040D01*
X152926907Y-37549740D01*
X152644665Y-37127335D01*
X152222260Y-36845093D01*
X151849769Y-36771000D01*
X151598231Y-36771000D01*
X151225740Y-36845093D01*
X150803335Y-37127335D01*
X150521093Y-37549740D01*
X150454000Y-37887040D01*
X150386907Y-37549740D01*
X150104665Y-37127335D01*
X149682260Y-36845093D01*
X149309769Y-36771000D01*
X149058231Y-36771000D01*
X148685740Y-36845093D01*
X148263335Y-37127335D01*
X147981093Y-37549740D01*
X147914000Y-37887040D01*
X147846907Y-37549740D01*
X147564665Y-37127335D01*
X147142260Y-36845093D01*
X146769769Y-36771000D01*
X146518231Y-36771000D01*
X146145740Y-36845093D01*
X145723335Y-37127335D01*
X145441093Y-37549740D01*
X145374000Y-37887040D01*
X145306907Y-37549740D01*
X145024665Y-37127335D01*
X144602260Y-36845093D01*
X144229769Y-36771000D01*
X143978231Y-36771000D01*
X143605740Y-36845093D01*
X143183335Y-37127335D01*
X142901093Y-37549740D01*
X142834000Y-37887040D01*
X142766907Y-37549740D01*
X142484665Y-37127335D01*
X142062260Y-36845093D01*
X141689769Y-36771000D01*
X141438231Y-36771000D01*
X141065740Y-36845093D01*
X140643335Y-37127335D01*
X140361093Y-37549740D01*
X140261983Y-38048000D01*
X134566000Y-38048000D01*
X134566000Y-36090000D01*
X209762000Y-36090000D01*
X209762001Y-65566000D01*
G04 #@! TD*
M02*
