G04 #@! TF.GenerationSoftware,KiCad,Pcbnew,(5.0.0-3-g5ebb6b6)*
G04 #@! TF.CreationDate,2020-01-23T02:23:46-08:00*
G04 #@! TF.ProjectId,Ethernet_Zero,45746865726E65745F5A65726F2E6B69,rev?*
G04 #@! TF.SameCoordinates,Original*
G04 #@! TF.FileFunction,Legend,Top*
G04 #@! TF.FilePolarity,Positive*
%FSLAX46Y46*%
G04 Gerber Fmt 4.6, Leading zero omitted, Abs format (unit mm)*
G04 Created by KiCad (PCBNEW (5.0.0-3-g5ebb6b6)) date Thursday, 23 January 2020 at 02:23:46*
%MOMM*%
%LPD*%
G01*
G04 APERTURE LIST*
%ADD10C,0.300000*%
%ADD11C,0.200000*%
%ADD12C,0.120000*%
%ADD13C,0.100000*%
%ADD14C,0.150000*%
%ADD15C,0.254000*%
G04 APERTURE END LIST*
D10*
X137969714Y-57851571D02*
X137469714Y-57137285D01*
X137112571Y-57851571D02*
X137112571Y-56351571D01*
X137684000Y-56351571D01*
X137826857Y-56423000D01*
X137898285Y-56494428D01*
X137969714Y-56637285D01*
X137969714Y-56851571D01*
X137898285Y-56994428D01*
X137826857Y-57065857D01*
X137684000Y-57137285D01*
X137112571Y-57137285D01*
X138612571Y-57851571D02*
X138612571Y-56351571D01*
X139184000Y-56351571D01*
X139326857Y-56423000D01*
X139398285Y-56494428D01*
X139469714Y-56637285D01*
X139469714Y-56851571D01*
X139398285Y-56994428D01*
X139326857Y-57065857D01*
X139184000Y-57137285D01*
X138612571Y-57137285D01*
X140112571Y-57851571D02*
X140112571Y-56851571D01*
X140112571Y-56351571D02*
X140041142Y-56423000D01*
X140112571Y-56494428D01*
X140184000Y-56423000D01*
X140112571Y-56351571D01*
X140112571Y-56494428D01*
X141826857Y-56351571D02*
X142826857Y-56351571D01*
X141826857Y-57851571D01*
X142826857Y-57851571D01*
X143969714Y-57780142D02*
X143826857Y-57851571D01*
X143541142Y-57851571D01*
X143398285Y-57780142D01*
X143326857Y-57637285D01*
X143326857Y-57065857D01*
X143398285Y-56923000D01*
X143541142Y-56851571D01*
X143826857Y-56851571D01*
X143969714Y-56923000D01*
X144041142Y-57065857D01*
X144041142Y-57208714D01*
X143326857Y-57351571D01*
X144684000Y-57851571D02*
X144684000Y-56851571D01*
X144684000Y-57137285D02*
X144755428Y-56994428D01*
X144826857Y-56923000D01*
X144969714Y-56851571D01*
X145112571Y-56851571D01*
X145826857Y-57851571D02*
X145684000Y-57780142D01*
X145612571Y-57708714D01*
X145541142Y-57565857D01*
X145541142Y-57137285D01*
X145612571Y-56994428D01*
X145684000Y-56923000D01*
X145826857Y-56851571D01*
X146041142Y-56851571D01*
X146184000Y-56923000D01*
X146255428Y-56994428D01*
X146326857Y-57137285D01*
X146326857Y-57565857D01*
X146255428Y-57708714D01*
X146184000Y-57780142D01*
X146041142Y-57851571D01*
X145826857Y-57851571D01*
X137255428Y-60401571D02*
X137255428Y-58901571D01*
X137826857Y-58901571D01*
X137969714Y-58973000D01*
X138041142Y-59044428D01*
X138112571Y-59187285D01*
X138112571Y-59401571D01*
X138041142Y-59544428D01*
X137969714Y-59615857D01*
X137826857Y-59687285D01*
X137255428Y-59687285D01*
X139041142Y-58901571D02*
X139326857Y-58901571D01*
X139469714Y-58973000D01*
X139612571Y-59115857D01*
X139684000Y-59401571D01*
X139684000Y-59901571D01*
X139612571Y-60187285D01*
X139469714Y-60330142D01*
X139326857Y-60401571D01*
X139041142Y-60401571D01*
X138898285Y-60330142D01*
X138755428Y-60187285D01*
X138684000Y-59901571D01*
X138684000Y-59401571D01*
X138755428Y-59115857D01*
X138898285Y-58973000D01*
X139041142Y-58901571D01*
X140326857Y-59615857D02*
X140826857Y-59615857D01*
X141041142Y-60401571D02*
X140326857Y-60401571D01*
X140326857Y-58901571D01*
X141041142Y-58901571D01*
X142826857Y-60401571D02*
X142826857Y-58901571D01*
X142826857Y-59615857D02*
X143684000Y-59615857D01*
X143684000Y-60401571D02*
X143684000Y-58901571D01*
X144326857Y-59973000D02*
X145041142Y-59973000D01*
X144184000Y-60401571D02*
X144684000Y-58901571D01*
X145184000Y-60401571D01*
X145469714Y-58901571D02*
X146326857Y-58901571D01*
X145898285Y-60401571D02*
X145898285Y-58901571D01*
D11*
X158060666Y-56360380D02*
X157794000Y-55884190D01*
X157603523Y-56360380D02*
X157603523Y-55360380D01*
X157908285Y-55360380D01*
X157984476Y-55408000D01*
X158022571Y-55455619D01*
X158060666Y-55550857D01*
X158060666Y-55693714D01*
X158022571Y-55788952D01*
X157984476Y-55836571D01*
X157908285Y-55884190D01*
X157603523Y-55884190D01*
X158327333Y-55360380D02*
X158860666Y-56360380D01*
X158860666Y-55360380D02*
X158327333Y-56360380D01*
X155044476Y-55360380D02*
X155501619Y-55360380D01*
X155273047Y-56360380D02*
X155273047Y-55360380D01*
X155692095Y-55360380D02*
X156225428Y-56360380D01*
X156225428Y-55360380D02*
X155692095Y-56360380D01*
X152504476Y-55408000D02*
X152428285Y-55360380D01*
X152314000Y-55360380D01*
X152199714Y-55408000D01*
X152123523Y-55503238D01*
X152085428Y-55598476D01*
X152047333Y-55788952D01*
X152047333Y-55931809D01*
X152085428Y-56122285D01*
X152123523Y-56217523D01*
X152199714Y-56312761D01*
X152314000Y-56360380D01*
X152390190Y-56360380D01*
X152504476Y-56312761D01*
X152542571Y-56265142D01*
X152542571Y-55931809D01*
X152390190Y-55931809D01*
X152885428Y-56360380D02*
X152885428Y-55360380D01*
X153342571Y-56360380D01*
X153342571Y-55360380D01*
X153723523Y-56360380D02*
X153723523Y-55360380D01*
X153914000Y-55360380D01*
X154028285Y-55408000D01*
X154104476Y-55503238D01*
X154142571Y-55598476D01*
X154180666Y-55788952D01*
X154180666Y-55931809D01*
X154142571Y-56122285D01*
X154104476Y-56217523D01*
X154028285Y-56312761D01*
X153914000Y-56360380D01*
X153723523Y-56360380D01*
X150421619Y-55360380D02*
X150040666Y-55360380D01*
X150002571Y-55836571D01*
X150040666Y-55788952D01*
X150116857Y-55741333D01*
X150307333Y-55741333D01*
X150383523Y-55788952D01*
X150421619Y-55836571D01*
X150459714Y-55931809D01*
X150459714Y-56169904D01*
X150421619Y-56265142D01*
X150383523Y-56312761D01*
X150307333Y-56360380D01*
X150116857Y-56360380D01*
X150040666Y-56312761D01*
X150002571Y-56265142D01*
X150688285Y-55360380D02*
X150954952Y-56360380D01*
X151221619Y-55360380D01*
X137086619Y-51550380D02*
X136705666Y-51550380D01*
X136667571Y-52026571D01*
X136705666Y-51978952D01*
X136781857Y-51931333D01*
X136972333Y-51931333D01*
X137048523Y-51978952D01*
X137086619Y-52026571D01*
X137124714Y-52121809D01*
X137124714Y-52359904D01*
X137086619Y-52455142D01*
X137048523Y-52502761D01*
X136972333Y-52550380D01*
X136781857Y-52550380D01*
X136705666Y-52502761D01*
X136667571Y-52455142D01*
X137353285Y-51550380D02*
X137619952Y-52550380D01*
X137886619Y-51550380D01*
X143887571Y-52502761D02*
X144001857Y-52550380D01*
X144192333Y-52550380D01*
X144268523Y-52502761D01*
X144306619Y-52455142D01*
X144344714Y-52359904D01*
X144344714Y-52264666D01*
X144306619Y-52169428D01*
X144268523Y-52121809D01*
X144192333Y-52074190D01*
X144039952Y-52026571D01*
X143963761Y-51978952D01*
X143925666Y-51931333D01*
X143887571Y-51836095D01*
X143887571Y-51740857D01*
X143925666Y-51645619D01*
X143963761Y-51598000D01*
X144039952Y-51550380D01*
X144230428Y-51550380D01*
X144344714Y-51598000D01*
X144687571Y-52550380D02*
X144687571Y-51550380D01*
X144878047Y-51550380D01*
X144992333Y-51598000D01*
X145068523Y-51693238D01*
X145106619Y-51788476D01*
X145144714Y-51978952D01*
X145144714Y-52121809D01*
X145106619Y-52312285D01*
X145068523Y-52407523D01*
X144992333Y-52502761D01*
X144878047Y-52550380D01*
X144687571Y-52550380D01*
X145449476Y-52264666D02*
X145830428Y-52264666D01*
X145373285Y-52550380D02*
X145639952Y-51550380D01*
X145906619Y-52550380D01*
X141366619Y-52502761D02*
X141480904Y-52550380D01*
X141671380Y-52550380D01*
X141747571Y-52502761D01*
X141785666Y-52455142D01*
X141823761Y-52359904D01*
X141823761Y-52264666D01*
X141785666Y-52169428D01*
X141747571Y-52121809D01*
X141671380Y-52074190D01*
X141519000Y-52026571D01*
X141442809Y-51978952D01*
X141404714Y-51931333D01*
X141366619Y-51836095D01*
X141366619Y-51740857D01*
X141404714Y-51645619D01*
X141442809Y-51598000D01*
X141519000Y-51550380D01*
X141709476Y-51550380D01*
X141823761Y-51598000D01*
X142623761Y-52455142D02*
X142585666Y-52502761D01*
X142471380Y-52550380D01*
X142395190Y-52550380D01*
X142280904Y-52502761D01*
X142204714Y-52407523D01*
X142166619Y-52312285D01*
X142128523Y-52121809D01*
X142128523Y-51978952D01*
X142166619Y-51788476D01*
X142204714Y-51693238D01*
X142280904Y-51598000D01*
X142395190Y-51550380D01*
X142471380Y-51550380D01*
X142585666Y-51598000D01*
X142623761Y-51645619D01*
X143347571Y-52550380D02*
X142966619Y-52550380D01*
X142966619Y-51550380D01*
X139169476Y-51598000D02*
X139093285Y-51550380D01*
X138979000Y-51550380D01*
X138864714Y-51598000D01*
X138788523Y-51693238D01*
X138750428Y-51788476D01*
X138712333Y-51978952D01*
X138712333Y-52121809D01*
X138750428Y-52312285D01*
X138788523Y-52407523D01*
X138864714Y-52502761D01*
X138979000Y-52550380D01*
X139055190Y-52550380D01*
X139169476Y-52502761D01*
X139207571Y-52455142D01*
X139207571Y-52121809D01*
X139055190Y-52121809D01*
X139550428Y-52550380D02*
X139550428Y-51550380D01*
X140007571Y-52550380D01*
X140007571Y-51550380D01*
X140388523Y-52550380D02*
X140388523Y-51550380D01*
X140579000Y-51550380D01*
X140693285Y-51598000D01*
X140769476Y-51693238D01*
X140807571Y-51788476D01*
X140845666Y-51978952D01*
X140845666Y-52121809D01*
X140807571Y-52312285D01*
X140769476Y-52407523D01*
X140693285Y-52502761D01*
X140579000Y-52550380D01*
X140388523Y-52550380D01*
D10*
X140854714Y-43886571D02*
X140854714Y-42386571D01*
X141497571Y-42529428D02*
X141569000Y-42458000D01*
X141711857Y-42386571D01*
X142069000Y-42386571D01*
X142211857Y-42458000D01*
X142283285Y-42529428D01*
X142354714Y-42672285D01*
X142354714Y-42815142D01*
X142283285Y-43029428D01*
X141426142Y-43886571D01*
X142354714Y-43886571D01*
X143854714Y-43743714D02*
X143783285Y-43815142D01*
X143569000Y-43886571D01*
X143426142Y-43886571D01*
X143211857Y-43815142D01*
X143069000Y-43672285D01*
X142997571Y-43529428D01*
X142926142Y-43243714D01*
X142926142Y-43029428D01*
X142997571Y-42743714D01*
X143069000Y-42600857D01*
X143211857Y-42458000D01*
X143426142Y-42386571D01*
X143569000Y-42386571D01*
X143783285Y-42458000D01*
X143854714Y-42529428D01*
X153261142Y-42386571D02*
X153261142Y-43600857D01*
X153332571Y-43743714D01*
X153404000Y-43815142D01*
X153546857Y-43886571D01*
X153832571Y-43886571D01*
X153975428Y-43815142D01*
X154046857Y-43743714D01*
X154118285Y-43600857D01*
X154118285Y-42386571D01*
X154761142Y-43458000D02*
X155475428Y-43458000D01*
X154618285Y-43886571D02*
X155118285Y-42386571D01*
X155618285Y-43886571D01*
X156975428Y-43886571D02*
X156475428Y-43172285D01*
X156118285Y-43886571D02*
X156118285Y-42386571D01*
X156689714Y-42386571D01*
X156832571Y-42458000D01*
X156904000Y-42529428D01*
X156975428Y-42672285D01*
X156975428Y-42886571D01*
X156904000Y-43029428D01*
X156832571Y-43100857D01*
X156689714Y-43172285D01*
X156118285Y-43172285D01*
X157404000Y-42386571D02*
X158261142Y-42386571D01*
X157832571Y-43886571D02*
X157832571Y-42386571D01*
D12*
G04 #@! TO.C,R9*
X154122748Y-57103000D02*
X154645252Y-57103000D01*
X154122748Y-58523000D02*
X154645252Y-58523000D01*
G04 #@! TO.C,J9*
X151844000Y-50888000D02*
X151844000Y-48228000D01*
X151844000Y-50888000D02*
X159524000Y-50888000D01*
X159524000Y-50888000D02*
X159524000Y-48228000D01*
X151844000Y-48228000D02*
X159524000Y-48228000D01*
X149244000Y-48228000D02*
X150574000Y-48228000D01*
X149244000Y-49558000D02*
X149244000Y-48228000D01*
G04 #@! TO.C,J8*
X149244000Y-53368000D02*
X149244000Y-52038000D01*
X149244000Y-52038000D02*
X150574000Y-52038000D01*
X151844000Y-52038000D02*
X159524000Y-52038000D01*
X159524000Y-54698000D02*
X159524000Y-52038000D01*
X151844000Y-54698000D02*
X159524000Y-54698000D01*
X151844000Y-54698000D02*
X151844000Y-52038000D01*
G04 #@! TO.C,J7*
X138509000Y-50888000D02*
X138509000Y-48228000D01*
X138509000Y-50888000D02*
X146189000Y-50888000D01*
X146189000Y-50888000D02*
X146189000Y-48228000D01*
X138509000Y-48228000D02*
X146189000Y-48228000D01*
X135909000Y-48228000D02*
X137239000Y-48228000D01*
X135909000Y-49558000D02*
X135909000Y-48228000D01*
G04 #@! TO.C,J1*
X191154000Y-41918000D02*
X191154000Y-36718000D01*
X142834000Y-41918000D02*
X191154000Y-41918000D01*
X140234000Y-36718000D02*
X191154000Y-36718000D01*
X142834000Y-41918000D02*
X142834000Y-39318000D01*
X142834000Y-39318000D02*
X140234000Y-39318000D01*
X140234000Y-39318000D02*
X140234000Y-36718000D01*
X141564000Y-41918000D02*
X140234000Y-41918000D01*
X140234000Y-41918000D02*
X140234000Y-40588000D01*
G04 #@! TO.C,Y1*
X170963000Y-48487000D02*
X166263000Y-48487000D01*
X170963000Y-44787000D02*
X166263000Y-44787000D01*
X170963000Y-44787000D02*
G75*
G02X170963000Y-48487000I0J-1850000D01*
G01*
X166263000Y-44787000D02*
G75*
G03X166263000Y-48487000I0J-1850000D01*
G01*
D13*
G04 #@! TO.C,J5*
X190874000Y-60937000D02*
X190874000Y-60937000D01*
X190874000Y-60937000D02*
X196524000Y-60937000D01*
X196524000Y-60937000D02*
X196524000Y-60937000D01*
X196524000Y-60937000D02*
X190874000Y-60937000D01*
X190874000Y-60937000D02*
X190874000Y-45022000D01*
X190874000Y-45022000D02*
X190874000Y-45022000D01*
X190874000Y-45022000D02*
X190874000Y-60937000D01*
X190874000Y-60937000D02*
X190874000Y-60937000D01*
X190874000Y-45037000D02*
X190874000Y-45037000D01*
X190874000Y-45037000D02*
X196524000Y-45037000D01*
X196524000Y-45037000D02*
X196524000Y-45037000D01*
X196524000Y-45037000D02*
X190874000Y-45037000D01*
X207524000Y-45022000D02*
X207524000Y-45037000D01*
X207524000Y-45037000D02*
X212174000Y-45037000D01*
X212174000Y-45037000D02*
X212174000Y-45022000D01*
X212174000Y-45022000D02*
X207524000Y-45022000D01*
X212174000Y-45037000D02*
X212174000Y-60937000D01*
X212174000Y-60937000D02*
X212174000Y-60937000D01*
X212174000Y-60937000D02*
X212174000Y-45037000D01*
X212174000Y-45037000D02*
X212174000Y-45037000D01*
X212174000Y-60937000D02*
X212174000Y-60937000D01*
X212174000Y-60937000D02*
X207274000Y-60937000D01*
X207274000Y-60937000D02*
X207274000Y-60937000D01*
X207274000Y-60937000D02*
X212174000Y-60937000D01*
D11*
X195024000Y-44172000D02*
X195024000Y-44172000D01*
X195024000Y-44072000D02*
X195024000Y-44072000D01*
X195024000Y-44172000D02*
X195024000Y-44172000D01*
X195024000Y-44072000D02*
G75*
G02X195024000Y-44172000I0J-50000D01*
G01*
X195024000Y-44172000D02*
G75*
G02X195024000Y-44072000I0J50000D01*
G01*
X195024000Y-44072000D02*
G75*
G02X195024000Y-44172000I0J-50000D01*
G01*
D14*
G04 #@! TO.C,U1*
X183377000Y-57927000D02*
X183377000Y-57352000D01*
X177627000Y-57927000D02*
X177627000Y-57277000D01*
X177627000Y-47277000D02*
X177627000Y-47927000D01*
X183377000Y-47277000D02*
X183377000Y-47927000D01*
X183377000Y-57927000D02*
X177627000Y-57927000D01*
X183377000Y-47277000D02*
X177627000Y-47277000D01*
X183377000Y-57352000D02*
X184977000Y-57352000D01*
D12*
G04 #@! TO.C,L1*
X203897748Y-36783000D02*
X204420252Y-36783000D01*
X203897748Y-38203000D02*
X204420252Y-38203000D01*
G04 #@! TO.C,R5*
X198274000Y-39904252D02*
X198274000Y-39381748D01*
X196854000Y-39904252D02*
X196854000Y-39381748D01*
G04 #@! TO.C,R6*
X199394000Y-39904252D02*
X199394000Y-39381748D01*
X200814000Y-39904252D02*
X200814000Y-39381748D01*
G04 #@! TO.C,R7*
X204474000Y-40161748D02*
X204474000Y-40684252D01*
X205894000Y-40161748D02*
X205894000Y-40684252D01*
G04 #@! TO.C,R8*
X203354000Y-40161748D02*
X203354000Y-40684252D01*
X201934000Y-40161748D02*
X201934000Y-40684252D01*
G04 #@! TO.C,C1*
X173940252Y-59793000D02*
X173417748Y-59793000D01*
X173940252Y-58373000D02*
X173417748Y-58373000D01*
G04 #@! TO.C,C2*
X167227252Y-44045000D02*
X166704748Y-44045000D01*
X167227252Y-42625000D02*
X166704748Y-42625000D01*
G04 #@! TO.C,C3*
X166755000Y-50702748D02*
X166755000Y-51225252D01*
X168175000Y-50702748D02*
X168175000Y-51225252D01*
G04 #@! TO.C,C5*
X179277748Y-60428000D02*
X179800252Y-60428000D01*
X179277748Y-59008000D02*
X179800252Y-59008000D01*
G04 #@! TO.C,C6*
X171019252Y-55094000D02*
X170496748Y-55094000D01*
X171019252Y-53674000D02*
X170496748Y-53674000D01*
G04 #@! TO.C,C7*
X161294000Y-46756748D02*
X161294000Y-47279252D01*
X162714000Y-46756748D02*
X162714000Y-47279252D01*
G04 #@! TO.C,C8*
X163145252Y-55348000D02*
X162622748Y-55348000D01*
X163145252Y-53928000D02*
X162622748Y-53928000D01*
G04 #@! TO.C,C9*
X194314000Y-39381748D02*
X194314000Y-39904252D01*
X195734000Y-39381748D02*
X195734000Y-39904252D01*
G04 #@! TO.C,C10*
X207014000Y-40684252D02*
X207014000Y-40161748D01*
X208434000Y-40684252D02*
X208434000Y-40161748D01*
G04 #@! TO.C,J6*
X185499000Y-62198000D02*
X185499000Y-64858000D01*
X185499000Y-62198000D02*
X172739000Y-62198000D01*
X172739000Y-62198000D02*
X172739000Y-64858000D01*
X185499000Y-64858000D02*
X172739000Y-64858000D01*
X188099000Y-64858000D02*
X186769000Y-64858000D01*
X188099000Y-63528000D02*
X188099000Y-64858000D01*
G04 #@! TO.C,R1*
X184847748Y-45038000D02*
X185370252Y-45038000D01*
X184847748Y-46458000D02*
X185370252Y-46458000D01*
G04 #@! TO.C,R2*
X187260748Y-48363000D02*
X187783252Y-48363000D01*
X187260748Y-46943000D02*
X187783252Y-46943000D01*
G04 #@! TO.C,R3*
X165739000Y-59846748D02*
X165739000Y-60369252D01*
X167159000Y-59846748D02*
X167159000Y-60369252D01*
G04 #@! TO.C,R4*
X164619000Y-59846748D02*
X164619000Y-60369252D01*
X163199000Y-59846748D02*
X163199000Y-60369252D01*
G04 #@! TO.C,J2*
X138509000Y-47078000D02*
X138509000Y-44418000D01*
X138509000Y-47078000D02*
X146189000Y-47078000D01*
X146189000Y-47078000D02*
X146189000Y-44418000D01*
X138509000Y-44418000D02*
X146189000Y-44418000D01*
X135909000Y-44418000D02*
X137239000Y-44418000D01*
X135909000Y-45748000D02*
X135909000Y-44418000D01*
G04 #@! TO.C,J3*
X149244000Y-45748000D02*
X149244000Y-44418000D01*
X149244000Y-44418000D02*
X150574000Y-44418000D01*
X151844000Y-44418000D02*
X159524000Y-44418000D01*
X159524000Y-47078000D02*
X159524000Y-44418000D01*
X151844000Y-47078000D02*
X159524000Y-47078000D01*
X151844000Y-47078000D02*
X151844000Y-44418000D01*
G04 #@! TO.C,J4*
X142599000Y-62198000D02*
X142599000Y-64858000D01*
X142599000Y-62198000D02*
X134919000Y-62198000D01*
X134919000Y-62198000D02*
X134919000Y-64858000D01*
X142599000Y-64858000D02*
X134919000Y-64858000D01*
X145199000Y-64858000D02*
X143869000Y-64858000D01*
X145199000Y-63528000D02*
X145199000Y-64858000D01*
G04 #@! TO.C,C4*
X186694000Y-53239252D02*
X186694000Y-52716748D01*
X188114000Y-53239252D02*
X188114000Y-52716748D01*
G04 #@! TO.C,R9*
D14*
X154217333Y-60170380D02*
X153884000Y-59694190D01*
X153645904Y-60170380D02*
X153645904Y-59170380D01*
X154026857Y-59170380D01*
X154122095Y-59218000D01*
X154169714Y-59265619D01*
X154217333Y-59360857D01*
X154217333Y-59503714D01*
X154169714Y-59598952D01*
X154122095Y-59646571D01*
X154026857Y-59694190D01*
X153645904Y-59694190D01*
X154693523Y-60170380D02*
X154884000Y-60170380D01*
X154979238Y-60122761D01*
X155026857Y-60075142D01*
X155122095Y-59932285D01*
X155169714Y-59741809D01*
X155169714Y-59360857D01*
X155122095Y-59265619D01*
X155074476Y-59218000D01*
X154979238Y-59170380D01*
X154788761Y-59170380D01*
X154693523Y-59218000D01*
X154645904Y-59265619D01*
X154598285Y-59360857D01*
X154598285Y-59598952D01*
X154645904Y-59694190D01*
X154693523Y-59741809D01*
X154788761Y-59789428D01*
X154979238Y-59789428D01*
X155074476Y-59741809D01*
X155122095Y-59694190D01*
X155169714Y-59598952D01*
G04 #@! TO.C,J9*
X147256380Y-49891333D02*
X147970666Y-49891333D01*
X148113523Y-49938952D01*
X148208761Y-50034190D01*
X148256380Y-50177047D01*
X148256380Y-50272285D01*
X148256380Y-49367523D02*
X148256380Y-49177047D01*
X148208761Y-49081809D01*
X148161142Y-49034190D01*
X148018285Y-48938952D01*
X147827809Y-48891333D01*
X147446857Y-48891333D01*
X147351619Y-48938952D01*
X147304000Y-48986571D01*
X147256380Y-49081809D01*
X147256380Y-49272285D01*
X147304000Y-49367523D01*
X147351619Y-49415142D01*
X147446857Y-49462761D01*
X147684952Y-49462761D01*
X147780190Y-49415142D01*
X147827809Y-49367523D01*
X147875428Y-49272285D01*
X147875428Y-49081809D01*
X147827809Y-48986571D01*
X147780190Y-48938952D01*
X147684952Y-48891333D01*
G04 #@! TO.C,J8*
X147256380Y-53701333D02*
X147970666Y-53701333D01*
X148113523Y-53748952D01*
X148208761Y-53844190D01*
X148256380Y-53987047D01*
X148256380Y-54082285D01*
X147684952Y-53082285D02*
X147637333Y-53177523D01*
X147589714Y-53225142D01*
X147494476Y-53272761D01*
X147446857Y-53272761D01*
X147351619Y-53225142D01*
X147304000Y-53177523D01*
X147256380Y-53082285D01*
X147256380Y-52891809D01*
X147304000Y-52796571D01*
X147351619Y-52748952D01*
X147446857Y-52701333D01*
X147494476Y-52701333D01*
X147589714Y-52748952D01*
X147637333Y-52796571D01*
X147684952Y-52891809D01*
X147684952Y-53082285D01*
X147732571Y-53177523D01*
X147780190Y-53225142D01*
X147875428Y-53272761D01*
X148065904Y-53272761D01*
X148161142Y-53225142D01*
X148208761Y-53177523D01*
X148256380Y-53082285D01*
X148256380Y-52891809D01*
X148208761Y-52796571D01*
X148161142Y-52748952D01*
X148065904Y-52701333D01*
X147875428Y-52701333D01*
X147780190Y-52748952D01*
X147732571Y-52796571D01*
X147684952Y-52891809D01*
G04 #@! TO.C,J7*
X133921380Y-49891333D02*
X134635666Y-49891333D01*
X134778523Y-49938952D01*
X134873761Y-50034190D01*
X134921380Y-50177047D01*
X134921380Y-50272285D01*
X133921380Y-49510380D02*
X133921380Y-48843714D01*
X134921380Y-49272285D01*
G04 #@! TO.C,J1*
X138686380Y-39651333D02*
X139400666Y-39651333D01*
X139543523Y-39698952D01*
X139638761Y-39794190D01*
X139686380Y-39937047D01*
X139686380Y-40032285D01*
X139686380Y-38651333D02*
X139686380Y-39222761D01*
X139686380Y-38937047D02*
X138686380Y-38937047D01*
X138829238Y-39032285D01*
X138924476Y-39127523D01*
X138972095Y-39222761D01*
G04 #@! TO.C,Y1*
X172322809Y-48264190D02*
X172322809Y-48740380D01*
X171989476Y-47740380D02*
X172322809Y-48264190D01*
X172656142Y-47740380D01*
X173513285Y-48740380D02*
X172941857Y-48740380D01*
X173227571Y-48740380D02*
X173227571Y-47740380D01*
X173132333Y-47883238D01*
X173037095Y-47978476D01*
X172941857Y-48026095D01*
G04 #@! TO.C,J5*
D15*
X200828523Y-53410333D02*
X201735666Y-53410333D01*
X201917095Y-53470809D01*
X202038047Y-53591761D01*
X202098523Y-53773190D01*
X202098523Y-53894142D01*
X200828523Y-52200809D02*
X200828523Y-52805571D01*
X201433285Y-52866047D01*
X201372809Y-52805571D01*
X201312333Y-52684619D01*
X201312333Y-52382238D01*
X201372809Y-52261285D01*
X201433285Y-52200809D01*
X201554238Y-52140333D01*
X201856619Y-52140333D01*
X201977571Y-52200809D01*
X202038047Y-52261285D01*
X202098523Y-52382238D01*
X202098523Y-52684619D01*
X202038047Y-52805571D01*
X201977571Y-52866047D01*
G04 #@! TO.C,U1*
D14*
X179657095Y-54725380D02*
X179657095Y-55534904D01*
X179704714Y-55630142D01*
X179752333Y-55677761D01*
X179847571Y-55725380D01*
X180038047Y-55725380D01*
X180133285Y-55677761D01*
X180180904Y-55630142D01*
X180228523Y-55534904D01*
X180228523Y-54725380D01*
X181228523Y-55725380D02*
X180657095Y-55725380D01*
X180942809Y-55725380D02*
X180942809Y-54725380D01*
X180847571Y-54868238D01*
X180752333Y-54963476D01*
X180657095Y-55011095D01*
G04 #@! TO.C,L1*
X206922333Y-37945380D02*
X206446142Y-37945380D01*
X206446142Y-36945380D01*
X207779476Y-37945380D02*
X207208047Y-37945380D01*
X207493761Y-37945380D02*
X207493761Y-36945380D01*
X207398523Y-37088238D01*
X207303285Y-37183476D01*
X207208047Y-37231095D01*
G04 #@! TO.C,R5*
X197397333Y-37310380D02*
X197064000Y-36834190D01*
X196825904Y-37310380D02*
X196825904Y-36310380D01*
X197206857Y-36310380D01*
X197302095Y-36358000D01*
X197349714Y-36405619D01*
X197397333Y-36500857D01*
X197397333Y-36643714D01*
X197349714Y-36738952D01*
X197302095Y-36786571D01*
X197206857Y-36834190D01*
X196825904Y-36834190D01*
X198302095Y-36310380D02*
X197825904Y-36310380D01*
X197778285Y-36786571D01*
X197825904Y-36738952D01*
X197921142Y-36691333D01*
X198159238Y-36691333D01*
X198254476Y-36738952D01*
X198302095Y-36786571D01*
X198349714Y-36881809D01*
X198349714Y-37119904D01*
X198302095Y-37215142D01*
X198254476Y-37262761D01*
X198159238Y-37310380D01*
X197921142Y-37310380D01*
X197825904Y-37262761D01*
X197778285Y-37215142D01*
G04 #@! TO.C,R6*
X199937333Y-37310380D02*
X199604000Y-36834190D01*
X199365904Y-37310380D02*
X199365904Y-36310380D01*
X199746857Y-36310380D01*
X199842095Y-36358000D01*
X199889714Y-36405619D01*
X199937333Y-36500857D01*
X199937333Y-36643714D01*
X199889714Y-36738952D01*
X199842095Y-36786571D01*
X199746857Y-36834190D01*
X199365904Y-36834190D01*
X200794476Y-36310380D02*
X200604000Y-36310380D01*
X200508761Y-36358000D01*
X200461142Y-36405619D01*
X200365904Y-36548476D01*
X200318285Y-36738952D01*
X200318285Y-37119904D01*
X200365904Y-37215142D01*
X200413523Y-37262761D01*
X200508761Y-37310380D01*
X200699238Y-37310380D01*
X200794476Y-37262761D01*
X200842095Y-37215142D01*
X200889714Y-37119904D01*
X200889714Y-36881809D01*
X200842095Y-36786571D01*
X200794476Y-36738952D01*
X200699238Y-36691333D01*
X200508761Y-36691333D01*
X200413523Y-36738952D01*
X200365904Y-36786571D01*
X200318285Y-36881809D01*
G04 #@! TO.C,R7*
X205017333Y-43660380D02*
X204684000Y-43184190D01*
X204445904Y-43660380D02*
X204445904Y-42660380D01*
X204826857Y-42660380D01*
X204922095Y-42708000D01*
X204969714Y-42755619D01*
X205017333Y-42850857D01*
X205017333Y-42993714D01*
X204969714Y-43088952D01*
X204922095Y-43136571D01*
X204826857Y-43184190D01*
X204445904Y-43184190D01*
X205350666Y-42660380D02*
X206017333Y-42660380D01*
X205588761Y-43660380D01*
G04 #@! TO.C,R8*
X202477333Y-43660380D02*
X202144000Y-43184190D01*
X201905904Y-43660380D02*
X201905904Y-42660380D01*
X202286857Y-42660380D01*
X202382095Y-42708000D01*
X202429714Y-42755619D01*
X202477333Y-42850857D01*
X202477333Y-42993714D01*
X202429714Y-43088952D01*
X202382095Y-43136571D01*
X202286857Y-43184190D01*
X201905904Y-43184190D01*
X203048761Y-43088952D02*
X202953523Y-43041333D01*
X202905904Y-42993714D01*
X202858285Y-42898476D01*
X202858285Y-42850857D01*
X202905904Y-42755619D01*
X202953523Y-42708000D01*
X203048761Y-42660380D01*
X203239238Y-42660380D01*
X203334476Y-42708000D01*
X203382095Y-42755619D01*
X203429714Y-42850857D01*
X203429714Y-42898476D01*
X203382095Y-42993714D01*
X203334476Y-43041333D01*
X203239238Y-43088952D01*
X203048761Y-43088952D01*
X202953523Y-43136571D01*
X202905904Y-43184190D01*
X202858285Y-43279428D01*
X202858285Y-43469904D01*
X202905904Y-43565142D01*
X202953523Y-43612761D01*
X203048761Y-43660380D01*
X203239238Y-43660380D01*
X203334476Y-43612761D01*
X203382095Y-43565142D01*
X203429714Y-43469904D01*
X203429714Y-43279428D01*
X203382095Y-43184190D01*
X203334476Y-43136571D01*
X203239238Y-43088952D01*
G04 #@! TO.C,C1*
X173512333Y-61090142D02*
X173464714Y-61137761D01*
X173321857Y-61185380D01*
X173226619Y-61185380D01*
X173083761Y-61137761D01*
X172988523Y-61042523D01*
X172940904Y-60947285D01*
X172893285Y-60756809D01*
X172893285Y-60613952D01*
X172940904Y-60423476D01*
X172988523Y-60328238D01*
X173083761Y-60233000D01*
X173226619Y-60185380D01*
X173321857Y-60185380D01*
X173464714Y-60233000D01*
X173512333Y-60280619D01*
X174464714Y-61185380D02*
X173893285Y-61185380D01*
X174179000Y-61185380D02*
X174179000Y-60185380D01*
X174083761Y-60328238D01*
X173988523Y-60423476D01*
X173893285Y-60471095D01*
G04 #@! TO.C,C2*
X166799333Y-45470142D02*
X166751714Y-45517761D01*
X166608857Y-45565380D01*
X166513619Y-45565380D01*
X166370761Y-45517761D01*
X166275523Y-45422523D01*
X166227904Y-45327285D01*
X166180285Y-45136809D01*
X166180285Y-44993952D01*
X166227904Y-44803476D01*
X166275523Y-44708238D01*
X166370761Y-44613000D01*
X166513619Y-44565380D01*
X166608857Y-44565380D01*
X166751714Y-44613000D01*
X166799333Y-44660619D01*
X167180285Y-44660619D02*
X167227904Y-44613000D01*
X167323142Y-44565380D01*
X167561238Y-44565380D01*
X167656476Y-44613000D01*
X167704095Y-44660619D01*
X167751714Y-44755857D01*
X167751714Y-44851095D01*
X167704095Y-44993952D01*
X167132666Y-45565380D01*
X167751714Y-45565380D01*
G04 #@! TO.C,C3*
X169472142Y-51130666D02*
X169519761Y-51178285D01*
X169567380Y-51321142D01*
X169567380Y-51416380D01*
X169519761Y-51559238D01*
X169424523Y-51654476D01*
X169329285Y-51702095D01*
X169138809Y-51749714D01*
X168995952Y-51749714D01*
X168805476Y-51702095D01*
X168710238Y-51654476D01*
X168615000Y-51559238D01*
X168567380Y-51416380D01*
X168567380Y-51321142D01*
X168615000Y-51178285D01*
X168662619Y-51130666D01*
X168567380Y-50797333D02*
X168567380Y-50178285D01*
X168948333Y-50511619D01*
X168948333Y-50368761D01*
X168995952Y-50273523D01*
X169043571Y-50225904D01*
X169138809Y-50178285D01*
X169376904Y-50178285D01*
X169472142Y-50225904D01*
X169519761Y-50273523D01*
X169567380Y-50368761D01*
X169567380Y-50654476D01*
X169519761Y-50749714D01*
X169472142Y-50797333D01*
G04 #@! TO.C,C5*
X179617333Y-58425142D02*
X179569714Y-58472761D01*
X179426857Y-58520380D01*
X179331619Y-58520380D01*
X179188761Y-58472761D01*
X179093523Y-58377523D01*
X179045904Y-58282285D01*
X178998285Y-58091809D01*
X178998285Y-57948952D01*
X179045904Y-57758476D01*
X179093523Y-57663238D01*
X179188761Y-57568000D01*
X179331619Y-57520380D01*
X179426857Y-57520380D01*
X179569714Y-57568000D01*
X179617333Y-57615619D01*
X180522095Y-57520380D02*
X180045904Y-57520380D01*
X179998285Y-57996571D01*
X180045904Y-57948952D01*
X180141142Y-57901333D01*
X180379238Y-57901333D01*
X180474476Y-57948952D01*
X180522095Y-57996571D01*
X180569714Y-58091809D01*
X180569714Y-58329904D01*
X180522095Y-58425142D01*
X180474476Y-58472761D01*
X180379238Y-58520380D01*
X180141142Y-58520380D01*
X180045904Y-58472761D01*
X179998285Y-58425142D01*
G04 #@! TO.C,C6*
X170591333Y-56391142D02*
X170543714Y-56438761D01*
X170400857Y-56486380D01*
X170305619Y-56486380D01*
X170162761Y-56438761D01*
X170067523Y-56343523D01*
X170019904Y-56248285D01*
X169972285Y-56057809D01*
X169972285Y-55914952D01*
X170019904Y-55724476D01*
X170067523Y-55629238D01*
X170162761Y-55534000D01*
X170305619Y-55486380D01*
X170400857Y-55486380D01*
X170543714Y-55534000D01*
X170591333Y-55581619D01*
X171448476Y-55486380D02*
X171258000Y-55486380D01*
X171162761Y-55534000D01*
X171115142Y-55581619D01*
X171019904Y-55724476D01*
X170972285Y-55914952D01*
X170972285Y-56295904D01*
X171019904Y-56391142D01*
X171067523Y-56438761D01*
X171162761Y-56486380D01*
X171353238Y-56486380D01*
X171448476Y-56438761D01*
X171496095Y-56391142D01*
X171543714Y-56295904D01*
X171543714Y-56057809D01*
X171496095Y-55962571D01*
X171448476Y-55914952D01*
X171353238Y-55867333D01*
X171162761Y-55867333D01*
X171067523Y-55914952D01*
X171019904Y-55962571D01*
X170972285Y-56057809D01*
G04 #@! TO.C,C7*
X161202333Y-50550142D02*
X161154714Y-50597761D01*
X161011857Y-50645380D01*
X160916619Y-50645380D01*
X160773761Y-50597761D01*
X160678523Y-50502523D01*
X160630904Y-50407285D01*
X160583285Y-50216809D01*
X160583285Y-50073952D01*
X160630904Y-49883476D01*
X160678523Y-49788238D01*
X160773761Y-49693000D01*
X160916619Y-49645380D01*
X161011857Y-49645380D01*
X161154714Y-49693000D01*
X161202333Y-49740619D01*
X161535666Y-49645380D02*
X162202333Y-49645380D01*
X161773761Y-50645380D01*
G04 #@! TO.C,C8*
X162717333Y-56645142D02*
X162669714Y-56692761D01*
X162526857Y-56740380D01*
X162431619Y-56740380D01*
X162288761Y-56692761D01*
X162193523Y-56597523D01*
X162145904Y-56502285D01*
X162098285Y-56311809D01*
X162098285Y-56168952D01*
X162145904Y-55978476D01*
X162193523Y-55883238D01*
X162288761Y-55788000D01*
X162431619Y-55740380D01*
X162526857Y-55740380D01*
X162669714Y-55788000D01*
X162717333Y-55835619D01*
X163288761Y-56168952D02*
X163193523Y-56121333D01*
X163145904Y-56073714D01*
X163098285Y-55978476D01*
X163098285Y-55930857D01*
X163145904Y-55835619D01*
X163193523Y-55788000D01*
X163288761Y-55740380D01*
X163479238Y-55740380D01*
X163574476Y-55788000D01*
X163622095Y-55835619D01*
X163669714Y-55930857D01*
X163669714Y-55978476D01*
X163622095Y-56073714D01*
X163574476Y-56121333D01*
X163479238Y-56168952D01*
X163288761Y-56168952D01*
X163193523Y-56216571D01*
X163145904Y-56264190D01*
X163098285Y-56359428D01*
X163098285Y-56549904D01*
X163145904Y-56645142D01*
X163193523Y-56692761D01*
X163288761Y-56740380D01*
X163479238Y-56740380D01*
X163574476Y-56692761D01*
X163622095Y-56645142D01*
X163669714Y-56549904D01*
X163669714Y-56359428D01*
X163622095Y-56264190D01*
X163574476Y-56216571D01*
X163479238Y-56168952D01*
G04 #@! TO.C,C9*
X194857333Y-37215142D02*
X194809714Y-37262761D01*
X194666857Y-37310380D01*
X194571619Y-37310380D01*
X194428761Y-37262761D01*
X194333523Y-37167523D01*
X194285904Y-37072285D01*
X194238285Y-36881809D01*
X194238285Y-36738952D01*
X194285904Y-36548476D01*
X194333523Y-36453238D01*
X194428761Y-36358000D01*
X194571619Y-36310380D01*
X194666857Y-36310380D01*
X194809714Y-36358000D01*
X194857333Y-36405619D01*
X195333523Y-37310380D02*
X195524000Y-37310380D01*
X195619238Y-37262761D01*
X195666857Y-37215142D01*
X195762095Y-37072285D01*
X195809714Y-36881809D01*
X195809714Y-36500857D01*
X195762095Y-36405619D01*
X195714476Y-36358000D01*
X195619238Y-36310380D01*
X195428761Y-36310380D01*
X195333523Y-36358000D01*
X195285904Y-36405619D01*
X195238285Y-36500857D01*
X195238285Y-36738952D01*
X195285904Y-36834190D01*
X195333523Y-36881809D01*
X195428761Y-36929428D01*
X195619238Y-36929428D01*
X195714476Y-36881809D01*
X195762095Y-36834190D01*
X195809714Y-36738952D01*
G04 #@! TO.C,C10*
X207081142Y-43565142D02*
X207033523Y-43612761D01*
X206890666Y-43660380D01*
X206795428Y-43660380D01*
X206652571Y-43612761D01*
X206557333Y-43517523D01*
X206509714Y-43422285D01*
X206462095Y-43231809D01*
X206462095Y-43088952D01*
X206509714Y-42898476D01*
X206557333Y-42803238D01*
X206652571Y-42708000D01*
X206795428Y-42660380D01*
X206890666Y-42660380D01*
X207033523Y-42708000D01*
X207081142Y-42755619D01*
X208033523Y-43660380D02*
X207462095Y-43660380D01*
X207747809Y-43660380D02*
X207747809Y-42660380D01*
X207652571Y-42803238D01*
X207557333Y-42898476D01*
X207462095Y-42946095D01*
X208652571Y-42660380D02*
X208747809Y-42660380D01*
X208843047Y-42708000D01*
X208890666Y-42755619D01*
X208938285Y-42850857D01*
X208985904Y-43041333D01*
X208985904Y-43279428D01*
X208938285Y-43469904D01*
X208890666Y-43565142D01*
X208843047Y-43612761D01*
X208747809Y-43660380D01*
X208652571Y-43660380D01*
X208557333Y-43612761D01*
X208509714Y-43565142D01*
X208462095Y-43469904D01*
X208414476Y-43279428D01*
X208414476Y-43041333D01*
X208462095Y-42850857D01*
X208509714Y-42755619D01*
X208557333Y-42708000D01*
X208652571Y-42660380D01*
G04 #@! TO.C,J6*
X188991380Y-63861333D02*
X189705666Y-63861333D01*
X189848523Y-63908952D01*
X189943761Y-64004190D01*
X189991380Y-64147047D01*
X189991380Y-64242285D01*
X188991380Y-62956571D02*
X188991380Y-63147047D01*
X189039000Y-63242285D01*
X189086619Y-63289904D01*
X189229476Y-63385142D01*
X189419952Y-63432761D01*
X189800904Y-63432761D01*
X189896142Y-63385142D01*
X189943761Y-63337523D01*
X189991380Y-63242285D01*
X189991380Y-63051809D01*
X189943761Y-62956571D01*
X189896142Y-62908952D01*
X189800904Y-62861333D01*
X189562809Y-62861333D01*
X189467571Y-62908952D01*
X189419952Y-62956571D01*
X189372333Y-63051809D01*
X189372333Y-63242285D01*
X189419952Y-63337523D01*
X189467571Y-63385142D01*
X189562809Y-63432761D01*
G04 #@! TO.C,R1*
X184942333Y-44550380D02*
X184609000Y-44074190D01*
X184370904Y-44550380D02*
X184370904Y-43550380D01*
X184751857Y-43550380D01*
X184847095Y-43598000D01*
X184894714Y-43645619D01*
X184942333Y-43740857D01*
X184942333Y-43883714D01*
X184894714Y-43978952D01*
X184847095Y-44026571D01*
X184751857Y-44074190D01*
X184370904Y-44074190D01*
X185894714Y-44550380D02*
X185323285Y-44550380D01*
X185609000Y-44550380D02*
X185609000Y-43550380D01*
X185513761Y-43693238D01*
X185418523Y-43788476D01*
X185323285Y-43836095D01*
G04 #@! TO.C,R2*
X187872333Y-46455380D02*
X187539000Y-45979190D01*
X187300904Y-46455380D02*
X187300904Y-45455380D01*
X187681857Y-45455380D01*
X187777095Y-45503000D01*
X187824714Y-45550619D01*
X187872333Y-45645857D01*
X187872333Y-45788714D01*
X187824714Y-45883952D01*
X187777095Y-45931571D01*
X187681857Y-45979190D01*
X187300904Y-45979190D01*
X188253285Y-45550619D02*
X188300904Y-45503000D01*
X188396142Y-45455380D01*
X188634238Y-45455380D01*
X188729476Y-45503000D01*
X188777095Y-45550619D01*
X188824714Y-45645857D01*
X188824714Y-45741095D01*
X188777095Y-45883952D01*
X188205666Y-46455380D01*
X188824714Y-46455380D01*
G04 #@! TO.C,R3*
X168806380Y-59884666D02*
X168330190Y-60218000D01*
X168806380Y-60456095D02*
X167806380Y-60456095D01*
X167806380Y-60075142D01*
X167854000Y-59979904D01*
X167901619Y-59932285D01*
X167996857Y-59884666D01*
X168139714Y-59884666D01*
X168234952Y-59932285D01*
X168282571Y-59979904D01*
X168330190Y-60075142D01*
X168330190Y-60456095D01*
X167806380Y-59551333D02*
X167806380Y-58932285D01*
X168187333Y-59265619D01*
X168187333Y-59122761D01*
X168234952Y-59027523D01*
X168282571Y-58979904D01*
X168377809Y-58932285D01*
X168615904Y-58932285D01*
X168711142Y-58979904D01*
X168758761Y-59027523D01*
X168806380Y-59122761D01*
X168806380Y-59408476D01*
X168758761Y-59503714D01*
X168711142Y-59551333D01*
G04 #@! TO.C,R4*
X162456380Y-60274666D02*
X161980190Y-60608000D01*
X162456380Y-60846095D02*
X161456380Y-60846095D01*
X161456380Y-60465142D01*
X161504000Y-60369904D01*
X161551619Y-60322285D01*
X161646857Y-60274666D01*
X161789714Y-60274666D01*
X161884952Y-60322285D01*
X161932571Y-60369904D01*
X161980190Y-60465142D01*
X161980190Y-60846095D01*
X161789714Y-59417523D02*
X162456380Y-59417523D01*
X161408761Y-59655619D02*
X162123047Y-59893714D01*
X162123047Y-59274666D01*
G04 #@! TO.C,J2*
X133921380Y-46081333D02*
X134635666Y-46081333D01*
X134778523Y-46128952D01*
X134873761Y-46224190D01*
X134921380Y-46367047D01*
X134921380Y-46462285D01*
X134016619Y-45652761D02*
X133969000Y-45605142D01*
X133921380Y-45509904D01*
X133921380Y-45271809D01*
X133969000Y-45176571D01*
X134016619Y-45128952D01*
X134111857Y-45081333D01*
X134207095Y-45081333D01*
X134349952Y-45128952D01*
X134921380Y-45700380D01*
X134921380Y-45081333D01*
G04 #@! TO.C,J3*
X147256380Y-46081333D02*
X147970666Y-46081333D01*
X148113523Y-46128952D01*
X148208761Y-46224190D01*
X148256380Y-46367047D01*
X148256380Y-46462285D01*
X147256380Y-45700380D02*
X147256380Y-45081333D01*
X147637333Y-45414666D01*
X147637333Y-45271809D01*
X147684952Y-45176571D01*
X147732571Y-45128952D01*
X147827809Y-45081333D01*
X148065904Y-45081333D01*
X148161142Y-45128952D01*
X148208761Y-45176571D01*
X148256380Y-45271809D01*
X148256380Y-45557523D01*
X148208761Y-45652761D01*
X148161142Y-45700380D01*
G04 #@! TO.C,J4*
X146091380Y-63861333D02*
X146805666Y-63861333D01*
X146948523Y-63908952D01*
X147043761Y-64004190D01*
X147091380Y-64147047D01*
X147091380Y-64242285D01*
X146424714Y-62956571D02*
X147091380Y-62956571D01*
X146043761Y-63194666D02*
X146758047Y-63432761D01*
X146758047Y-62813714D01*
G04 #@! TO.C,C4*
X189285142Y-53144666D02*
X189332761Y-53192285D01*
X189380380Y-53335142D01*
X189380380Y-53430380D01*
X189332761Y-53573238D01*
X189237523Y-53668476D01*
X189142285Y-53716095D01*
X188951809Y-53763714D01*
X188808952Y-53763714D01*
X188618476Y-53716095D01*
X188523238Y-53668476D01*
X188428000Y-53573238D01*
X188380380Y-53430380D01*
X188380380Y-53335142D01*
X188428000Y-53192285D01*
X188475619Y-53144666D01*
X188713714Y-52287523D02*
X189380380Y-52287523D01*
X188332761Y-52525619D02*
X189047047Y-52763714D01*
X189047047Y-52144666D01*
G04 #@! TD*
M02*
